<?xml version="1.0" encoding="utf-8"?>
<!-- Generator: Adobe Illustrator 16.0.0, SVG Export Plug-In . SVG Version: 6.00 Build 0)  -->
<!DOCTYPE svg PUBLIC "-//W3C//DTD SVG 1.1//EN" "http://www.w3.org/Graphics/SVG/1.1/DTD/svg11.dtd">
<svg version="1.1" id="Layer_1" xmlns="http://www.w3.org/2000/svg" xmlns:xlink="http://www.w3.org/1999/xlink" x="0px" y="0px"
	 width="332.027px" height="343.039px" viewBox="0 0 332.027 343.039" enable-background="new 0 0 332.027 343.039"
	 xml:space="preserve">
<g>
	<g>
		<g>
			<path fill="#162477" d="M-0.001,76.396C-0.089,77.021,0,343.039,0,343.039l239.313-0.43c-0.008-8.611,0.668-9.482-0.237-17.457
				c-1.884-16.543-7.134-32.633-7.478-49.293c-0.379-18.295,5.162-36.064,8.68-53.986c3.518-17.924,4.813-37.529-3.375-53.638
				c-10.611-20.886-34.127-30.256-56.215-34.374c-22.087-4.118-45.348-4.912-65.276-15.771c-7.425-4.046-14.197-9.424-19.941-15.836
				c-5.615-6.268-10.213-13.464-15.453-20.085c-7.199-9.098-15.782-17.221-25.999-22.126c-10.216-4.906-22.212-6.35-32.764-2.278
				C12.371,61.192-0.137,76.61-0.137,76.61"/>
		</g>
		<g>
			<path fill="#FFBB22" d="M19.772,217.05c0,0-9.595,13.017-19.765,30.896L0,343.039h175.727
				c-2.885-19.369-8.113-40.908-4.754-60.367l-15.781-76.426L75.02,189.705L19.772,217.05z"/>
			<g>
				<g>
					<g>
						<path fill="#E89E0A" d="M96.476,194.766c0,0,5.153,9.043,20.216,9.883c15.063,0.844,16.616,4.863,22.708-1.138
							c6.092-6.002,9.056-19.481,0-34.28c-9.056-14.799-31.293-12.355-44.863-7.414C80.967,166.759,96.476,194.766,96.476,194.766z"
							/>
						<path fill="#2D1F04" d="M116.691,189.548c0,0,2.604-15.397,13.655-29.104c0,0,1.032,12.854,5.476,20.742
							C140.267,189.074,125.331,195.011,116.691,189.548z"/>
						<g>
							<path fill="#A06600" d="M103.26,184.744c-1.336,1.521-2.495,2.773-3.392,4.193c-0.461,0.696-0.845,1.43-1.167,2.229
								c-0.375,0.795-0.574,1.66-0.94,2.641c-0.469-0.899-0.702-1.947-0.593-2.99c0.076-1.043,0.437-2.084,1.02-2.959
								c0.57-0.885,1.331-1.629,2.197-2.172C101.256,185.156,102.221,184.768,103.26,184.744z"/>
							<path fill="#A06600" d="M107.553,188.313c-0.318,0.998-0.587,1.889-0.815,2.783c-0.23,0.889-0.432,1.754-0.587,2.635
								c-0.136,0.881-0.303,1.766-0.387,2.688c-0.133,0.924-0.184,1.867-0.391,2.91c-0.609-0.854-0.994-1.83-1.181-2.849
								c-0.213-1.018-0.175-2.078-0.008-3.108c0.184-1.031,0.571-2.029,1.124-2.916
								C105.871,189.583,106.591,188.777,107.553,188.313z"/>
							<path fill="#A06600" d="M113.368,191.503c0.184,1.904,0.013,3.56-0.124,5.215l-0.225,2.459l-0.17,2.623
								c-0.72-0.653-1.141-1.559-1.395-2.471c-0.232-0.922-0.279-1.869-0.202-2.791c0.083-0.922,0.306-1.82,0.641-2.674
								C112.246,193.018,112.683,192.197,113.368,191.503z"/>
							<path fill="#A06600" d="M120.153,192.773c0.556,0.768,0.87,1.6,1.112,2.442c0.228,0.847,0.351,1.714,0.373,2.589
								c0.016,0.875-0.071,1.758-0.288,2.625c-0.237,0.858-0.581,1.719-1.197,2.436c-0.196-0.926-0.288-1.744-0.37-2.568
								c-0.082-0.82-0.133-1.633-0.145-2.449c-0.018-0.817-0.001-1.641,0.066-2.479
								C119.784,194.525,119.888,193.677,120.153,192.773z"/>
							<path fill="#A06600" d="M127.284,193.805c0.689,0.62,1.101,1.418,1.414,2.227c0.299,0.813,0.469,1.67,0.518,2.529
								c0.066,1.711-0.239,3.473-1.309,4.95c-0.281-0.881-0.379-1.689-0.492-2.489c-0.083-0.799-0.167-1.575-0.196-2.354
								c-0.042-0.776-0.064-1.556-0.062-2.353C127.167,195.516,127.189,194.71,127.284,193.805z"/>
							<path fill="#A06600" d="M132.685,168.544c0.03-0.593,0.338-1.036,0.7-1.377c0.373-0.332,0.836-0.56,1.324-0.643
								c0.969-0.159,2.039,0.135,2.615,1.127c-0.51,0.303-0.899,0.436-1.262,0.577c-0.36,0.112-0.676,0.217-0.999,0.264
								c-0.323,0.052-0.645,0.089-1.018,0.096C133.663,168.592,133.261,168.583,132.685,168.544z"/>
							<path fill="#A06600" d="M133.723,172.457c0.183-0.667,0.688-1.12,1.219-1.438c0.545-0.311,1.161-0.463,1.768-0.484
								c0.609-0.021,1.209,0.105,1.756,0.344c0.544,0.252,1.042,0.609,1.419,1.168c-0.642,0.236-1.174,0.309-1.684,0.381
								c-0.506,0.068-0.974,0.094-1.433,0.105c-0.459,0.016-0.909,0.006-1.391-0.01L133.723,172.457z"/>
							<path fill="#A06600" d="M135.003,176.917c0.362-0.649,0.923-1.072,1.523-1.39c0.608-0.305,1.286-0.471,1.977-0.487
								c1.366-0.043,2.864,0.565,3.527,1.877c-0.748,0.08-1.314,0.041-1.881,0.082l-1.601,0.041
								c-0.527,0.012-1.065,0.015-1.641,0.008C136.328,177.035,135.73,177.018,135.003,176.917z"/>
							<path fill="#A06600" d="M137.098,180.589c0.263-0.598,0.784-0.938,1.304-1.164c0.531-0.213,1.1-0.276,1.647-0.227
								c0.549,0.051,1.074,0.229,1.543,0.51c0.464,0.291,0.88,0.67,1.165,1.242c-0.614,0.198-1.11,0.237-1.584,0.272
								c-0.469,0.025-0.899,0.006-1.319-0.035c-0.419-0.039-0.828-0.112-1.263-0.207C138.15,180.88,137.707,180.755,137.098,180.589
								z"/>
						</g>
					</g>
					<g>
						<path fill="#FFCDBD" d="M116.691,189.548c0,0,3.877-21.417,21.324-36.242c0,0,31.017,21.417,57.325-2.472
							c0,0,12.739-9.609,12.739-33.771c0,0,1.662-34.595-1.386-43.381c-3.047-8.786-28.246-33.497-64.249-15.101
							c-36.001,18.396-50.679,102.961-49.571,108.727C92.875,167.308,111.43,194.766,116.691,189.548z"/>
					</g>
					<g>
						<path fill="#FF9C85" d="M186.063,107.179c0,0,0.971-3.569-1.662-0.824c-2.631,2.746-7.198,8.374-7.893,11.532
							c-0.691,3.157,0.174,11.257,4.864,9.061c4.69-2.196,4.274-6.569,4.136-10.629
							C185.371,112.258,186.063,107.179,186.063,107.179z"/>
						<g>
							<path fill="#0B1838" d="M154.008,95.579c0,0-2.354-0.412-0.624-1.922c1.731-1.51,10.731-3.569,16.132-1.167
								c5.399,2.402-3.601,2.06-6.924,2.06C159.269,94.55,154.008,95.579,154.008,95.579z"/>
							<path fill="#0B1838" d="M206.02,101.975c0,0,1.57,0.03,0.853-1.591c-0.722-1.621-5.851-4.941-9.804-3.726
								c-3.949,1.217,1.758,2.418,3.834,2.974C202.979,100.188,206.02,101.975,206.02,101.975z"/>
						</g>
						<g>
							<path fill="#0B1838" d="M162.019,106.471c-0.545,2.598-1.697,4.558-2.572,4.377c-0.875-0.181-1.143-2.433-0.597-5.031
								c0.545-2.598,1.697-4.558,2.572-4.377S162.564,103.874,162.019,106.471z"/>
							<path fill="#0B1838" d="M201.205,112.344c-0.546,2.598-1.697,4.557-2.572,4.377c-0.875-0.181-1.142-2.434-0.597-5.031
								c0.545-2.599,1.696-4.558,2.571-4.377S201.75,109.746,201.205,112.344z"/>
						</g>
					</g>
					<g>
						<path fill="#0B1838" d="M28.351,231.283c0,0-18.007-8.945-28.352-24.676L0,174.494
							C20.633,124.103,97.002,14.542,151.862,12.729c66.464-2.197,67.572,43.93,67.572,43.93s2.215,27.731,8.309,33.222
							c0,0-5.264,2.196-19.108-1.098l-0.276-10.159l-4.153,9.609c0,0-22.985-0.824-43.755-12.355c0,0,5.262-12.904,5.815-20.592
							c0,0-10.8,20.043-14.677,21.142l-8.862-2.471c0,0-47.632,60.404-44.725,111.063c0,0,2.908,26.77,9.139,39.537
							C107.137,224.555,70.444,243.363,28.351,231.283z"/>
						<g>
							<path fill="#1E3F82" d="M5.642,196.949c2.468-6.836,5.338-13.52,8.268-20.172c3.001-6.622,6.168-13.17,9.476-19.648
								c6.625-12.953,14.026-25.508,21.985-37.699c8.117-12.084,16.852-23.783,26.577-34.634
								c4.887-5.402,10.009-10.585,15.333-15.549c5.428-4.852,11.048-9.485,16.978-13.686c-5.657,4.563-11.127,9.326-16.305,14.398
								c-5.163,5.085-10.132,10.358-14.852,15.852c-4.66,5.542-9.274,11.123-13.597,16.936c-4.321,5.811-8.493,11.733-12.471,17.787
								c-4.014,6.028-7.878,12.158-11.591,18.382c-3.721,6.22-7.214,12.571-10.704,18.927c-3.462,6.371-6.771,12.826-9.948,19.349
								C11.57,183.691,8.527,190.283,5.642,196.949z"/>
							<path fill="#1E3F82" d="M42.665,161.868c2.564-7.373,5.728-14.539,9.259-21.512c3.524-6.981,7.483-13.743,11.777-20.293
								c4.371-6.499,9.169-12.718,14.417-18.539c5.324-5.756,11.228-10.976,17.65-15.409c-2.873,2.656-5.94,5.042-8.568,7.923
								c-2.823,2.665-5.307,5.658-7.914,8.521l-3.663,4.516c-0.603,0.758-1.242,1.486-1.814,2.269l-1.724,2.342
								c-1.129,1.575-2.369,3.067-3.432,4.692l-3.29,4.796c-4.286,6.465-8.283,13.124-12.067,19.911
								c-1.879,3.4-3.723,6.824-5.484,10.294C45.993,154.82,44.327,158.337,42.665,161.868z"/>
							<path fill="#1E3F82" d="M192.086,28.516c5.057,2.01,9.45,5.625,12.691,10.041c0.433,0.536,0.803,1.114,1.168,1.695
								c0.367,0.581,0.753,1.151,1.051,1.772l0.949,1.83l0.799,1.901c0.288,0.626,0.486,1.284,0.697,1.938
								c0.205,0.654,0.437,1.307,0.619,1.963c0.348,1.315,0.715,2.625,1.031,3.948c1.264,5.292,2.303,10.628,3.286,15.96
								c0.491,2.667,0.985,5.331,1.606,7.962c0.604,2.631,1.324,5.262,2.686,7.619c-1.559-2.242-2.396-4.898-3.156-7.497
								c-0.725-2.625-1.307-5.282-1.89-7.933c-1.144-5.308-2.171-10.628-3.502-15.875c-0.302-1.319-0.651-2.625-0.981-3.937
								c-0.176-0.652-0.393-1.281-0.584-1.923c-0.199-0.64-0.385-1.284-0.658-1.896c-0.905-2.526-2.268-4.854-3.744-7.083
								c-1.512-2.213-3.316-4.233-5.354-5.994C196.777,31.236,194.539,29.68,192.086,28.516z"/>
							<path fill="#1E3F82" d="M176.589,28.461c-2.235,0.19-4.401,0.832-6.431,1.719c-2.026,0.892-3.977,1.985-5.682,3.397
								c-3.506,2.703-6.298,6.243-8.428,10.122c-2.198,3.859-3.553,8.122-5.152,12.321l-2.41,6.284l-1.283,3.113
								c-0.219,0.517-0.439,1.033-0.679,1.543l-0.193,0.378c-0.051,0.065-0.037,0.118-0.161,0.196
								c-0.112-0.037-0.051-0.117-0.062-0.138l0.021-0.106c0.067-0.276,0.155-0.542,0.242-0.808
								c-0.063,0.272-0.126,0.547-0.167,0.822l-0.012,0.102c-0.011,0.034,0.024,0.072-0.028,0.035
								c-0.019-0.01,0.048-0.098,0.065-0.152l0.155-0.387c0.201-0.521,0.387-1.05,0.57-1.579l1.07-3.188l2.146-6.372
								c0.351-1.065,0.706-2.127,1.077-3.185c0.361-1.06,0.722-2.12,1.151-3.17c0.427-1.047,0.787-2.123,1.27-3.146l1.505-3.049
								c2.25-3.926,5.125-7.592,8.839-10.247C167.666,30.295,172.078,28.5,176.589,28.461z"/>
							<path fill="#1E3F82" d="M187.518,34.488c1.744,2.936,2.291,6.398,2.762,9.735c0.423,3.373,0.484,6.775,0.39,10.161
								c-0.026,1.695-0.174,3.382-0.272,5.072c-0.174,1.682-0.312,3.374-0.521,5.044l-0.587,5.024
								c-0.23,1.672-0.432,3.348-0.691,5.019c0.036-1.688,0.137-3.373,0.203-5.061l0.311-5.055l0.342-5.038
								c0.068-1.678,0.208-3.355,0.219-5.034c0.12-3.355,0.083-6.714-0.15-10.057c-0.146-1.667-0.299-3.341-0.621-4.985
								C188.607,37.666,188.238,36.015,187.518,34.488z"/>
							<path fill="#1E3F82" d="M109.611,101.975c-3.392,5.804-6.416,11.786-9.261,17.832c-2.815,6.063-5.367,12.238-7.518,18.548
								c-2.166,6.302-3.907,12.745-5.101,19.298c-0.582,3.279-0.999,6.586-1.272,9.913c-0.28,3.331-0.27,6.676-0.179,10.04
								c-0.542-3.32-0.751-6.695-0.8-10.077c0.041-3.378,0.252-6.762,0.709-10.116c0.452-3.354,1.103-6.682,1.894-9.972
								c0.824-3.281,1.778-6.529,2.858-9.733c1.121-3.189,2.329-6.346,3.661-9.449c1.352-3.094,2.783-6.152,4.353-9.138
								C102.062,113.137,105.571,107.357,109.611,101.975z"/>
						</g>
					</g>
					<g>
						<path fill="#FFCDBD" d="M127.492,106.355c0,0-12.877-8.957-10.592-22.548c0,0,2.804-8.443,10.592-5.972
							c7.789,2.471,6.646,10.502,6.646,10.502L127.492,106.355z"/>
						<path fill="#B26356" d="M129.43,85.145c-0.84-0.68-1.739-1.257-2.585-1.39c-0.841-0.13-1.406,0.166-1.965,0.729
							c-0.555,0.575-1.026,1.378-1.469,2.2c-0.375,0.781-0.637,1.554-0.741,2.423c-0.096,0.861-0.084,1.756,0.032,2.665
							c0.136,0.906,0.365,1.811,0.672,2.709c0.338,0.879,0.732,1.761,1.279,2.562c0.529,0.821,1.193,1.564,2.125,2.144
							c-1.12,0.073-2.235-0.443-3.168-1.104c-0.92-0.695-1.719-1.562-2.344-2.542c-0.609-0.988-1.061-2.077-1.356-3.223
							c-0.27-1.153-0.348-2.369-0.213-3.591c0.152-1.217,0.611-2.448,1.271-3.484c0.655-0.953,1.386-1.909,2.495-2.632
							c0.29-0.172,0.61-0.313,0.911-0.454c0.343-0.096,0.686-0.203,1.041-0.222c0.726-0.038,1.431,0.137,1.989,0.466
							C128.491,83.098,129.117,84.094,129.43,85.145z"/>
					</g>
				</g>
				<g>
					<path fill="#FFFFFF" d="M143.9,160.101c0,0-16.2-2.677-17.031-11.737c-0.831-9.063,4.154-7.413,8.516-12.974
						c4.362-5.56,6.439-14.62,19.108-13.179s12.462,5.148,16.407,10.09c3.947,4.942,9.971,5.767,16.617,3.913
						c6.646-1.854,13.707-1.595,16.199,4.865c2.493,6.46-1.244,20.669-12.462,21.493c-11.216,0.823-32.816,4.53-37.594,2.265
						C148.885,162.573,143.9,160.101,143.9,160.101z"/>
					<g>
						<g>
							<path fill="#FFBB22" d="M35.897,177.605c0,0-11.008,4.914-12.462,19.344c-1.454,14.428,5.051,23.828,4.154,28.637
								s-3.739,20.387-2.908,25.328s4.569,18.328,12.877,20.592c8.308,2.268,16.616,6.18,20.562,14.416
								c3.946,8.236,10.8,17.504,15.577,19.148c4.777,1.647,23.055,20.594,25.339,21.623c2.285,1.029,19.731,12.354,49.848,0
								c30.116-12.354,8.516-33.152,27.417-50.656c18.9-17.504,2.146-22.789,2.146-38.164s1.385-20.594,1.385-20.594
								s-25.478-11.807-44.032-7.412c0,0-2.492-0.275-2.215,9.336c0.277,9.607-2.216,13.729-4.431,17.297
								c-2.215,3.568-1.938,9.336-1.938,9.336s-10.315-10.777-10.523-21.691S98,204.582,94.885,197.992
								C91.768,191.402,63.105,163.396,35.897,177.605z"/>
							<g>
								<path fill="#C1840A" d="M134.75,210.412c-0.268,0.314-0.482,0.674-0.656,1.043c-0.365,0.74-0.562,1.535-0.746,2.326
									c-0.344,1.586-0.511,3.199-0.574,4.805c-0.139,3.152-0.4,6.223-1.22,9.121c-0.399,1.441-0.917,2.828-1.586,4.145
									c-0.66,1.338-1.482,2.523-2.371,3.906c-0.992,1.625-1.495,3.336-1.838,5.021c-0.011,0.06-0.019,0.117-0.029,0.177
									c-1.909-2.597-3.584-5.408-4.924-8.258c-0.962-2.125-1.719-4.332-2.037-6.56c-0.102-0.555-0.121-1.106-0.189-1.662
									l-0.091-0.977c-0.028-0.367-0.067-0.73-0.146-1.084c-0.259-1.434-0.765-2.775-1.401-3.998
									c-1.289-2.439-3.07-4.412-4.907-6.189c-1.837-1.795-3.829-3.346-5.823-4.848c-1.982-1.518-4.036-2.906-5.995-4.393
									c-0.983-0.74-1.962-1.482-2.876-2.297c-0.914-0.813-1.792-1.674-2.465-2.726c0.43,1.175,1.162,2.236,1.943,3.22
									c0.795,0.979,1.65,1.903,2.531,2.795c1.778,1.764,3.604,3.457,5.41,5.129c1.795,1.688,3.543,3.395,5.14,5.174
									c1.602,1.773,2.969,3.699,3.933,5.682c0.461,0.996,0.779,2.02,0.913,3.031c0.048,0.252,0.059,0.506,0.065,0.758l0.043,0.877
									c0.045,0.678,0.047,1.367,0.136,2.035c0.333,2.693,1.182,5.229,2.217,7.627c1.039,2.4,2.327,4.658,3.787,6.775
									c1.465,2.139,3.006,4.111,4.83,6.065l3.5,3.75l-0.202-5.168c-0.109-2.782,0.188-5.985,1.403-8.223
									c0.75-1.313,1.599-2.822,2.228-4.373c0.643-1.562,1.131-3.188,1.421-4.828c0.549-3.28,0.519-6.58,0.191-9.733
									c-0.136-1.556-0.205-3.109-0.142-4.658c0.048-0.771,0.123-1.543,0.311-2.283c0.092-0.373,0.221-0.732,0.406-1.066
									c0.185-0.322,0.456-0.645,0.854-0.709C135.385,209.82,135.011,210.107,134.75,210.412z"/>
								<path fill="#C1840A" d="M145.544,327.861l-1.779,0.582c-0.596,0.184-1.208,0.313-1.811,0.475l-3.615,0.939l-3.665,0.688
									c-4.893,0.812-9.852,1.187-14.755,0.813c-4.895-0.348-9.734-1.361-14.241-3.162c-1.127-0.449-2.228-0.951-3.313-1.488
									c-0.54-0.271-1.08-0.549-1.623-0.85l-0.897-0.473c-0.069-0.06-0.138-0.113-0.21-0.164l-0.11-0.072l-0.164-0.135
									c-1.784-1.5-3.606-3.298-5.394-5.009c-3.587-3.477-7.174-6.981-10.942-10.35c-1.905-1.681-3.78-3.353-5.967-4.902
									c-0.597-0.377-1.078-0.771-1.879-1.123l-0.913-0.428c-0.21-0.101-0.421-0.166-0.643-0.32
									c-0.882-0.483-1.766-1.231-2.605-2.014c-3.36-3.229-6.208-7.31-8.632-11.498c-0.602-1.058-1.182-2.123-1.723-3.207
									c-0.517-1.017-1.119-2.338-1.862-3.47c-1.456-2.313-3.311-4.374-5.424-6.049c-4.255-3.348-9.214-5.358-14.152-6.762
									l-0.929-0.262l-0.701-0.262c-0.482-0.127-0.915-0.42-1.366-0.658c-0.459-0.225-0.849-0.617-1.284-0.908
									c-0.405-0.354-0.791-0.746-1.184-1.125c-1.502-1.639-2.718-3.658-3.75-5.783c-1.025-2.135-1.85-4.404-2.511-6.719
									c-0.316-1.154-0.617-2.33-0.823-3.48c-0.166-0.989-0.168-2.188-0.144-3.373c0.078-2.401,0.342-4.864,0.623-7.319
									c0.283-2.459,0.623-4.922,0.992-7.381l0.578-3.689l0.304-1.844c0.096-0.635,0.228-1.149,0.274-2.021
									c0.055-1.557-0.266-2.875-0.591-4.139c-0.341-1.252-0.739-2.453-1.12-3.643c-1.554-4.727-2.838-9.457-3.116-14.357
									c-0.153-2.43-0.168-4.912,0.16-7.32c0.285-2.416,0.885-4.807,1.869-7.045c0.964-2.246,2.285-4.352,3.906-6.217
									c0.391-0.479,0.842-0.904,1.262-1.361c0.459-0.414,0.893-0.862,1.382-1.246c0.95-0.801,1.967-1.534,3.068-2.129
									c-4.552,2.115-8.3,5.931-10.615,10.482c-1.195,2.27-1.952,4.758-2.396,7.281c-0.483,2.529-0.606,5.076-0.587,7.637
									c0.045,5.129,1.21,10.197,2.568,15.023c0.336,1.207,0.659,2.4,0.943,3.568c0.273,1.157,0.469,2.319,0.398,3.268
									c-0.012,0.383-0.175,1.088-0.291,1.686l-0.364,1.85l-0.699,3.705c-0.884,4.959-1.74,9.898-2.04,15.07
									c-0.044,1.312-0.094,2.627,0.123,4.113c0.21,1.314,0.508,2.572,0.828,3.834c0.667,2.51,1.506,4.977,2.601,7.371
									c1.096,2.393,2.463,4.723,4.333,6.793c0.497,0.496,0.99,1,1.525,1.467c0.587,0.424,1.107,0.92,1.764,1.27
									c0.645,0.359,1.269,0.756,1.997,0.979l1.061,0.386l0.875,0.252c4.65,1.344,9.121,3.243,12.735,6.131
									c1.812,1.43,3.358,3.131,4.577,5.041c0.322,0.468,0.588,0.97,0.85,1.473c0.259,0.467,0.561,1.09,0.847,1.656
									c0.583,1.149,1.205,2.277,1.85,3.393c1.296,2.221,2.702,4.373,4.245,6.446c1.554,2.063,3.218,4.069,5.204,5.88
									c1.009,0.896,2.055,1.773,3.377,2.482c0.302,0.19,0.683,0.338,1.044,0.492c0.161,0.069,0.41,0.161,0.5,0.211l0.292,0.146
									c0.361,0.126,0.881,0.501,1.344,0.784c1.922,1.305,3.831,2.924,5.704,4.518c3.739,3.248,7.408,6.633,11.122,9.996
									c1.881,1.688,3.667,3.361,5.767,5.018l0.203,0.156l0.283,0.184l0.577,0.349l0.773,0.379
									c0.562,0.287,1.144,0.563,1.729,0.836c1.171,0.543,2.374,1.021,3.589,1.445c4.869,1.7,9.982,2.545,15.071,2.67
									c5.097,0.094,10.161-0.537,15.068-1.688c4.94-1.065,9.621-2.979,14.214-4.938L145.544,327.861z"/>
							</g>
						</g>
						<g>
							<path fill="#2D1F04" d="M137.253,183.99c0,0,17.724-10.354,39.358-1.34c0,0,18.693,8.34,9.498,13.563
								c0,0-4.928,6.238-31.928,3.492C127.18,196.96,137.253,183.99,137.253,183.99z"/>
							<g>
								<path fill="#FFCDBD" d="M147.431,194.572c0,0,7.642-12.158,0-26c-7.643-13.843-13.729-11.022-13.234-17.522
									c0,0,0.284-3.957,7.036-0.848c6.752,3.108,14.09,11.021,21.845,6.5c7.754-4.522,18.97-13.707,24.924-12.294
									c0,0,3.461,1.555-4.292,6.5c0,0,12.185-10.043,15.093-6.646c2.908,3.397-14.4,12.158-22.016,21.201
									c-7.616,9.043-8.169,31.088-6.646,35.895C170.139,201.355,148.123,199.8,147.431,194.572z"/>
								<path fill="#B26356" d="M186.236,148.962c-1.498,1.529-3.219,2.766-4.996,3.901c-1.795,1.108-3.666,2.112-5.701,2.775
									c1.652-1.358,3.402-2.496,5.17-3.623C182.494,150.917,184.29,149.843,186.236,148.962z"/>
							</g>
							<g>
								<path fill="#E89E0A" d="M137.253,183.99c0,0-4.984-0.926-5.4,14.092s0,16.359,7.477,16.809
									c7.478,0.447,26.585,4.701,33.855,7.389c7.27,2.688,14.746-1.791,14.746-11.645c0-9.852,0.612-16.18,0.612-16.18
									s-13.976,10.893-37.871,1.551C133.297,189.212,137.253,183.99,137.253,183.99z"/>
								<g>
									<path fill="#A06600" d="M139.253,190.768l-0.796,5.229c-0.25,1.719-0.446,3.426-0.608,5.131
										c-0.171,1.705-0.242,3.41-0.269,5.129c-0.039,1.729,0.102,3.438,0.161,5.256c-0.859-1.58-1.458-3.336-1.717-5.133
										c-0.271-1.795-0.358-3.631-0.167-5.436c0.167-1.805,0.535-3.586,1.085-5.303
										C137.499,193.93,138.218,192.257,139.253,190.768z"/>
									<path fill="#A06600" d="M180.546,221.162l0.751-5.234c0.235-1.719,0.417-3.43,0.564-5.135
										c0.156-1.707,0.213-3.412,0.225-5.133c0.023-1.729-0.131-3.436-0.206-5.254c0.872,1.574,1.487,3.322,1.761,5.119
										c0.285,1.791,0.39,3.627,0.213,5.432c-0.15,1.809-0.504,3.59-1.041,5.313C182.273,217.984,181.568,219.662,180.546,221.162
										z"/>
									<path fill="#A06600" d="M146.704,196.035c-0.77,2.914-1.256,5.65-1.48,8.459c-0.081,1.398-0.188,2.805-0.15,4.23
										c-0.012,1.436,0.09,2.868,0.06,4.401c-0.772-1.308-1.324-2.742-1.612-4.235c-0.336-1.486-0.394-3.031-0.291-4.56
										c0.112-1.529,0.479-3.037,1.034-4.461C144.825,198.458,145.591,197.093,146.704,196.035z"/>
									<path fill="#A06600" d="M152.412,198.505c0.472,1.3,0.699,2.627,0.832,3.957c0.128,1.33,0.163,2.67,0.063,4.006
										c-0.096,1.334-0.297,2.668-0.662,3.976c-0.362,1.303-0.861,2.602-1.687,3.713c0.035-1.379,0.079-2.664,0.146-3.957
										c0.068-1.291,0.104-2.582,0.208-3.871c0.094-1.289,0.213-2.582,0.377-3.885
										C151.85,201.143,152.057,199.837,152.412,198.505z"/>
									<path fill="#A06600" d="M161.095,201.139c0.204,1.313,0.213,2.598,0.154,3.868c-0.06,1.271-0.188,2.531-0.394,3.779
										c-0.199,1.248-0.482,2.483-0.83,3.709c-0.349,1.223-0.768,2.437-1.383,3.616c-0.206-1.315-0.216-2.6-0.157-3.87
										c0.062-1.271,0.187-2.531,0.396-3.777c0.203-1.248,0.484-2.483,0.833-3.707
										C160.064,203.533,160.482,202.32,161.095,201.139z"/>
									<path fill="#A06600" d="M168.301,201.8c0.565,1.306,0.797,2.701,0.883,4.087c0.084,1.391,0.025,2.79-0.211,4.163
										c-0.228,1.373-0.601,2.726-1.142,4.011c-0.515,1.291-1.222,2.514-2.122,3.598c0.136-1.416,0.409-2.721,0.625-4.035
										l0.666-3.896C167.451,207.126,167.792,204.552,168.301,201.8z"/>
									<path fill="#A06600" d="M175.777,201.8c0.578,1.48,0.731,3.06,0.808,4.597c0.06,1.545,0.005,3.088-0.167,4.61
										c-0.163,1.525-0.443,3.035-0.809,4.525c-0.366,1.489-0.828,2.961-1.492,4.389c-0.156-1.569-0.126-3.098-0.051-4.614
										c0.074-1.519,0.192-3.021,0.363-4.519c0.166-1.498,0.372-2.986,0.604-4.476C175.249,204.818,175.529,203.343,175.777,201.8
										z"/>
								</g>
							</g>
						</g>
					</g>
				</g>
			</g>
		</g>
		<g>
			<g>
				<g>
					<path fill="#0B40AA" d="M231.665,271.46c0-1.856-1.505-3.36-3.362-3.36s-3.361,1.504-3.361,3.36
						c0,1.396,0.853,2.595,2.064,3.103c0.012,0.149,0.026,0.303,0.049,0.453c0.081,0.543,0.188,1.086,0.239,1.629l0.17,1.627
						l0.208,1.629c0.154,1.086,0.305,2.172,0.504,3.258h0.252c0.199-1.086,0.35-2.172,0.504-3.258l0.209-1.629l0.17-1.627
						c0.051-0.543,0.157-1.086,0.239-1.629c0.022-0.15,0.038-0.304,0.05-0.453C230.813,274.055,231.665,272.857,231.665,271.46z"/>
					<path fill="#0B40AA" d="M208.211,288.792c-1.455,0.056-2.59,1.278-2.535,2.733s1.279,2.591,2.733,2.535
						c1.095-0.041,2.008-0.744,2.37-1.709c0.117-0.016,0.234-0.031,0.353-0.053c0.423-0.08,0.845-0.18,1.269-0.236l1.271-0.182
						l1.27-0.211c0.848-0.152,1.692-0.303,2.537-0.49l-0.006-0.197c-0.856-0.125-1.713-0.211-2.568-0.299l-1.28-0.115l-1.281-0.086
						c-0.427-0.022-0.854-0.092-1.282-0.14c-0.119-0.015-0.236-0.021-0.355-0.024C210.27,289.384,209.307,288.751,208.211,288.792z"
						/>
					<path fill="#0B40AA" d="M225.566,313.298c-0.018,1.507,1.19,2.738,2.697,2.755c1.504,0.016,2.737-1.191,2.754-2.697
						c0.012-1.133-0.67-2.109-1.648-2.531c-0.008-0.123-0.02-0.244-0.036-0.367c-0.062-0.439-0.144-0.883-0.181-1.322l-0.125-1.322
						l-0.154-1.319c-0.116-0.884-0.229-1.765-0.381-2.646l-0.205-0.002c-0.171,0.879-0.303,1.758-0.438,2.637l-0.184,1.317
						l-0.15,1.318c-0.045,0.438-0.139,0.879-0.207,1.317c-0.021,0.123-0.035,0.244-0.045,0.365
						C226.279,311.203,225.578,312.166,225.566,313.298z"/>
					<path fill="#0B40AA" d="M210.419,305.703c-1.108,1.307-0.946,3.266,0.36,4.373c1.309,1.107,3.267,0.945,4.375-0.361
						c0.834-0.982,0.949-2.336,0.396-3.416c0.082-0.113,0.162-0.229,0.235-0.35c0.269-0.432,0.517-0.877,0.803-1.289l0.853-1.248
						l0.826-1.271c0.539-0.854,1.082-1.711,1.588-2.596l-0.176-0.148c-0.789,0.646-1.543,1.318-2.301,1.992l-1.117,1.021
						l-1.093,1.047c-0.358,0.352-0.76,0.67-1.142,1.004c-0.104,0.094-0.207,0.188-0.305,0.289
						C212.566,304.382,211.252,304.716,210.419,305.703z"/>
					<path fill="#0B40AA" d="M215.773,275.386c-1.222-1.461-3.396-1.653-4.854-0.434s-1.655,3.396-0.435,4.854
						c0.918,1.098,2.377,1.479,3.664,1.082c0.107,0.109,0.22,0.219,0.336,0.322c0.422,0.373,0.863,0.729,1.26,1.123l1.205,1.17
						l1.234,1.145c0.834,0.752,1.666,1.509,2.537,2.23l0.197-0.166c-0.559-0.984-1.15-1.938-1.745-2.895l-0.905-1.418l-0.938-1.394
						c-0.315-0.461-0.589-0.959-0.882-1.438c-0.082-0.135-0.17-0.264-0.26-0.389C216.811,277.988,216.693,276.486,215.773,275.386z"
						/>
					<path fill="#0B40AA" d="M248.869,295.009c1.579-0.153,2.732-1.559,2.576-3.139c-0.154-1.578-1.562-2.729-3.139-2.576
						c-1.188,0.117-2.135,0.94-2.465,2.015c-0.127,0.022-0.254,0.049-0.38,0.08c-0.455,0.114-0.905,0.25-1.362,0.34l-1.371,0.28
						l-1.367,0.313c-0.909,0.223-1.819,0.439-2.726,0.701l0.021,0.213c0.938,0.08,1.875,0.117,2.812,0.156l1.401,0.041l1.398,0.01
						c0.465-0.002,0.936,0.043,1.402,0.065c0.13,0.009,0.262,0.009,0.391,0.005C246.593,294.501,247.682,295.126,248.869,295.009z"
						/>
					<path fill="#0B40AA" d="M244.422,279.016c1.008-1.345,0.732-3.252-0.611-4.259c-1.346-1.008-3.252-0.731-4.26,0.611
						c-0.758,1.012-0.789,2.342-0.188,3.366c-0.073,0.115-0.146,0.232-0.209,0.354c-0.235,0.438-0.452,0.89-0.709,1.312l-0.76,1.271
						l-0.732,1.293c-0.477,0.871-0.957,1.738-1.4,2.634l0.182,0.137c0.733-0.678,1.433-1.383,2.134-2.086l1.032-1.066l1.008-1.086
						c0.331-0.367,0.703-0.701,1.057-1.051c0.1-0.098,0.19-0.197,0.281-0.303C242.396,280.434,243.664,280.029,244.422,279.016z"/>
					<path fill="#0B40AA" d="M241.463,309.814c1.133,1.199,3.021,1.254,4.221,0.121c1.198-1.131,1.252-3.021,0.121-4.22
						c-0.852-0.901-2.132-1.155-3.224-0.743c-0.099-0.093-0.201-0.181-0.308-0.265c-0.383-0.301-0.782-0.586-1.146-0.903
						l-1.104-0.947l-1.125-0.926c-0.764-0.605-1.521-1.216-2.313-1.795l-0.163,0.151c0.533,0.824,1.099,1.614,1.66,2.412
						l0.856,1.178l0.885,1.154c0.297,0.383,0.56,0.799,0.838,1.196c0.076,0.111,0.158,0.22,0.244,0.322
						C240.434,307.621,240.611,308.914,241.463,309.814z"/>
				</g>
				<g>
					<circle fill="#0B40AA" cx="228.303" cy="293.397" r="14.772"/>
					<g>
						<circle fill="#1F62CC" cx="219.837" cy="295.179" r="3.009"/>
						<circle fill="#1F62CC" cx="231.822" cy="300.094" r="2.27"/>
						<circle fill="#1F62CC" cx="231.917" cy="287.015" r="5.155"/>
					</g>
				</g>
			</g>
			<g>
				<g>
					<path fill="#0B40AA" d="M304.703,257.016c0-1.275-1.034-2.312-2.311-2.312c-1.275,0-2.311,1.035-2.311,2.312
						c0,0.959,0.585,1.782,1.419,2.131c0.007,0.104,0.019,0.207,0.033,0.313c0.056,0.373,0.129,0.746,0.165,1.119l0.115,1.118
						l0.145,1.118c0.105,0.746,0.209,1.492,0.348,2.237h0.172c0.138-0.745,0.239-1.491,0.348-2.237l0.143-1.118l0.117-1.118
						c0.035-0.373,0.107-0.746,0.165-1.119c0.017-0.104,0.026-0.207,0.034-0.313C304.118,258.798,304.703,257.975,304.703,257.016z"
						/>
					<path fill="#0B40AA" d="M288.589,268.923c-1,0.037-1.78,0.879-1.741,1.879c0.037,1,0.877,1.779,1.877,1.742
						c0.752-0.028,1.381-0.512,1.629-1.176c0.08-0.009,0.162-0.021,0.242-0.035c0.291-0.056,0.581-0.123,0.872-0.162l0.873-0.125
						l0.873-0.146c0.581-0.104,1.163-0.207,1.743-0.338l-0.005-0.136c-0.589-0.085-1.177-0.144-1.765-0.204l-0.881-0.08
						l-0.881-0.059c-0.293-0.018-0.588-0.063-0.882-0.096c-0.082-0.012-0.163-0.016-0.245-0.02
						C290.002,269.332,289.341,268.896,288.589,268.923z"/>
					<path fill="#0B40AA" d="M300.514,285.761c-0.012,1.033,0.818,1.882,1.854,1.894c1.033,0.012,1.882-0.818,1.893-1.854
						c0.01-0.778-0.459-1.45-1.132-1.739c-0.005-0.084-0.013-0.168-0.022-0.252c-0.043-0.304-0.101-0.605-0.125-0.91l-0.084-0.906
						l-0.106-0.908c-0.08-0.605-0.157-1.211-0.263-1.816l-0.141-0.002c-0.117,0.604-0.207,1.207-0.301,1.813l-0.125,0.903
						l-0.104,0.906c-0.031,0.303-0.094,0.604-0.144,0.906c-0.014,0.084-0.022,0.168-0.028,0.252
						C301.002,284.32,300.521,284.982,300.514,285.761z"/>
					<path fill="#0B40AA" d="M290.105,280.542c-0.764,0.897-0.65,2.244,0.248,3.004c0.896,0.763,2.244,0.649,3.006-0.248
						c0.572-0.676,0.649-1.604,0.271-2.348c0.058-0.076,0.111-0.156,0.162-0.238c0.185-0.297,0.354-0.604,0.554-0.887l0.584-0.857
						l0.566-0.872c0.37-0.591,0.743-1.177,1.091-1.783l-0.122-0.104c-0.542,0.442-1.061,0.906-1.58,1.369l-0.769,0.703l-0.75,0.719
						c-0.248,0.24-0.521,0.459-0.784,0.688c-0.073,0.063-0.143,0.129-0.209,0.198C291.582,279.634,290.678,279.865,290.105,280.542z
						"/>
					<path fill="#0B40AA" d="M293.785,259.712c-0.84-1.004-2.333-1.137-3.336-0.299c-1.004,0.84-1.137,2.332-0.299,3.336
						c0.632,0.756,1.634,1.019,2.519,0.744c0.074,0.075,0.149,0.149,0.229,0.223c0.291,0.257,0.593,0.502,0.865,0.771l0.827,0.804
						l0.849,0.787c0.574,0.518,1.146,1.034,1.744,1.53l0.137-0.112c-0.383-0.677-0.793-1.332-1.198-1.988l-0.624-0.973l-0.645-0.957
						c-0.218-0.318-0.404-0.658-0.605-0.99c-0.057-0.09-0.116-0.18-0.178-0.267C294.497,261.5,294.416,260.468,293.785,259.712z"/>
					<path fill="#0B40AA" d="M316.524,273.197c1.084-0.107,1.877-1.072,1.771-2.156c-0.104-1.084-1.072-1.877-2.156-1.771
						c-0.814,0.08-1.466,0.646-1.691,1.385c-0.087,0.017-0.175,0.033-0.263,0.056c-0.313,0.078-0.624,0.172-0.938,0.231
						l-0.941,0.191l-0.938,0.217c-0.625,0.152-1.25,0.303-1.873,0.48l0.014,0.146c0.646,0.055,1.288,0.08,1.933,0.106l0.963,0.026
						l0.961,0.007c0.318,0,0.643,0.03,0.965,0.047c0.089,0.004,0.178,0.006,0.267,0.002
						C314.96,272.848,315.708,273.275,316.524,273.197z"/>
					<path fill="#0B40AA" d="M313.468,262.207c0.692-0.924,0.503-2.232-0.421-2.926c-0.924-0.691-2.234-0.504-2.926,0.422
						c-0.521,0.693-0.542,1.607-0.128,2.313c-0.051,0.078-0.102,0.158-0.146,0.242c-0.162,0.303-0.311,0.611-0.485,0.9l-0.522,0.873
						l-0.503,0.889c-0.328,0.6-0.658,1.195-0.963,1.811l0.125,0.095c0.504-0.468,0.983-0.951,1.465-1.435l0.71-0.731l0.691-0.748
						c0.228-0.25,0.481-0.479,0.726-0.722c0.067-0.065,0.131-0.137,0.193-0.207C312.077,263.18,312.948,262.902,313.468,262.207z"/>
					<path fill="#0B40AA" d="M311.436,283.369c0.778,0.822,2.076,0.859,2.899,0.082c0.824-0.777,0.861-2.074,0.083-2.898
						c-0.585-0.619-1.464-0.795-2.215-0.512c-0.068-0.063-0.138-0.123-0.211-0.182c-0.265-0.205-0.538-0.4-0.788-0.621l-0.757-0.65
						l-0.774-0.635c-0.521-0.418-1.044-0.836-1.587-1.234l-0.112,0.105c0.366,0.563,0.756,1.109,1.143,1.654l0.589,0.811
						l0.604,0.795c0.205,0.264,0.386,0.547,0.576,0.822c0.055,0.076,0.109,0.148,0.168,0.221
						C310.727,281.859,310.851,282.748,311.436,283.369z"/>
				</g>
				<g>
					<circle fill="#0B40AA" cx="302.393" cy="272.086" r="10.15"/>
					<g>
						<circle fill="#1F62CC" cx="296.576" cy="273.312" r="2.066"/>
						<circle fill="#1F62CC" cx="304.811" cy="276.689" r="1.559"/>
						<circle fill="#1F62CC" cx="304.876" cy="267.704" r="3.542"/>
					</g>
				</g>
			</g>
			<g>
				<g>
					<path fill="#0B40AA" d="M279.914,156.573c1.354-3.526-0.408-7.482-3.936-8.836c-3.526-1.354-7.482,0.408-8.836,3.935
						c-1.02,2.653-0.271,5.549,1.662,7.397c-0.091,0.294-0.172,0.592-0.238,0.895c-0.24,1.091-0.435,2.199-0.731,3.268l-0.864,3.217
						l-0.791,3.245c-0.498,2.174-1.004,4.347-1.416,6.554l0.479,0.186c1.169-1.918,2.247-3.869,3.332-5.818l1.582-2.941l1.51-2.969
						c0.493-0.994,1.092-1.947,1.644-2.919c0.151-0.27,0.291-0.545,0.422-0.823C276.404,160.879,278.896,159.226,279.914,156.573z"
						/>
					<path fill="#0B40AA" d="M222.732,172.396c-2.803-0.958-5.853,0.539-6.809,3.344c-0.957,2.803,0.54,5.852,3.346,6.809
						c2.107,0.721,4.354,0.051,5.746-1.521c0.232,0.063,0.469,0.117,0.709,0.16c0.859,0.155,1.734,0.274,2.582,0.479l2.545,0.582
						l2.565,0.523c1.719,0.326,3.437,0.658,5.179,0.918l0.129-0.381c-1.537-0.859-3.099-1.646-4.656-2.439l-2.354-1.152
						l-2.369-1.096c-0.795-0.357-1.56-0.8-2.337-1.201c-0.216-0.111-0.437-0.213-0.657-0.308
						C226.21,175.02,224.842,173.117,222.732,172.396z"/>
					<path fill="#0B40AA" d="M237.832,231.589c-1.127,2.849,0.268,6.07,3.115,7.199c2.848,1.127,6.07-0.269,7.197-3.117
						c0.849-2.144,0.269-4.496-1.283-6.012c0.074-0.236,0.143-0.479,0.199-0.724c0.205-0.883,0.371-1.778,0.621-2.645l0.729-2.602
						l0.67-2.625c0.422-1.758,0.85-3.517,1.204-5.301l-0.388-0.152c-0.965,1.545-1.854,3.117-2.75,4.688l-1.31,2.373l-1.25,2.395
						c-0.407,0.802-0.901,1.568-1.354,2.353c-0.127,0.22-0.241,0.44-0.352,0.666C240.714,228.128,238.68,229.449,237.832,231.589z"
						/>
					<path fill="#0B40AA" d="M214.602,206.119c-3.059,1.676-4.18,5.514-2.502,8.572c1.676,3.059,5.515,4.18,8.571,2.502
						c2.302-1.262,3.503-3.744,3.245-6.199c0.238-0.154,0.475-0.316,0.702-0.49c0.819-0.623,1.618-1.289,2.466-1.863l2.527-1.75
						l2.496-1.813c1.646-1.234,3.301-2.461,4.908-3.771l-0.229-0.416c-1.969,0.65-3.893,1.385-5.819,2.109l-2.868,1.127
						l-2.836,1.188c-0.939,0.405-1.932,0.721-2.897,1.076c-0.269,0.1-0.531,0.209-0.79,0.327
						C219.643,205.18,216.9,204.857,214.602,206.119z"/>
					<path fill="#0B40AA" d="M246.871,152.446c-1.254-3.664-5.241-5.618-8.905-4.364s-5.618,5.241-4.364,8.905
						c0.944,2.756,3.436,4.544,6.17,4.727c0.125,0.29,0.256,0.577,0.402,0.86c0.527,1.016,1.104,2.015,1.572,3.051l1.436,3.099
						l1.51,3.073c1.039,2.039,2.068,4.08,3.195,6.087l0.498-0.172c-0.34-2.274-0.775-4.521-1.205-6.768l-0.688-3.354l-0.766-3.329
						c-0.266-1.104-0.42-2.249-0.627-3.375c-0.057-0.313-0.129-0.621-0.209-0.926C246.941,158.14,247.814,155.202,246.871,152.446z"
						/>
					<path fill="#0B40AA" d="M295.424,213.841c3.11,0.857,6.326-0.971,7.182-4.082c0.856-3.11-0.972-6.325-4.082-7.182
						c-2.34-0.646-4.738,0.229-6.148,2.028c-0.258-0.053-0.52-0.096-0.781-0.127c-0.945-0.114-1.904-0.186-2.838-0.352l-2.807-0.465
						l-2.824-0.401c-1.891-0.241-3.777-0.489-5.688-0.657l-0.117,0.424c1.728,0.834,3.477,1.587,5.225,2.347l2.632,1.101l2.65,1.034
						c0.886,0.337,1.745,0.767,2.618,1.152c0.242,0.106,0.488,0.203,0.736,0.291C291.471,211.218,293.084,213.199,295.424,213.841z"
						/>
					<path fill="#0B40AA" d="M298.636,180.223c2.894-1.82,3.763-5.644,1.942-8.536c-1.821-2.894-5.643-3.763-8.536-1.942
						c-2.177,1.37-3.207,3.872-2.81,6.26c-0.226,0.164-0.443,0.336-0.656,0.521c-0.766,0.658-1.508,1.356-2.303,1.971l-2.371,1.861
						l-2.334,1.922c-1.541,1.307-3.084,2.604-4.58,3.979l0.246,0.395c1.888-0.754,3.728-1.584,5.569-2.407l2.742-1.271l2.704-1.332
						c0.896-0.453,1.848-0.818,2.771-1.226c0.256-0.113,0.506-0.235,0.752-0.367C293.757,181.438,296.459,181.591,298.636,180.223z"
						/>
					<path fill="#0B40AA" d="M270.566,236.563c1.274,3.102,4.824,4.582,7.927,3.307s4.583-4.824,3.307-7.926
						c-0.96-2.334-3.206-3.75-5.581-3.764c-0.121-0.246-0.251-0.486-0.393-0.724c-0.51-0.853-1.061-1.687-1.52-2.558l-1.402-2.604
						l-1.467-2.578c-1.004-1.709-2-3.418-3.08-5.096l-0.42,0.174c0.412,1.951,0.905,3.867,1.395,5.787l0.771,2.863l0.834,2.838
						c0.287,0.941,0.479,1.922,0.717,2.885c0.066,0.27,0.145,0.531,0.229,0.791C270.208,231.643,269.607,234.229,270.566,236.563z"
						/>
				</g>
				<g>
					<circle fill="#0B40AA" cx="257.539" cy="195.785" r="30.053"/>
					<g>
						<circle fill="#1F62CC" cx="240.159" cy="193" r="6.122"/>
						<circle fill="#1F62CC" cx="259.339" cy="211.07" r="4.618"/>
						<circle fill="#1F62CC" cx="269.055" cy="186.299" r="10.488"/>
					</g>
				</g>
			</g>
		</g>
	</g>
</g>
</svg>
