<?xml version="1.0" encoding="utf-8"?>
<!-- Generator: Adobe Illustrator 16.0.0, SVG Export Plug-In . SVG Version: 6.00 Build 0)  -->
<!DOCTYPE svg PUBLIC "-//W3C//DTD SVG 1.1//EN" "http://www.w3.org/Graphics/SVG/1.1/DTD/svg11.dtd">
<svg version="1.1" id="Layer_1" xmlns="http://www.w3.org/2000/svg" xmlns:xlink="http://www.w3.org/1999/xlink" x="0px" y="0px"
	 width="612px" height="646px" viewBox="0 72.5 612 646" enable-background="new 0 72.5 612 646" xml:space="preserve">
<title>Business_SVG</title>
<g>
	<g>
		<circle fill="#FFFFFF" cx="288.955" cy="343.376" r="186.81"/>
		<g>
			<defs>
				<path id="SVGID_1_" d="M475.765,343.376c0,103.172-83.638,186.81-186.81,186.81c-21.187,0-41.549-3.526-60.533-10.025
					c0,0-24.276,17.185-52.642,16.35c-17.511-0.514-58.868-21.277-72.017-73.575c-3.678-14.625-1.618-103.794-1.618-119.559
					c0-58.018,26.447-109.857,67.945-144.122c32.296-26.668,74.22-96.693,119.375-96.693c45.139,0,210.525,44.127,246.38,145.253
					C553.833,298.551,475.765,285.342,475.765,343.376z"/>
			</defs>
			<clipPath id="SVGID_2_">
				<use xlink:href="#SVGID_1_"  overflow="visible"/>
			</clipPath>
			<g clip-path="url(#SVGID_2_)">
				<g>
					<path fill="#F1ECDF" d="M416.188,368.521c2.98,4.146,4.343,9.197,5.976,14.035c2.887,8.544,6.776,16.746,11.566,24.388
						c4.682,7.466,10.489,15.536,8.843,24.194c-2.064,1.299-3.803-2.086-5.892-3.348c-2.412-1.456-5.752,0.439-6.72,3.084
						c-0.967,2.646-0.217,5.598,0.8,8.225c0.604,1.563,1.248,3.502,0.141,4.758c-1.219,1.383-3.439,0.743-5.191,0.174
						c-3.083-1.003-6.35-1.439-9.588-1.281c-1.606,0.079-3.456,0.469-4.185,1.902c-0.498,0.979-0.309,2.147-0.449,3.235
						c-0.521,3.979-6.545,5.766-9.151,2.714c-1.503-1.76-1.67-4.264-1.768-6.576c-1.008-24.138-2.017-48.277-3.024-72.415
						C397.012,358.823,410.367,360.423,416.188,368.521z"/>
					<path fill="#E2DED2" d="M403.149,371.556c-1.321,5.624-0.174,11.499,1.002,17.154c3.351,16.099,6.938,32.148,10.763,48.141
						c0.205,0.852,0.451,1.771,1.142,2.308c1.411,1.102,3.507-0.1,5.237,0.356c1.878,0.494,3.434,2.676,4.722,0.362
						c0.807-1.449-2.04-6.863-2.533-8.32c-2.26-6.667-4.52-13.333-6.777-20C412.187,398.224,407.668,384.89,403.149,371.556z"/>
				</g>
				<g>
					<g>
						<g>
							<g>
								<path fill="#F29792" d="M211.683,413.688c3.729,14.772,10.968,30.911,24.73,29.392
									c24.939-2.754,53.047-8.082,108.287-35.541c0.273-0.136,26.878-18.06,26.88-18.062c0,0,13.501-17.277,11.74-25.697
									c1.211-0.525,3.534-0.394,4.427,1.026c3.512,5.578,1.172,12.631,1.172,12.631s27.386-17.963,27.987-15.083
									c0.602,2.881-12.688,13.694-12.688,13.694s21.809-14.333,21.451-11.297c-0.138,1.171,0,0-16.908,15.178
									c0,0,18.556-8.702,16.617-5.427c-2.434,4.112-14.987,12.813-14.987,12.813s14.421-6.564,12.706-3.98
									c-1.716,2.584-36.741,25.018-36.741,25.018s-42.694,36.403-49.431,41.178c-0.12-0.003-0.219-0.027-0.34-0.032
									c-42.026,29.596-96.667,58.445-121.573,51.574c-21.145-5.835-41.925-46.347-52.172-69.275L211.683,413.688z"/>
								<path fill="#FDD033" d="M199.571,284.523c34.237,0.333,69.52,31.017,69.52,31.017s-39.891,95.213-33.47,114.421
									c4.742,14.191,45.416-1.786,45.416-1.786l13.219,55.2c-32.101,18.991-62.718,42.521-92.969,52.708
									c-20.79,7.002-42.134-0.031-56.722-14.757c-19.794-19.985-25.136-61.999-23.615-86.662
									C131.728,353.838,167.907,284.216,199.571,284.523z"/>
							</g>
							<path fill="#FDD033" d="M358.649,347.355c-12.726-39.696-18.418-62.551-18.418-62.551s-16.492-1.611-39.587-2.383
								c-6.958,5.156-17.547,11.054-30.111,11.054c-22.2,0-32.603-9.995-32.646-10.035c-17.077,1.324-33.79,3.708-47.851,7.767
								c-27.917,8.058-27.192,26.363-35.558,48.161c-13.107,34.154,13.107,223.975,13.107,223.975l101.898,60.911l67.32-57.386
								C336.804,566.869,368.075,376.761,358.649,347.355z"/>
						</g>
						<g>
							<g>
								<g>
									<path fill="#01143F" d="M451.659,304.998c1.449-23.257-33.504-28.21-37.703-48.941c-1.703-8.408,2.422-16.872,7.268-24.027
										c4.845-7.155,10.644-13.989,12.943-22.262c4.646-16.71-6.559-34.092-20.753-44.52
										c-13.892-10.204-31.061-16.112-48.451-16.675c-16.16-0.522-32.188,3.434-48.354,3.164
										c-8.279-0.137-14.686-3.582-25.479-11.584c-0.934,0.285-2.104,0.775-3.445,1.418
										c-21.121,10.142-35.032,30.663-36.864,53.52c-0.485,6.052-0.608,12.121-0.23,18.203
										c1.085,17.373,7.344,35.858,22.292,45.406c15.235,9.733,32.332,9.521,47.208,19.769
										c12.403,8.544,21.809,22.082,31.36,33.585c21.196,25.533,64.032,31.502,90.742,10.15
										C447.559,317.917,451.239,311.74,451.659,304.998z"/>
									<g>
										<g>
											<g>
												<g>
													<g>
														<g>
															<g>
																<g>
																	<path fill="#F29792" d="M280.939,141.273c3.385,1.212,6.647,2.955,9.709,5.288
																		c27.373,20.861,16.348,67.726-3.83,90.382c-11.169,12.542-28.678,19.59-45.05,15.395
																		c-23.944-6.135-33.829-30.851-31.521-53.959c1.72-17.219,9.651-34.105,22.806-45.434
																		C246.191,141.632,264.93,135.535,280.939,141.273z"/>
																</g>
															</g>
															<g>
																<g>
																	<path fill="#F29792" d="M293.649,222.469c4.805,3.779,12.583,4.728,18.216,2.152
																		c5.633-2.576,9.868-8.417,10.721-14.783c0.764-5.712-1.365-11.909-5.941-14.897
																		c-4.576-2.989-12.127-2.024-15.259,2.773L293.649,222.469z"/>
																</g>
															</g>
															<g>
																<g>
																	<path fill="#F29792" d="M301.89,278.982l-3.415-71.96l-52.463,6.251l-1.383,70.984
																		C263.651,282.022,282.762,280.36,301.89,278.982z"/>
																</g>
															</g>
															<g>
																<g>
																	<path fill="#1F1A42" d="M245.021,264.103v-11.079c0,0,23.345,4.519,41.798-16.08
																		C286.819,236.943,277.275,258.979,245.021,264.103z"/>
																</g>
															</g>
														</g>
														<path fill="none" stroke="#E37D7A" stroke-width="1.7621" stroke-linecap="round" stroke-miterlimit="10" d="
															M304.885,212.771c3.426,0,6.201-2.083,6.201-4.655c0-1.928-1.562-3.582-3.788-4.288"/>
														<g>
															<path fill="#F58C89" d="M253.511,210.414c0.349,2.734,4.095,4.53,8.368,4.013s7.453-3.151,7.103-5.885
																c-0.348-2.734-4.095-4.531-8.368-4.013C256.341,205.046,253.161,207.681,253.511,210.414z"/>
															<path fill="#EC4E66" stroke="#EC4E66" stroke-width="1.7216" stroke-miterlimit="10" d="M230.794,211.569
																l-3.001-2.941c3.177-1.244,7.569-5.561,7.569-5.561l-1.574,7.591C233.502,212.039,231.802,212.557,230.794,211.569z"
																/>
															<path fill="#F58C89" d="M220.533,206.169c0,2.754-3.491,4.988-7.796,4.988c-0.889,0-1.729-0.116-2.526-0.292
																c-0.287-3.101-0.333-6.233-0.17-9.358c0.843-0.201,1.744-0.325,2.696-0.325
																C217.042,201.182,220.533,203.415,220.533,206.169z"/>
															<g>
																<path fill="#222A46" d="M249.194,190.232c0,0-0.069,0.479-0.127,1.335c-0.062,0.854-0.1,2.08-0.021,3.533
																	c0.092,1.438,0.303,3.168,1.074,4.713c0.377,0.771,0.949,1.44,1.685,1.848c0.755,0.389,1.623,0.501,2.571,0.387
																	c0.829-0.101,1.706-0.467,2.414-0.993c0.723-0.527,1.317-1.226,1.818-1.951c0.995-1.468,1.647-3.054,2.102-4.434
																	c0.452-1.386,0.75-2.574,0.92-3.412c0.175-0.837,0.239-1.314,0.239-1.314c0.026-0.195,0.205-0.332,0.4-0.306
																	c0.188,0.025,0.322,0.196,0.308,0.383c0,0-0.041,0.509-0.174,1.376c-0.138,0.867-0.346,2.107-0.781,3.558
																	c-0.442,1.442-1.038,3.136-2.121,4.755c-0.545,0.801-1.204,1.595-2.054,2.227c-0.856,0.632-1.848,1.088-2.991,1.228
																	c-1.012,0.111-2.197-0.022-3.169-0.559c-0.974-0.553-1.671-1.432-2.095-2.33c-0.445-0.898-0.669-1.822-0.811-2.69
																	c-0.141-0.87-0.196-1.694-0.213-2.452c-0.035-1.517,0.112-2.766,0.218-3.636c0.112-0.868,0.214-1.366,0.214-1.366
																	c0.031-0.164,0.189-0.271,0.353-0.24C249.109,189.923,249.214,190.076,249.194,190.232z"/>
															</g>
															<g>
																<path fill="#222A46" d="M215.409,188.481c0,0-0.047,0.401-0.084,1.118c-0.042,0.714-0.054,1.739,0.005,2.955
																	c0.065,1.208,0.236,2.639,0.768,3.98c0.281,0.65,0.664,1.288,1.225,1.659c0.55,0.399,1.233,0.501,1.997,0.413
																	c0.65-0.08,1.347-0.413,1.89-0.885c0.551-0.483,1.007-1.088,1.383-1.72c0.747-1.273,1.236-2.617,1.577-3.782
																	c0.337-1.17,0.572-2.167,0.702-2.869c0.135-0.702,0.186-1.101,0.186-1.101c0.025-0.195,0.203-0.333,0.398-0.309
																	c0.187,0.024,0.322,0.191,0.311,0.377c0,0-0.027,0.426-0.119,1.156c-0.097,0.728-0.24,1.771-0.556,2.999
																	c-0.324,1.221-0.75,2.659-1.568,4.076c-0.412,0.703-0.921,1.405-1.593,2.004c-0.685,0.591-1.524,1.048-2.523,1.171
																	c-0.866,0.096-1.939-0.055-2.708-0.65c-0.797-0.562-1.247-1.386-1.564-2.15c-0.589-1.568-0.655-3.078-0.684-4.341
																	c-0.014-1.269,0.107-2.314,0.192-3.042c0.09-0.727,0.17-1.145,0.17-1.145c0.029-0.164,0.186-0.273,0.35-0.244
																	C215.319,188.177,215.425,188.325,215.409,188.481z"/>
															</g>
														</g>
													</g>
												</g>
											</g>
										</g>
										<g>
											<g>
												<path fill="#F1ECDF" d="M280.599,210.954c0,0-7.071-0.17-14.215,1.231c-9.776,1.919-21.545,5.516-32.529,4.918
													c-11.423-0.623-17.831-11.21-25.371-10.161c0,0-0.136,6.892,0,8.389c2.694,29.624,26.122,53.219,65.165,33.151
													c0.742-0.381,1.541-0.677,2.318-1.042C275.967,247.439,286.906,224.928,280.599,210.954z"/>
												<g>
													<polygon fill="#F1ECDF" points="301.932,196.194 279.042,212.186 278.502,217.953 302.47,198.553 													"/>
													<polygon fill="#F1ECDF" points="299.777,225.818 276.079,241.809 275.992,247.614 299.777,229.75 													"/>
												</g>
											</g>
											<path fill="#01143F" d="M214.086,177.846c0,0,30.815,3,55.907-24.427c0,0,11.686,55.558,32.476,45.135l10.226-10.851
												c0,0,5.283-55.711-47.983-51.854C264.712,135.848,230.374,137.134,214.086,177.846z"/>
										</g>
									</g>
								</g>
								<g>
									<path fill="#EC4E66" d="M520.199,271.876c0,0-20.257,22.276-73.538,20.339c-53.282-1.938-112.114-24.613-128.367-9.066
										c0,0-42.755,9.154-31.127-5.152c11.627-14.306,49.361-50.644,84.353-45.33c34.991,5.315,75.955,34.48,122.048,10.637
										C493.567,243.304,520.701,254.521,520.199,271.876z"/>
									<path fill="#EC4E66" d="M313.336,252.072c0,0-67.781,10.169-77.077,15.439c-9.296,5.27-11.563,34.532-4.085,39.877
										c25.699,18.371,90.163-16.513,92.633-35.123C327.277,253.655,323.932,250.23,313.336,252.072z"/>
								</g>
							</g>
							<g>
								<path fill="#F29792" d="M305.293,414.665c-14.57,5.5-32.3,8.988-38.917-2.857c-11.992-21.465-23.633-46.934-32.221-106.732
									c-0.043-0.295-0.223-31.792-0.223-31.794c0,0,6.79-20.676,14.884-24.105c-0.252-1.266-1.694-3.042-3.402-2.939
									c-6.708,0.4-11.301,6.313-11.301,6.313s-0.596-32.141-3.366-30.969c-2.769,1.173-4.242,17.974-4.242,17.974
									s-0.452-25.612-2.802-23.585c-0.907,0.782,0,0-3.069,22.19c0,0-3.326-19.788-4.968-16.364
									c-2.063,4.299-2.184,19.301-2.184,19.301s-2.75-15.265-3.939-12.415c-1.189,2.851,0.029,43.649,0.029,43.649
									s-6.137,54.925-6.288,63.035c0.072,0.096,0.148,0.16,0.222,0.253c-0.792,50.489,6.281,110.607,26.353,126.524
									c17.042,13.513,63.048,6.841,88.219,1.856L305.293,414.665z"/>
								<path fill="#FDD033" d="M377.695,303.156c-16.379-20.634-56.354-19.694-56.354-19.694s-27.899,101.876-47.744,107.776
									c-14.661,4.358-27.351-95.605-27.351-95.605l-50.832,16.107c-6.281,99.599-0.193,137.792,8.59,167.755
									c6.038,20.595,24.199,33.579,44.958,36.763c28.17,4.318,66.585-15.526,86.463-30.889
									C397.249,430.404,397.058,327.549,377.695,303.156z"/>
								<linearGradient id="SVGID_3_" gradientUnits="userSpaceOnUse" x1="254.665" y1="368.2505" x2="273.1054" y2="366.791">
									<stop  offset="0" style="stop-color:#FA6F65"/>
									<stop  offset="0.4167" style="stop-color:#F36860"/>
									<stop  offset="1" style="stop-color:#E05754"/>
								</linearGradient>
								<path fill="none" stroke="url(#SVGID_3_)" stroke-width="2.8767" stroke-linecap="round" stroke-miterlimit="10" d="
									M273.598,391.238c-9.46-14.142-16.269-38.223-19.424-47.436"/>
								<linearGradient id="SVGID_4_" gradientUnits="userSpaceOnUse" x1="189.1807" y1="431.1455" x2="233.67" y2="427.6244">
									<stop  offset="0" style="stop-color:#FA6F65"/>
									<stop  offset="0.4167" style="stop-color:#F36860"/>
									<stop  offset="1" style="stop-color:#E05754"/>
								</linearGradient>
								<path fill="none" stroke="url(#SVGID_4_)" stroke-width="2.8767" stroke-linecap="round" stroke-miterlimit="10" d="
									M192.723,341.351c0,0-22.644,161.363,46.554,175.343"/>
							</g>
						</g>
					</g>
				</g>
				<path fill="#EC4E66" d="M520.199,271.876c0,0-20.257,22.276-73.538,20.339c-53.282-1.938-112.114-24.613-128.367-9.066
					c0,0-42.755,9.154-31.127-5.152c11.627-14.306,49.361-50.644,84.353-45.33c34.991,5.315,75.955,34.48,122.048,10.637
					C493.567,243.304,520.701,254.521,520.199,271.876z"/>
			</g>
		</g>
	</g>
	<g>
		<g>
			
				<text transform="matrix(0.9879 0 0 1 26.5313 262.8394)" fill="#2C2A2A" font-family="'Montserrat-ExtraBold'" font-size="13.5813" letter-spacing="1.012">COUGH</text>
		</g>
		<polyline fill="none" stroke="#2A7FE7" stroke-width="1.0502" stroke-linecap="round" stroke-miterlimit="10" points="
			176.616,244.871 140.158,273.577 29.018,273.577 		"/>
	</g>
	<g>
		<g>
			
				<text transform="matrix(0.9879 0 0 1 26.0171 198.7368)" fill="#2C2A2A" font-family="'Montserrat-ExtraBold'" font-size="13.5813" letter-spacing="1.012">RUNY NOSE</text>
		</g>
		<polyline fill="none" stroke="#2A7FE7" stroke-width="1.0502" stroke-linecap="round" stroke-miterlimit="10" points="
			199.465,199.801 160.111,177.189 27.447,177.189 		"/>
	</g>
	<g>
		<g>
			
				<text transform="matrix(0.9879 0 0 1 96.0396 149.1372)" fill="#2C2A2A" font-family="'Montserrat-ExtraBold'" font-size="13.5813" letter-spacing="1.012">FEVER</text>
		</g>
		<polyline fill="none" stroke="#2A7FE7" stroke-width="1.0502" stroke-linecap="round" stroke-miterlimit="10" points="
			261.665,153.756 216.817,129.084 97.795,129.084 		"/>
	</g>
	<g>
		<g>
			
				<text transform="matrix(1 0 0 1 402.5967 128.6313)" fill="#2C2A2A" font-family="'Montserrat-ExtraBold'" font-size="13.417" letter-spacing="1">HEADACHE</text>
		</g>
		<polyline fill="none" stroke="#2A7FE7" stroke-width="1.0502" stroke-linecap="round" stroke-miterlimit="10" points="
			322.656,144.887 372.314,108.628 491.337,108.628 		"/>
	</g>
	<g>
		<g>
			
				<text transform="matrix(1 0 0 1 516.7803 239.9155)" fill="#2C2A2A" font-family="'Montserrat-ExtraBold'" font-size="13.417" letter-spacing="1">FATIGUE</text>
		</g>
		<polyline fill="none" stroke="#2A7FE7" stroke-width="1.0502" stroke-linecap="round" stroke-miterlimit="10" points="
			443.822,236.005 466.358,219.91 585.381,219.91 		"/>
	</g>
	<g>
		<g>
			
				<text transform="matrix(0.9879 0 0 1 470.418 181.7144)" fill="#2C2A2A" font-family="'Montserrat-ExtraBold'" font-size="13.5813" letter-spacing="1.012">DYSPNOEA</text>
		</g>
		<polyline fill="none" stroke="#2A7FE7" stroke-width="1.0502" stroke-linecap="round" stroke-miterlimit="10" points="
			416.218,178.893 439.894,161.711 558.916,161.711 		"/>
	</g>
	<g>
		<polyline fill="none" stroke="#2A7FE7" stroke-width="1.0502" stroke-linecap="round" stroke-miterlimit="10" points="
			292.177,293.123 460.642,367.876 587.547,367.876 		"/>
		<g>
			
				<text transform="matrix(0.9879 0 0 1 465.7295 359.2075)" fill="#2C2A2A" font-family="'Montserrat-ExtraBold'" font-size="13.5813" letter-spacing="1.012"> SORE THROAT</text>
		</g>
	</g>
</g>
<g>
	<g>
		<g>
			<g>
				<path fill="none" stroke="#FFFFFF" stroke-width="0.9793" stroke-miterlimit="10" d="M549.037,416.385
					c-0.031,0.325-0.064,0.649-0.098,0.974"/>
				<path fill="none" stroke="#FFFFFF" stroke-width="0.9793" stroke-miterlimit="10" stroke-dasharray="1.9553,1.9553" d="
					M548.73,419.302c-13.345,118.122-136.506,210.653-286.465,210.653c-53.306,0-103.226-11.691-146.03-32.067"/>
				<path fill="none" stroke="#FFFFFF" stroke-width="0.9793" stroke-miterlimit="10" d="M115.354,597.467
					c-0.293-0.141-0.586-0.282-0.879-0.424"/>
			</g>
		</g>
		<g>
			<g>
				<rect x="262.442" y="663.901" fill="none" width="81.212" height="15.381"/>
				<text transform="matrix(0.9879 0 0 1 265.3521 668.9766)"><tspan x="0" y="0" fill="#2C2A2A" font-family="'Montserrat-ExtraBold'" font-size="6.8395">Cover your mouth </tspan><tspan x="3.235" y="8.207" fill="#2C2A2A" font-family="'Montserrat-ExtraBold'" font-size="6.8395">when you cough</tspan></text>
			</g>
			<g>
				<circle fill="#FFFFFF" cx="303.162" cy="611.197" r="45.051"/>
				<g>
					<defs>
						<circle id="SVGID_5_" cx="303.162" cy="611.197" r="45.051"/>
					</defs>
					<clipPath id="SVGID_6_">
						<use xlink:href="#SVGID_5_"  overflow="visible"/>
					</clipPath>
					<path clip-path="url(#SVGID_6_)" fill="#F29792" d="M282.082,689.229c11.086-0.825,22.188-1.395,33.298-1.771
						c-1.095-6.155-2.154-12.727-3.169-19.794c-0.043-0.294-0.222-31.663-0.222-31.665c0,0,6.763-20.593,14.825-24.009
						c-0.251-1.26-1.688-3.029-3.39-2.927c-6.681,0.398-11.254,6.287-11.254,6.287s-0.595-32.012-3.354-30.845
						c-2.757,1.169-4.226,17.901-4.226,17.901s-0.449-25.509-2.791-23.489c-0.902,0.777,0,0-3.057,22.1
						c0,0-3.312-19.708-4.947-16.298c-2.055,4.282-2.175,19.224-2.175,19.224s-2.739-15.204-3.923-12.364
						c-1.185,2.839,0.028,43.474,0.028,43.474S283.664,671.422,282.082,689.229z"/>
				</g>
			</g>
		</g>
		<g>
			<g>
				<rect x="158.938" y="660.989" fill="none" width="54.851" height="12.084"/>
				
					<text transform="matrix(0.9879 0 0 1 163.1738 666.0645)" fill="#2C2A2A" font-family="'Montserrat-ExtraBold'" font-size="6.8395">Wash hand</text>
			</g>
			<g>
				<circle fill="#FFFFFF" cx="186.363" cy="615.836" r="34.373"/>
				<g>
					<g>
						<path fill="#2A7FE7" d="M198.965,612.031l-12.603-21.89l-12.601,21.89c-1.565,2.377-2.481,5.219-2.481,8.278
							c0,8.33,6.752,15.084,15.083,15.084c8.332,0,15.084-6.754,15.084-15.084C201.446,617.25,200.53,614.408,198.965,612.031z"/>
					</g>
					<path opacity="0.67" fill="#1F76CA" d="M198.965,612.031l-3.411-5.925c0.407,1.363,0.633,2.806,0.633,4.303
						c0,8.33-6.752,15.082-15.084,15.082c-3.712,0-7.107-1.346-9.736-3.57c0.806,7.571,7.21,13.473,14.995,13.473
						c8.332,0,15.084-6.754,15.084-15.084C201.446,617.25,200.53,614.408,198.965,612.031z"/>
				</g>
			</g>
		</g>
		<g>
			<g>
				<rect x="508.629" y="524.458" fill="none" width="55.897" height="19.65"/>
				<text transform="matrix(0.9879 0 0 1 513.6816 529.6621)"><tspan x="0" y="0" fill="#2C2A2A" font-family="'Montserrat-ExtraBold'" font-size="7.0134">Cook meat</tspan><tspan x="-4.807" y="8.416" fill="#2C2A2A" font-family="'Montserrat-ExtraBold'" font-size="7.0134">and egg well</tspan></text>
			</g>
			<g>
				<circle fill="#FFFFFF" cx="536.761" cy="456.743" r="57.21"/>
				<g>
					<g>
						<path fill="#DA9180" d="M574.653,465.106c0.683-3.953,0.126-8.126-1.453-11.894l0.026-0.007l-2.692-6.567l0,0
							c1.599,3.785,2.14,7.992,1.454,11.968c-0.727,4.206-3.157,10.209-10.614,14.922c-1.731,1.097-3.546,2.035-5.386,2.791
							c-0.004,0.001,0,0-0.004,0.001c-3.109,1.272-6.367,2.061-9.675,2.332c-5.62,0.464-11.178-2.218-14.502-7.005
							c-0.234-0.339-0.501-0.736-0.792-1.176c-2.082-3.142-5.568-8.396-10.604-9.461c-7.787-1.647-14.136-6.498-16.497-12.213
							l-0.004,0.001l2.697,6.578l0.008-0.005c2.386,5.683,8.705,10.499,16.462,12.139c5.036,1.066,8.523,6.32,10.604,9.46
							c0.291,0.438,0.556,0.837,0.792,1.177c3.322,4.783,8.879,7.47,14.5,7.005c3.31-0.271,6.565-1.057,9.678-2.334l0,0
							c1.844-0.756,3.657-1.691,5.389-2.787C571.496,475.316,573.928,469.313,574.653,465.106z"/>
						<path fill="#FDDCD3" d="M520.411,461.011c5.036,1.064,8.522,6.319,10.604,9.461c0.291,0.439,0.558,0.837,0.792,1.176
							c3.324,4.787,8.882,7.469,14.502,7.005c3.308-0.271,6.565-1.06,9.675-2.332c0.004-0.001,0,0,0.004-0.001
							c1.84-0.756,3.654-1.694,5.386-2.791c7.457-4.713,9.888-10.716,10.614-14.922c0.686-3.976,0.145-8.183-1.454-11.968
							c-0.54-1.276-1.203-2.502-1.977-3.655c-0.043-0.063-0.082-0.128-0.123-0.188c-0.083-0.121-0.165-0.238-0.253-0.359
							c-0.179-0.251-0.363-0.504-0.553-0.748c-5.73-7.311-25.995-18.414-49.025-12.284c-1.705,0.455-3.298,0.985-4.737,1.575
							c-10.21,4.185-11.209,10.613-10.896,14.07c0.027,0.297,0.069,0.594,0.119,0.888c0.005,0.044,0.017,0.091,0.021,0.139
							c0.167,0.922,0.438,1.832,0.803,2.723C506.275,454.513,512.624,459.363,520.411,461.011z M519.345,432.188
							c21.979-5.854,40.96,4.828,46.018,11.277c5.674,7.236,6.654,19.928-5.525,27.628c-4.992,3.157-9.813,4.363-13.765,4.688
							c-4.708,0.389-9.205-1.896-11.898-5.777c-2.052-2.954-6.209-10.341-13.167-11.813
							C506.065,455.03,496.733,438.211,519.345,432.188z"/>
						<path fill="#E05754" d="M521.007,458.192c6.958,1.472,11.115,8.858,13.167,11.813c2.693,3.881,7.19,6.166,11.898,5.777
							c3.951-0.325,8.772-1.531,13.765-4.688c12.18-7.7,11.199-20.392,5.525-27.628c-5.058-6.449-24.038-17.132-46.018-11.277
							C496.733,438.211,506.065,455.03,521.007,458.192z"/>
						<path fill="#D4BAB1" d="M551.53,449.213c0.007,0.009,0.011,0.016,0.015,0.022C551.541,449.229,551.537,449.222,551.53,449.213
							z"/>
						<path fill="#D4BAB1" d="M550.939,448.396c0.128,0.15,0.241,0.3,0.354,0.456C551.182,448.696,551.067,448.547,550.939,448.396z
							"/>
					</g>
					<path opacity="0.56" fill="#F06B6B" d="M553.391,446.556c-2.663-3.397-12.658-9.023-24.232-5.941
						c-11.906,3.172-6.993,12.03,0.873,13.695c3.666,0.773,5.854,4.664,6.936,6.22c1.42,2.045,3.786,3.248,6.268,3.043
						c2.081-0.171,4.619-0.807,7.246-2.468C556.895,457.049,556.379,450.365,553.391,446.556z"/>
				</g>
				<g>
					
						<ellipse transform="matrix(-0.9959 -0.0907 0.0907 -0.9959 984.9529 960.9518)" fill="#F4F6E2" cx="514.302" cy="458.105" rx="10.481" ry="15.221"/>
					<path opacity="0.5" fill="#C3D8BB" d="M508.73,465.907c5.764,0.525,11.057-5.835,11.819-14.207
						c0.221-2.425,0.033-4.748-0.478-6.844c3.339,2.739,5.328,8.205,4.774,14.285c-0.762,8.373-6.054,14.735-11.817,14.21
						c-4.097-0.373-7.326-4.125-8.581-9.268C505.705,465.116,507.152,465.763,508.73,465.907z"/>
				</g>
				<g>
					
						<ellipse transform="matrix(0.5414 -0.8407 0.8407 0.5414 -162.2892 658.4592)" fill="#F4F6E2" cx="522.484" cy="478.005" rx="10.481" ry="15.22"/>
					<path opacity="0.5" fill="#C3D8BB" d="M532.062,478.415c-3.135,4.866-11.403,5.124-18.473,0.571
						c-2.045-1.317-3.762-2.896-5.1-4.587c0.104,4.316,3.188,9.249,8.321,12.555c7.069,4.553,15.338,4.297,18.473-0.569
						c2.227-3.457,1.259-8.313-2.022-12.467C533.301,475.546,532.919,477.083,532.062,478.415z"/>
				</g>
			</g>
		</g>
		<g>
			<g>
				<rect x="408.662" y="630.99" fill="none" width="42.575" height="22.721"/>
				
					<text transform="matrix(0.9879 0 0 1 410.5527 636.1943)" fill="#2C2A2A" font-family="'Montserrat-ExtraBold'" font-size="7.0134">Use mask</text>
			</g>
			<g>
				<defs>
					<circle id="SVGID_7_" cx="430.297" cy="565.524" r="52.576"/>
				</defs>
				<clipPath id="SVGID_8_">
					<use xlink:href="#SVGID_7_"  overflow="visible"/>
				</clipPath>
				<circle clip-path="url(#SVGID_8_)" fill="#FFFFFF" cx="430.297" cy="565.524" r="52.576"/>
				<g clip-path="url(#SVGID_8_)">
					<g>
						<path fill="#F29792" d="M419.611,625.248c0.036-0.946,2.146-29.896,2.146-29.896l21.62-0.442l4.284,29.508L419.611,625.248z"
							/>
						<path fill="#E38C8B" d="M444.46,602.367l-1.083-7.458l-21.62,0.442c0,0-0.414,5.674-0.877,12.08
							C426.3,607.257,436.354,606.358,444.46,602.367z"/>
					</g>
					<g>
						<path fill="#222A46" d="M407.195,561.004c-1.785,0.385-3.698-0.207-5.13-1.341c-1.431-1.136-2.414-2.763-3.02-4.486
							c-0.687-1.951-0.919-4.063-0.674-6.117c0.223-1.879,1.186-4.016,3.056-4.289c0.752-0.109,1.512,0.115,2.271,0.109
							c1.684-0.013,3.174-1.157,4.159-2.521s1.59-2.96,2.402-4.434c1.106-2.006,3.03-3.977,5.303-3.691
							c1.399,0.178,2.553,1.18,3.902,1.593c2.787,0.853,5.627-0.916,8.048-2.537c2.424-1.619,5.429-3.229,8.104-2.075
							c1.854,0.799,3.053,2.777,4.979,3.38c1.854,0.581,3.808-0.264,5.703-0.69c1.894-0.427,4.349-0.146,5.083,1.652
							c0.363,0.889,0.185,1.927,0.544,2.82c0.549,1.366,2.168,1.964,3.636,2.092c1.468,0.127,2.991-0.053,4.381,0.438
							c2.323,0.818,3.71,3.651,2.929,5.987c-0.169,0.511-0.43,1.036-0.302,1.557c0.299,1.218,2.042,1.037,3.262,1.318
							c2.277,0.525,3.199,3.556,2.292,5.709c-0.908,2.153-3.019,3.532-5.11,4.573c-5.848,2.911-12.49,4.205-19.002,3.697"/>
						<path fill="#F29792" d="M463.591,570.447c0,17.489-13.761,28.952-31.25,28.952c-17.49,0-32.086-11.463-32.086-28.952
							s14.179-31.668,31.668-31.668S463.591,552.958,463.591,570.447z"/>
						<circle fill="#F29792" cx="399.579" cy="564.298" r="8.855"/>
						<circle fill="#F29792" cx="463.83" cy="564.298" r="8.855"/>
						<g>
							<g>
								<path fill="#C26765" d="M436.368,563.834c-0.282,0.204-2.498-2.38-4.946-5.771l-0.06-0.082l1.064-0.067
									c-1.98,3.635-3.821,6.432-4.125,6.267c-0.303-0.165,1.045-3.229,3.018-6.868l0.479-0.881l0.588,0.813l0.058,0.08
									C434.894,560.715,436.649,563.631,436.368,563.834z"/>
							</g>
							<g>
								<g>
									<path fill="#C26765" d="M401.686,567.177c-0.184,0.032-0.423-0.481-0.766-1.238c-0.36-0.734-0.902-1.762-1.89-2.217
										c-0.965-0.501-2.126-0.354-2.932-0.235c-0.822,0.141-1.356,0.271-1.442,0.118c-0.086-0.147,0.323-0.58,1.181-0.969
										c0.431-0.184,0.97-0.375,1.623-0.422c0.639-0.057,1.417,0.001,2.131,0.379c0.377,0.144,0.655,0.437,0.948,0.661
										c0.227,0.284,0.49,0.539,0.635,0.831c0.337,0.568,0.493,1.115,0.593,1.574
										C401.921,566.581,401.845,567.151,401.686,567.177z"/>
								</g>
								<g>
									<path fill="#C26765" d="M462.353,567.177c-0.164-0.027-0.218-0.612-0.085-1.563c0.194-0.896,0.602-2.367,2.081-3.275
										c0.739-0.438,1.578-0.482,2.249-0.402c0.686,0.08,1.228,0.337,1.66,0.559c0.849,0.485,1.225,0.974,1.123,1.109
										c-0.102,0.144-0.634-0.059-1.463-0.284c-0.816-0.214-1.996-0.425-2.951,0.116c-0.951,0.559-1.475,1.669-1.847,2.439
										C462.791,566.684,462.531,567.207,462.353,567.177z"/>
								</g>
							</g>
						</g>
						<g>
							<path fill="#F1ECDF" d="M452.794,559.003c0,0-24.888-2.724-40.666,0.657c0,0-3.409,20.844-2.406,26.44
								c0,0,16.568,15.318,45.229-0.426C454.951,585.675,457.64,571.539,452.794,559.003z"/>
						</g>
						<g>
							<path fill="none" stroke="#F1ECDF" stroke-width="0.8527" stroke-linecap="round" stroke-miterlimit="10" d="
								M416.449,562.571c0-0.371-12.961-6.856-12.961-6.856"/>
							<path fill="none" stroke="#F1ECDF" stroke-width="0.8527" stroke-linecap="round" stroke-miterlimit="10" d="
								M400.487,573.271c0,0,7.229,13.013,13.425,14.376"/>
							<path fill="none" stroke="#F1ECDF" stroke-width="0.8527" stroke-linecap="round" stroke-miterlimit="10" d="
								M450.821,586.989c6.105-2.63,9.893-6.902,12.619-13.223"/>
							<path fill="none" stroke="#F1ECDF" stroke-width="0.8527" stroke-linecap="round" stroke-miterlimit="10" d="
								M460.682,555.715c0,0-2.159,1.691-9.484,4.603"/>
						</g>
						<g>
							<g>
								<path fill="#222A46" d="M441.43,548.494c0,0-0.163,1.042-0.081,2.601c0.021,0.388,0.064,0.805,0.144,1.237
									c0.087,0.429,0.21,0.875,0.423,1.282c0.198,0.421,0.525,0.752,0.905,0.992c0.41,0.171,0.888,0.281,1.358,0.185
									c0.127-0.021,0.272-0.021,0.384-0.057l0.313-0.118c0.216-0.046,0.409-0.231,0.615-0.336
									c0.378-0.296,0.711-0.648,0.976-1.042c0.537-0.784,0.874-1.636,1.115-2.373c0.485-1.482,0.617-2.523,0.617-2.523
									c0.014-0.104,0.108-0.178,0.213-0.165c0.102,0.013,0.174,0.105,0.166,0.206c0,0-0.023,0.271-0.094,0.735
									c-0.074,0.462-0.182,1.126-0.421,1.898c-0.239,0.77-0.572,1.665-1.143,2.53c-0.283,0.434-0.648,0.842-1.087,1.192
									c-0.251,0.14-0.449,0.34-0.752,0.426l-0.429,0.155c-0.141,0.041-0.265,0.042-0.397,0.064
									c-0.577,0.098-1.175-0.036-1.706-0.286c-0.499-0.317-0.888-0.762-1.105-1.248c-0.235-0.479-0.354-0.969-0.438-1.431
									c-0.073-0.464-0.108-0.902-0.121-1.307c-0.025-0.81,0.057-1.478,0.113-1.941c0.061-0.464,0.113-0.729,0.113-0.729
									l0.001-0.005c0.018-0.088,0.103-0.145,0.189-0.127C441.387,548.329,441.442,548.41,441.43,548.494z"/>
							</g>
							<g>
								<path fill="#222A46" d="M416.238,549.075c0,0.001-0.163,1.042-0.082,2.601c0.021,0.388,0.065,0.805,0.144,1.237
									c0.087,0.429,0.21,0.876,0.423,1.283c0.198,0.421,0.525,0.752,0.905,0.991c0.41,0.171,0.888,0.281,1.359,0.186
									c0.126-0.021,0.272-0.022,0.383-0.058l0.314-0.118c0.216-0.046,0.408-0.231,0.615-0.336c0.378-0.295,0.71-0.648,0.976-1.042
									c0.536-0.784,0.873-1.636,1.115-2.373c0.485-1.482,0.617-2.523,0.617-2.523c0.014-0.104,0.108-0.178,0.213-0.165
									c0.102,0.013,0.174,0.105,0.166,0.206c0,0-0.023,0.271-0.094,0.735c-0.074,0.462-0.182,1.126-0.421,1.898
									c-0.239,0.77-0.572,1.665-1.144,2.531c-0.282,0.433-0.648,0.842-1.086,1.192c-0.251,0.139-0.45,0.339-0.752,0.425
									l-0.43,0.155c-0.141,0.041-0.265,0.043-0.397,0.064c-0.576,0.097-1.175-0.036-1.706-0.286
									c-0.499-0.317-0.888-0.761-1.105-1.248c-0.235-0.478-0.354-0.968-0.438-1.431c-0.074-0.464-0.109-0.902-0.122-1.307
									c-0.025-0.81,0.058-1.478,0.114-1.941c0.061-0.464,0.113-0.729,0.113-0.729l0.001-0.006
									c0.018-0.087,0.103-0.144,0.189-0.126C416.195,548.91,416.251,548.991,416.238,549.075z"/>
							</g>
						</g>
					</g>
				</g>
			</g>
		</g>
	</g>
</g>
<g>
	<g>
		<g>
			<path fill="#00BBD6" d="M88.615,344.865c-0.227,0-0.444-0.119-0.561-0.331l-1.97-3.569c-0.171-0.309-0.059-0.698,0.25-0.869
				c0.307-0.174,0.698-0.059,0.868,0.251l1.97,3.569c0.171,0.309,0.059,0.697-0.25,0.868
				C88.826,344.84,88.719,344.865,88.615,344.865z"/>
		</g>
		<g>
			
				<ellipse transform="matrix(-0.8492 0.5281 -0.5281 -0.8492 345.5296 590.0406)" fill="#00BBD6" cx="88.506" cy="344.362" rx="2.58" ry="1.244"/>
		</g>
	</g>
	<g>
		<circle fill="#00BBD6" cx="78.548" cy="329.764" r="15.21"/>
	</g>
	<g>
		<circle fill="#00A1A8" cx="72.073" cy="321.709" r="2.763"/>
	</g>
	<g>
		<circle fill="#00A1A8" cx="79.191" cy="326.47" r="2.172"/>
	</g>
	<g>
		<circle fill="#00A1A8" cx="88.231" cy="330.078" r="3.609"/>
	</g>
	<g>
		<circle fill="#00A1A8" cx="68.531" cy="329.764" r="2.344"/>
	</g>
	<g>
		<circle fill="#00A1A8" cx="85.185" cy="321.147" r="1.781"/>
	</g>
	<g>
		<circle fill="#00A1A8" cx="84.206" cy="339.165" r="2.425"/>
	</g>
	<g>
		<g>
			<path fill="#00BBD6" d="M82.629,317.407c-0.082,0-0.166-0.016-0.247-0.05c-0.325-0.137-0.478-0.512-0.342-0.837l1.577-3.76
				c0.136-0.326,0.509-0.479,0.837-0.342c0.325,0.137,0.479,0.512,0.342,0.837l-1.577,3.76
				C83.117,317.26,82.88,317.407,82.629,317.407z"/>
		</g>
		<g>
			
				<ellipse transform="matrix(0.9411 0.3382 -0.3382 0.9411 110.8234 -10.0936)" fill="#00BBD6" cx="84.38" cy="313.008" rx="2.579" ry="1.244"/>
		</g>
	</g>
	<g>
		<g>
			<path fill="#00BBD6" d="M90.56,324.235c-0.208,0-0.417-0.079-0.577-0.237c-0.321-0.318-0.323-0.837-0.004-1.158l3.675-3.704
				c0.317-0.321,0.838-0.323,1.157-0.005c0.322,0.318,0.324,0.837,0.005,1.158l-3.675,3.704
				C90.981,324.154,90.771,324.235,90.56,324.235z"/>
		</g>
		<g>
			
				<ellipse transform="matrix(0.7456 0.6664 -0.6664 0.7456 237.1241 18.4156)" fill="#00BBD6" cx="94.441" cy="319.795" rx="3.302" ry="1.592"/>
		</g>
	</g>
	<g>
		<g>
			<path fill="#00BBD6" d="M72.555,318.099c-0.395,0-0.749-0.278-0.829-0.68l-1.064-5.293c-0.092-0.458,0.205-0.905,0.664-0.997
				c0.458-0.098,0.905,0.206,0.997,0.664l1.063,5.292c0.093,0.458-0.205,0.905-0.663,0.997
				C72.666,318.094,72.609,318.099,72.555,318.099z"/>
		</g>
		<g>
			
				<ellipse transform="matrix(0.9688 -0.2478 0.2478 0.9688 -75.1211 27.4469)" fill="#00BBD6" cx="71.492" cy="312.196" rx="3.416" ry="1.929"/>
		</g>
	</g>
	<g>
		<g>
			<path fill="#00BBD6" d="M96.791,338.002c-0.079,0-0.158-0.011-0.238-0.03l-5.898-1.517c-0.511-0.13-0.819-0.651-0.688-1.163
				c0.133-0.51,0.658-0.816,1.163-0.687l5.898,1.516c0.511,0.13,0.819,0.651,0.688,1.163
				C97.605,337.715,97.217,338.002,96.791,338.002z"/>
		</g>
		<g>
			
				<ellipse transform="matrix(-0.1981 0.9802 -0.9802 -0.1981 446.627 309.2094)" fill="#00BBD6" cx="96.828" cy="337.302" rx="3.854" ry="1.857"/>
		</g>
	</g>
	<g>
		<g>
			<path fill="#00BBD6" d="M62.255,339.133c-0.255,0-0.496-0.153-0.595-0.404c-0.129-0.328,0.032-0.701,0.36-0.83l3.792-1.497
				c0.331-0.131,0.701,0.032,0.829,0.36c0.13,0.328-0.03,0.7-0.359,0.829l-3.793,1.497
				C62.412,339.119,62.333,339.133,62.255,339.133z"/>
		</g>
		<g>
			
				<ellipse transform="matrix(-0.4151 -0.9098 0.9098 -0.4151 -219.9064 535.3653)" fill="#00BBD6" cx="62.134" cy="338.369" rx="2.58" ry="1.243"/>
		</g>
	</g>
	<g>
		<g>
			<path fill="#00BBD6" d="M66.739,323.449c-0.079,0-0.16-0.015-0.237-0.046l-5.66-2.264c-0.328-0.13-0.488-0.503-0.357-0.832
				c0.131-0.328,0.507-0.484,0.832-0.356l5.66,2.264c0.328,0.131,0.488,0.503,0.357,0.832
				C67.233,323.298,66.993,323.449,66.739,323.449z"/>
		</g>
		<g>
			
				<ellipse transform="matrix(0.3227 -0.9465 0.9465 0.3227 -261.7872 274.7515)" fill="#00BBD6" cx="61.075" cy="320.286" rx="3.857" ry="1.859"/>
		</g>
	</g>
	<g>
		<g>
			<path fill="#00BBD6" d="M73.982,348.244c-0.076,0-0.155-0.009-0.232-0.031c-0.454-0.127-0.717-0.599-0.59-1.053l1.652-5.868
				c0.127-0.452,0.601-0.711,1.053-0.59c0.453,0.129,0.717,0.599,0.59,1.053l-1.652,5.868
				C74.696,347.999,74.354,348.244,73.982,348.244z"/>
		</g>
		<g>
			
				<ellipse transform="matrix(-0.9754 -0.2204 0.2204 -0.9754 69.9521 703.1973)" fill="#00BBD6" cx="74.2" cy="347.697" rx="3.858" ry="1.86"/>
		</g>
	</g>
	<g>
		<circle fill="#00A1A8" cx="74.915" cy="338.622" r="2.841"/>
	</g>
</g>
<g>
	<g>
		<g>
			<path fill="#00BBD6" d="M50.567,624.919c-0.302,0-0.595-0.16-0.751-0.443l-2.642-4.785c-0.229-0.414-0.078-0.936,0.336-1.166
				c0.413-0.232,0.937-0.078,1.165,0.338l2.641,4.785c0.229,0.414,0.078,0.936-0.336,1.165
				C50.85,624.884,50.707,624.919,50.567,624.919z"/>
		</g>
		<g>
			
				<ellipse transform="matrix(-0.8491 0.5282 -0.5282 -0.8491 422.9811 1127.6548)" fill="#00BBD6" cx="50.421" cy="624.244" rx="3.459" ry="1.668"/>
		</g>
	</g>
	<g>
		<circle fill="#00BBD6" cx="37.069" cy="604.671" r="20.394"/>
	</g>
	<g>
		<circle fill="#00A1A8" cx="28.389" cy="593.871" r="3.704"/>
	</g>
	<g>
		<circle fill="#00A1A8" cx="37.931" cy="600.254" r="2.912"/>
	</g>
	<g>
		<circle fill="#00A1A8" cx="50.052" cy="605.093" r="4.838"/>
	</g>
	<g>
		<circle fill="#00A1A8" cx="23.639" cy="604.671" r="3.142"/>
	</g>
	<g>
		<circle fill="#00A1A8" cx="45.968" cy="593.118" r="2.388"/>
	</g>
	<g>
		<circle fill="#00A1A8" cx="44.656" cy="617.275" r="3.252"/>
	</g>
	<g>
		<g>
			<path fill="#00BBD6" d="M42.542,588.104c-0.111,0-0.223-0.021-0.332-0.066c-0.437-0.184-0.642-0.686-0.458-1.124l2.113-5.038
				c0.183-0.438,0.684-0.645,1.122-0.46c0.437,0.183,0.642,0.686,0.459,1.121l-2.114,5.042
				C43.196,587.905,42.878,588.104,42.542,588.104z"/>
		</g>
		<g>
			
				<ellipse transform="matrix(0.9412 0.338 -0.338 0.9412 199.4135 19.0888)" fill="#00BBD6" cx="44.889" cy="582.205" rx="3.459" ry="1.668"/>
		</g>
	</g>
	<g>
		<g>
			<path fill="#00BBD6" d="M53.175,597.259c-0.279,0-0.559-0.107-0.772-0.319c-0.431-0.425-0.433-1.121-0.006-1.553l4.927-4.966
				c0.426-0.432,1.123-0.432,1.552-0.007c0.432,0.427,0.433,1.121,0.007,1.552l-4.927,4.966
				C53.741,597.151,53.458,597.259,53.175,597.259z"/>
		</g>
		<g>
			
				<ellipse transform="matrix(0.7456 0.6664 -0.6664 0.7456 408.9203 111.5444)" fill="#00BBD6" cx="58.379" cy="591.305" rx="4.428" ry="2.133"/>
		</g>
	</g>
	<g>
		<g>
			<path fill="#00BBD6" d="M29.034,589.029c-0.531,0-1.004-0.372-1.113-0.912l-1.425-7.095c-0.125-0.614,0.274-1.213,0.889-1.337
				c0.613-0.132,1.212,0.275,1.337,0.89l1.426,7.097c0.124,0.614-0.275,1.211-0.89,1.337
				C29.184,589.024,29.107,589.029,29.034,589.029z"/>
		</g>
		<g>
			<path fill="#00BBD6" d="M32.047,579.981c0.354,1.385-1.346,3.014-3.796,3.64c-2.451,0.627-4.725,0.015-5.079-1.371
				c-0.353-1.381,1.346-3.013,3.797-3.64C29.419,577.984,31.693,578.599,32.047,579.981z"/>
		</g>
	</g>
	<g>
		<g>
			<path fill="#00BBD6" d="M61.53,615.717c-0.106,0-0.213-0.015-0.32-0.042l-7.909-2.032c-0.684-0.174-1.097-0.874-0.92-1.56
				c0.177-0.686,0.881-1.094,1.559-0.922l7.909,2.032c0.684,0.176,1.097,0.875,0.921,1.561
				C62.621,615.33,62.101,615.717,61.53,615.717z"/>
		</g>
		<g>
			
				<ellipse transform="matrix(-0.1981 0.9802 -0.9802 -0.1981 676.3729 676.211)" fill="#00BBD6" cx="61.579" cy="614.779" rx="5.167" ry="2.491"/>
		</g>
	</g>
	<g>
		<g>
			<path fill="#00BBD6" d="M15.224,617.233c-0.343,0-0.665-0.205-0.797-0.543c-0.174-0.439,0.041-0.939,0.482-1.113l5.085-2.008
				c0.443-0.174,0.938,0.044,1.112,0.483c0.174,0.438-0.041,0.939-0.482,1.112l-5.085,2.008
				C15.435,617.213,15.329,617.233,15.224,617.233z"/>
		</g>
		<g>
			
				<ellipse transform="matrix(-0.4151 -0.9098 0.9098 -0.4151 -539.301 885.6938)" fill="#00BBD6" cx="15.062" cy="616.209" rx="3.46" ry="1.667"/>
		</g>
	</g>
	<g>
		<g>
			<path fill="#00BBD6" d="M21.236,596.205c-0.106,0-0.214-0.021-0.317-0.063l-7.59-3.035c-0.439-0.176-0.654-0.675-0.478-1.115
				c0.176-0.44,0.679-0.648,1.114-0.479l7.589,3.038c0.44,0.174,0.654,0.674,0.479,1.113
				C21.899,596.001,21.577,596.205,21.236,596.205z"/>
		</g>
		<g>
			
				<ellipse transform="matrix(0.3225 -0.9466 0.9466 0.3225 -551.0933 413.9714)" fill="#00BBD6" cx="13.641" cy="591.963" rx="5.173" ry="2.493"/>
		</g>
	</g>
	<g>
		<g>
			<path fill="#00BBD6" d="M30.948,629.45c-0.104,0-0.208-0.015-0.313-0.044c-0.607-0.171-0.961-0.802-0.79-1.409l2.215-7.868
				c0.17-0.607,0.806-0.957,1.411-0.792c0.607,0.173,0.961,0.803,0.791,1.411l-2.215,7.868
				C31.906,629.121,31.447,629.45,30.948,629.45z"/>
		</g>
		<g>
			
				<ellipse transform="matrix(-0.9754 -0.2205 0.2205 -0.9754 -76.9524 1248.8381)" fill="#00BBD6" cx="31.239" cy="628.715" rx="5.172" ry="2.495"/>
		</g>
	</g>
	<g>
		<circle fill="#00A1A8" cx="32.198" cy="616.548" r="3.81"/>
	</g>
</g>
<g>
	<circle fill="#EF675D" cx="109.38" cy="525.579" r="15.201"/>
	<circle fill="#DC5953" cx="106.579" cy="515.639" r="2.761"/>
	<circle fill="#DC5953" cx="111.261" cy="522.8" r="2.17"/>
	<circle fill="#DC5953" cx="118.162" cy="529.656" r="3.607"/>
	<circle fill="#DC5953" cx="100.169" cy="521.66" r="2.342"/>
	<circle fill="#DC5953" cx="118.855" cy="520.251" r="1.78"/>
	<circle fill="#DC5953" cx="110.906" cy="536.438" r="2.424"/>
	<g>
		
			<line fill="none" stroke="#EF675D" stroke-width="0.7174" stroke-linecap="round" stroke-linejoin="round" stroke-miterlimit="10" x1="118.219" y1="515.225" x2="121.14" y2="512.385"/>
		
			<ellipse transform="matrix(0.7335 0.6797 -0.6797 0.7335 380.6135 54.1108)" fill="#EF675D" cx="121.299" cy="512.453" rx="2.578" ry="1.242"/>
	</g>
	<g>
		
			<line fill="none" stroke="#EF675D" stroke-width="0.7174" stroke-linecap="round" stroke-linejoin="round" stroke-miterlimit="10" x1="112.564" y1="538.763" x2="112.979" y2="542.816"/>
		
			<ellipse transform="matrix(-0.9881 0.1536 -0.1536 -0.9881 307.7091 1062.0234)" fill="#EF675D" cx="112.827" cy="542.899" rx="2.578" ry="1.242"/>
	</g>
	<g>
		
			<line fill="none" stroke="#EF675D" stroke-width="0.9501" stroke-linecap="round" stroke-linejoin="round" stroke-miterlimit="10" x1="108.765" y1="511.728" x2="109.858" y2="506.444"/>
		
			<ellipse transform="matrix(0.9885 0.151 -0.151 0.9885 77.7892 -10.7666)" fill="#EF675D" cx="109.766" cy="506.663" rx="3.414" ry="1.928"/>
	</g>
	<g>
		
			<line fill="none" stroke="#EF675D" stroke-width="1.0718" stroke-linecap="round" stroke-linejoin="round" stroke-miterlimit="10" x1="118.477" y1="535.711" x2="123.308" y2="539.413"/>
		
			<ellipse transform="matrix(-0.5661 0.8244 -0.8244 -0.5661 637.883 743.5479)" fill="#EF675D" cx="123.242" cy="539.663" rx="3.851" ry="1.856"/>
	</g>
	<g>
		
			<line fill="none" stroke="#EF675D" stroke-width="0.7174" stroke-linecap="round" stroke-linejoin="round" stroke-miterlimit="10" x1="95.055" y1="527.338" x2="90.983" y2="527.231"/>
		
			<ellipse transform="matrix(-0.0258 -0.9997 0.9997 -0.0258 -433.6243 631.5846)" fill="#EF675D" cx="90.92" cy="527.071" rx="2.578" ry="1.242"/>
	</g>
	<g>
		
			<line fill="none" stroke="#EF675D" stroke-width="0.7174" stroke-linecap="round" stroke-linejoin="round" stroke-miterlimit="10" x1="101.242" y1="514.563" x2="96.923" y2="510.268"/>
		
			<ellipse transform="matrix(0.6674 -0.7447 0.7447 0.6674 -347.5522 241.8927)" fill="#EF675D" cx="97.02" cy="510.027" rx="3.855" ry="1.859"/>
	</g>
	<g>
		
			<line fill="none" stroke="#EF675D" stroke-width="0.9566" stroke-linecap="round" stroke-linejoin="round" stroke-miterlimit="10" x1="102.101" y1="535.253" x2="98.285" y2="540.003"/>
		
			<ellipse transform="matrix(-0.8112 -0.5847 0.5847 -0.8112 -137.7884 1036.2539)" fill="#EF675D" cx="98.366" cy="540.367" rx="3.855" ry="1.859"/>
	</g>
	<circle fill="#DC5953" cx="102.574" cy="532.304" r="2.839"/>
</g>
<circle opacity="0.7" fill="#00BBD6" cx="77.37" cy="452.269" r="4.931"/>
<circle opacity="0.7" fill="#00BBD6" cx="31.549" cy="371.66" r="8.097"/>
<circle opacity="0.7" fill="#00BBD6" cx="167.779" cy="274.862" r="7.793"/>
<circle opacity="0.7" fill="#00BBD6" cx="23.452" cy="506.288" r="3.066"/>
</svg>
