<?xml version="1.0" encoding="utf-8"?>
<!-- Generator: Adobe Illustrator 16.0.0, SVG Export Plug-In . SVG Version: 6.00 Build 0)  -->
<!DOCTYPE svg PUBLIC "-//W3C//DTD SVG 1.1//EN" "http://www.w3.org/Graphics/SVG/1.1/DTD/svg11.dtd">
<svg version="1.1" id="Layer_1" xmlns="http://www.w3.org/2000/svg" xmlns:xlink="http://www.w3.org/1999/xlink" x="0px" y="0px"
	 width="610.362px" height="263.686px" viewBox="1.638 22.893 610.362 263.686"
	 enable-background="new 1.638 22.893 610.362 263.686" xml:space="preserve">
<title>BG</title>
<desc>Created with Sketch.</desc>
<g id="Page-1">
	<g id="Home-Page-Design---Appsero" transform="translate(0.000000, -5380.000000)">
		<g id="BG" transform="translate(-107.000000, 5372.972411)">
			<g transform="translate(0.000000, 7.027589)">
				<g id="Group-29" transform="translate(107.000000, 0.000000)">
					
						<linearGradient id="Rectangle-2-Copy-18_1_" gradientUnits="userSpaceOnUse" x1="-150.749" y1="1808.2571" x2="2418.6272" y2="1772.2589" gradientTransform="matrix(0.3186 0 0 0.3186 1.3632 -428.0933)">
						<stop  offset="0" style="stop-color:#162477"/>
						<stop  offset="0.2995" style="stop-color:#444AD6;stop-opacity:0.9903"/>
						<stop  offset="0.6411" style="stop-color:#162E8A"/>
						<stop  offset="1" style="stop-color:#162E66"/>
					</linearGradient>
					<polygon id="Rectangle-2-Copy-18" fill="url(#Rectangle-2-Copy-18_1_)" points="1,-0.301 613,-0.141 613,286.426 1,286.426 
											"/>
					<g id="Globe" transform="translate(483.000000, 857.000000)">
						
							<radialGradient id="Path_1_" cx="-1775.585" cy="-309.6941" r="1.9348" gradientTransform="matrix(11.7876 0 0 -11.7876 20605.7422 -3981.7383)" gradientUnits="userSpaceOnUse">
							<stop  offset="0" style="stop-color:#AE36E5"/>
							<stop  offset="0.17" style="stop-color:#B23BE4"/>
							<stop  offset="0.38" style="stop-color:#BE4BE3"/>
							<stop  offset="0.61" style="stop-color:#D164E0"/>
							<stop  offset="0.86" style="stop-color:#EC87DC"/>
							<stop  offset="1" style="stop-color:#FF9FD9"/>
						</radialGradient>
						<path id="Path_2_" fill="url(#Path_1_)" d="M-302.809-337.039c0.032,5.002-2.963,9.523-7.583,11.469s-9.94,0.893-13.508-2.611
							s-4.62-8.854-2.708-13.508c1.911-4.648,6.403-7.646,11.405-7.646C-308.384-349.336-302.841-343.856-302.809-337.039
							L-302.809-337.039z"/>
					</g>
				</g>
			</g>
		</g>
	</g>
</g>
<title>BG</title>
<desc>Created with Sketch.</desc>
<g id="BACKGROUND_1">
	<g>
		<g>
			<g>
				<g>
					
						<radialGradient id="SVGID_1_" cx="90.6177" cy="-1899.4834" r="1.1388" gradientTransform="matrix(0.3186 0 0 -0.3186 1.3632 -292.1746)" gradientUnits="userSpaceOnUse">
						<stop  offset="0.2473" style="stop-color:#FFFFFF"/>
						<stop  offset="0.6667" style="stop-color:#5E9C70"/>
						<stop  offset="1" style="stop-color:#000006"/>
					</radialGradient>
					<path fill="url(#SVGID_1_)" d="M30.042,313.294c-0.159-0.127-0.223-0.351-0.096-0.51l0,0c0.127-0.158,0.351-0.224,0.51-0.095
						l0,0c0.159,0.127,0.223,0.351,0.096,0.511l0,0c-0.064,0.094-0.191,0.157-0.287,0.157l0,0
						C30.17,313.359,30.106,313.328,30.042,313.294z"/>
				</g>
				<g>
					
						<radialGradient id="SVGID_2_" cx="-51.6626" cy="-1534.7549" r="3.7712" gradientTransform="matrix(0.3186 0 0 -0.3186 1.3632 -292.1746)" gradientUnits="userSpaceOnUse">
						<stop  offset="0.2473" style="stop-color:#FFFFFF"/>
						<stop  offset="0.6667" style="stop-color:#5E9C70"/>
						<stop  offset="1" style="stop-color:#000006"/>
					</radialGradient>
					<path fill="url(#SVGID_2_)" d="M-15.77,197.809c-0.542-0.382-0.701-1.115-0.318-1.656l0,0c0.382-0.541,1.115-0.698,1.657-0.317
						l0,0c0.542,0.383,0.701,1.115,0.318,1.658l0,0c-0.223,0.35-0.605,0.51-0.988,0.51l0,0
						C-15.324,198-15.579,197.938-15.77,197.809z"/>
				</g>
			</g>
		</g>
	</g>
</g>
<g id="DESIGNED_BY_FREEPIK">
</g>
<path opacity="0.1" fill="#EDF8F9" enable-background="new    " d="M566.816,60.426c0.463,1.195,1.071,2.334,1.813,3.39
	c-0.002,0.003-0.002,0.005-0.004,0.007c-0.275,0.423-0.563,0.839-0.854,1.25c-1.713-1.043-3.982-0.715-5.315,0.871
	c-1.472,1.749-1.245,4.362,0.508,5.835c1.747,1.472,4.36,1.246,5.833-0.508c1.199-1.437,1.266-3.454,0.285-4.942
	c0.375-0.205,0.754-0.396,1.14-0.582h0.003c1.474,1.521,3.271,2.773,5.347,3.633c0,0.003-0.003,0.003-0.003,0.006
	c-0.081,0.14-0.151,0.291-0.215,0.452c-0.836,2.126,0.207,4.525,2.33,5.359c2.121,0.834,4.521-0.211,5.355-2.338
	c0.301-0.765,0.357-1.568,0.202-2.32c2.077-0.203,4.089-0.81,5.918-1.772c0.958,0.922,1.892,1.874,2.8,2.848
	c-0.283,0.308-0.514,0.676-0.676,1.092c-0.729,1.851,0.18,3.938,2.033,4.67c1.848,0.727,3.94-0.187,4.668-2.034
	c0.727-1.85-0.185-3.941-2.033-4.67c-1.09-0.427-2.262-0.289-3.188,0.278c-0.673-1.051-1.298-2.129-1.867-3.24
	c1.216-0.851,2.32-1.876,3.271-3.059l0.005,0.002c0.409,0.168,0.813,0.333,1.224,0.498c-0.063,0.613,0.286,1.214,0.887,1.448
	c0.727,0.287,1.547-0.071,1.832-0.798c0.285-0.727-0.071-1.547-0.797-1.832c-0.563-0.221-1.179-0.055-1.563,0.361
	c-0.296-0.202-0.586-0.416-0.878-0.63c0.68-0.987,1.26-2.068,1.717-3.231c0.4-1.02,0.689-2.055,0.871-3.096
	c0.681-0.022,1.36-0.025,2.039-0.018c0.131,0.953,0.763,1.813,1.727,2.189c1.415,0.559,3.023-0.143,3.581-1.558
	c0.559-1.423-0.144-3.026-1.562-3.583c-1.421-0.559-3.021,0.138-3.581,1.561c-0.036,0.09-0.066,0.184-0.095,0.271
	c-0.642-0.125-1.275-0.251-1.916-0.373c0.428-5.456-1.992-10.809-6.408-14.084c1.591-0.156,3.045-1.184,3.671-2.775
	c0.895-2.273-0.221-4.838-2.491-5.732c-2.272-0.895-4.84,0.226-5.733,2.498c-0.498,1.267-0.37,2.627,0.237,3.737
	c-2.821-0.979-5.75-1.117-8.495-0.538c-0.226-0.399-0.459-0.797-0.691-1.19l-0.044-0.06c0.536-0.389,0.966-0.936,1.226-1.593
	c0.734-1.87-0.188-3.985-2.058-4.721c-1.87-0.736-3.979,0.188-4.716,2.06s0.182,3.982,2.053,4.719
	c0.367,0.145,0.744,0.225,1.114,0.24l-0.003,0.056c0.098,0.455,0.19,0.907,0.297,1.36c-2.266,0.936-4.316,2.386-5.959,4.272
	c-0.322-0.435-0.759-0.776-1.299-0.99c-1.557-0.611-3.308,0.156-3.916,1.708c-0.611,1.553,0.148,3.305,1.705,3.916
	c0.209,0.08,0.421,0.141,0.633,0.168c-0.818,2.137-1.146,4.344-1.037,6.492c-0.002,0-0.002-0.002-0.005-0.002
	c-0.114-0.069-0.241-0.127-0.374-0.18c-1.747-0.688-3.715,0.17-4.399,1.912c-0.687,1.749,0.171,3.714,1.917,4.401
	c1.443,0.567,3.043,0.078,3.936-1.108C566.816,60.428,566.816,60.428,566.816,60.426z"/>
<g opacity="0.4">
	<g>
		<g>
			<path fill="#7690E2" d="M83.473,222.424c0,12.461-10.1,22.569-22.57,22.569c-7.678,0-14.465-3.834-18.539-9.697
				c-2.542-3.653-4.031-8.088-4.031-12.872c0-12.471,10.108-22.578,22.57-22.578c4.647,0,8.961,1.403,12.548,3.81
				C79.492,207.701,83.473,214.602,83.473,222.424z"/>
			<path fill="#5A7BCC" d="M55.75,202.678c0,1.146-0.385,2.19-1.044,3.029c-0.171,0.223-0.359,0.438-0.574,0.625
				c-0.633,0.582-1.429,1.002-2.302,1.182c-0.274,0.061-0.557,0.094-0.848,0.103c-0.06,0.01-0.111,0.01-0.171,0.01
				c-2.73,0-4.947-2.217-4.947-4.946c0-2.722,2.217-4.938,4.947-4.938C53.533,197.74,55.75,199.957,55.75,202.678z"/>
			<path fill="#5A7BCC" d="M47.217,219.676c0,1.053-0.291,2.037-0.796,2.877c-0.146,0.248-0.308,0.479-0.496,0.692
				c-1.019,1.259-2.585,2.063-4.34,2.063c-3.107,0-5.632-2.525-5.632-5.634s2.525-5.632,5.632-5.632
				c2.636,0,4.853,1.823,5.461,4.271c0.077,0.272,0.12,0.556,0.146,0.847C47.208,219.325,47.217,219.505,47.217,219.676z"/>
			<path fill="#5A7BCC" d="M42.141,208.412c0,0.094-0.009,0.197-0.018,0.291c-0.025,0.299-0.094,0.582-0.205,0.848
				c-0.146,0.385-0.385,0.736-0.668,1.035c-0.197,0.205-0.428,0.377-0.676,0.521c-0.454,0.258-0.976,0.401-1.532,0.401
				c-1.704,0-3.09-1.386-3.09-3.098c0-1.703,1.386-3.09,3.09-3.09C40.754,205.322,42.141,206.709,42.141,208.412z"/>
			<path fill="#5A7BCC" d="M50.648,237.581c0,2.729-2.208,4.938-4.93,4.938c-2.73,0-4.939-2.209-4.939-4.938
				c0-2.722,2.208-4.931,4.939-4.931c0.659,0,1.284,0.129,1.849,0.359c0.274,0.111,0.531,0.239,0.771,0.395
				c0.847,0.529,1.523,1.318,1.917,2.242c0.111,0.266,0.206,0.539,0.266,0.83C50.605,236.828,50.648,237.204,50.648,237.581z"/>
			<path fill="#5A7BCC" d="M70.334,240.988c0,3.389-2.739,6.128-6.128,6.128c-3.38,0-6.128-2.739-6.128-6.128
				c0-2.313,1.284-4.331,3.183-5.377c0.249-0.137,0.514-0.256,0.779-0.351c0.676-0.266,1.403-0.401,2.166-0.401
				c0.65,0,1.275,0.103,1.866,0.291c0.274,0.086,0.539,0.188,0.788,0.315C68.914,236.451,70.334,238.557,70.334,240.988z"/>
			<circle fill="#5A7BCC" cx="60.159" cy="226.958" r="3.427"/>
			<path fill="#5A7BCC" d="M82.249,218.605c-2.08,0.326-4.066-0.615-5.161-2.25c-0.163-0.231-0.3-0.479-0.419-0.746
				c-0.197-0.428-0.342-0.89-0.419-1.387c-0.094-0.623-0.077-1.24,0.042-1.822c0.051-0.282,0.128-0.558,0.231-0.821
				c0.642-1.722,2.174-3.056,4.117-3.354c2.868-0.445,5.555,1.522,5.992,4.392C87.076,215.482,85.116,218.161,82.249,218.605z"/>
			<path fill="#5A7BCC" d="M71.935,198.253c0,1.97-1.284,3.638-3.056,4.212c-0.266,0.085-0.548,0.145-0.839,0.18
				c-0.171,0.025-0.351,0.033-0.531,0.033c-0.805,0-1.558-0.213-2.2-0.582c-0.248-0.137-0.479-0.308-0.693-0.496
				c-0.941-0.805-1.541-2.002-1.541-3.347c0-2.448,1.986-4.435,4.434-4.435C69.949,193.818,71.935,195.805,71.935,198.253z"/>
			<circle fill="#5A7BCC" cx="65.719" cy="215.974" r="3.316"/>
			<path fill="#5A7BCC" d="M87.872,227.354c0,2.928-2.379,5.299-5.298,5.299c-2.2,0-4.074-1.336-4.887-3.234
				c-0.103-0.257-0.197-0.531-0.257-0.813c-0.103-0.402-0.154-0.821-0.154-1.25c0-1.01,0.283-1.961,0.779-2.766
				c0.146-0.248,0.317-0.479,0.505-0.693c0.976-1.129,2.405-1.84,4.014-1.84C85.493,222.057,87.872,224.427,87.872,227.354z"/>
			<circle fill="#5A7BCC" cx="76.806" cy="236.023" r="2.863"/>
			<circle fill="#5A7BCC" cx="54.123" cy="218.544" r="1.99"/>
			<path fill="#5A7BCC" d="M56.777,207.521c0.171,0.172,0.197,0.41,0.051,0.606c-0.017,0.019-0.034,0.026-0.051,0.043
				c-0.924,1.584-2.705,2.328-4.494,2.414c-0.137,0-0.248-0.051-0.325-0.137c-0.146-0.019-0.291-0.111-0.334-0.257l-0.642-2.577
				c0.291-0.009,0.574-0.042,0.848-0.103c0.873-0.18,1.669-0.6,2.302-1.182c0.214-0.188,0.402-0.402,0.574-0.625
				C55.424,206.271,56.109,206.88,56.777,207.521z"/>
			<path fill="#5A7BCC" d="M45.171,210.467c-0.094,0.6-0.24,1.215-0.548,1.746c-0.291,0.514-0.702,0.924-1.241,1.172
				c-0.12,0.061-0.257,0.034-0.368-0.043c-0.009,0-0.009,0-0.017-0.008c-0.043-0.009-0.077-0.035-0.111-0.061
				c-0.779-0.701-1.558-1.42-2.311-2.166c0.248-0.146,0.479-0.316,0.676-0.521c0.283-0.299,0.522-0.65,0.668-1.035
				c0.111-0.266,0.18-0.549,0.205-0.848c0.925,0.438,1.857,0.839,2.799,1.224c0.146,0.052,0.222,0.206,0.24,0.351
				C45.18,210.338,45.18,210.406,45.171,210.467z"/>
			<path fill="#5A7BCC" d="M69.41,204.244c0.068,0.223-0.026,0.463-0.249,0.547c-0.077,0.035-0.163,0.025-0.248,0.009
				c-1.755,0.249-3.569-0.077-5.136-0.925c-0.274-0.152-0.265-0.461-0.128-0.657c0.009-0.026,0.009-0.062,0.026-0.086
				c0.316-0.513,0.633-1.019,0.941-1.532c0.214,0.188,0.445,0.359,0.693,0.496c0.642,0.369,1.395,0.582,2.2,0.582
				c0.18,0,0.359-0.008,0.531-0.033c0.291-0.035,0.573-0.095,0.839-0.18C69.059,203.055,69.239,203.654,69.41,204.244z"/>
			<path fill="#5A7BCC" d="M67.364,234.012c0,0.068-0.009,0.137-0.034,0.206c-0.188,0.429-0.342,0.83-0.471,1.249
				c-0.249-0.128-0.514-0.23-0.788-0.316c-0.59-0.188-1.215-0.291-1.866-0.291c-0.762,0-1.49,0.138-2.166,0.402
				c-0.265,0.094-0.53,0.215-0.779,0.352c-0.265-0.41-0.539-0.813-0.83-1.198c-0.094-0.12-0.094-0.272-0.034-0.411
				c-0.008-0.18,0.103-0.333,0.266-0.419c2.011-1.026,4.458-1.053,6.504-0.11C67.407,233.584,67.441,233.823,67.364,234.012z"/>
			<path fill="#5A7BCC" d="M52.797,235.664c0.034,0.051,0.051,0.111,0.06,0.171c0.018,0.231-0.163,0.454-0.394,0.462
				c-0.65,0.043-1.292,0.104-1.943,0.182c-0.06-0.291-0.154-0.565-0.266-0.832c-0.394-0.924-1.07-1.711-1.917-2.241
				c-0.24-0.154-0.497-0.282-0.771-0.395c0.411-0.616,0.848-1.225,1.292-1.813c0.052-0.062,0.111-0.096,0.179-0.12
				c0.112-0.103,0.274-0.163,0.462-0.077C51.325,231.848,52.6,233.67,52.797,235.664z"/>
			<path fill="#5A7BCC" d="M47.756,224.538c-0.608-0.429-1.224-0.856-1.832-1.293c0.188-0.214,0.351-0.444,0.496-0.692
				c0.505-0.84,0.796-1.824,0.796-2.877c0-0.171-0.009-0.351-0.026-0.514c-0.026-0.291-0.068-0.573-0.146-0.848
				c0.693-0.103,1.387-0.196,2.071-0.299c0.155-0.019,0.3,0.067,0.385,0.188c0.111,0.068,0.188,0.188,0.223,0.324
				c0.393,2.013-0.052,4.093-1.173,5.796c-0.042,0.06-0.103,0.094-0.171,0.118c-0.009,0.019-0.009,0.026-0.017,0.043
				C48.209,224.684,47.943,224.666,47.756,224.538z"/>
			<path fill="#5A7BCC" d="M77.087,216.355c-0.933,0.557-1.875,1.086-2.824,1.592c0,0.008-0.009,0.008-0.009,0.008
				c-0.196,0.172-0.504,0.197-0.642-0.094c-0.958-2.088-1.214-4.426-0.727-6.676c0.042-0.207,0.188-0.291,0.351-0.301
				c0.077-0.025,0.162-0.033,0.249-0.017c1.019,0.239,2.028,0.479,3.038,0.71c-0.103,0.265-0.18,0.539-0.231,0.82
				c-0.12,0.582-0.137,1.199-0.042,1.824c0.078,0.496,0.222,0.959,0.419,1.387C76.788,215.876,76.924,216.124,77.087,216.355z"/>
			<path fill="#5A7BCC" d="M78.054,224.589c-0.496,0.806-0.779,1.755-0.779,2.765c0,0.43,0.051,0.849,0.154,1.25
				c0.06,0.282,0.154,0.558,0.257,0.813c-0.488,0.127-0.984,0.247-1.473,0.366c-0.163,0.044-0.316,0.01-0.428-0.084
				c-0.18-0.025-0.334-0.139-0.334-0.368c-0.025-1.14,0.061-2.276,0.275-3.39c0.196-1.027,0.444-2.123,1.121-2.944
				c0.24-0.291,0.616-0.128,0.736,0.138c0.325,0.266,0.642,0.521,0.976,0.762C78.371,224.109,78.2,224.341,78.054,224.589z"/>
		</g>
		<g>
			<g>
				<circle fill="#7690E2" cx="46.322" cy="260.793" r="9.104"/>
				<path fill="#7690E2" d="M45.754,255.335c-0.806-2.06-1.611-4.118-2.417-6.178c-0.188-0.48-0.706-0.847-1.236-0.658
					c-0.474,0.168-0.86,0.721-0.658,1.235c0.805,2.061,1.61,4.119,2.416,6.178c0.188,0.48,0.706,0.846,1.236,0.656
					C45.569,256.402,45.956,255.852,45.754,255.335z"/>
				<path fill="#7690E2" d="M40.961,258.159c-1.816-0.306-3.631-0.611-5.448-0.916c-0.509-0.085-1.09,0.133-1.219,0.688
					c-0.11,0.479,0.145,1.129,0.69,1.221c1.816,0.305,3.631,0.609,5.447,0.914c0.51,0.086,1.089-0.133,1.219-0.689
					C41.762,258.898,41.507,258.25,40.961,258.159z"/>
				<path fill="#7690E2" d="M41.632,264.2c-0.154-0.2-0.373-0.367-0.629-0.402c-0.281-0.038-0.503,0.032-0.75,0.166
					c-1.273,0.683-2.546,1.366-3.82,2.048c-0.203,0.109-0.362,0.415-0.401,0.631c-0.044,0.24,0.013,0.553,0.166,0.75
					c0.154,0.198,0.373,0.366,0.629,0.401c0.282,0.039,0.503-0.032,0.751-0.165c1.274-0.684,2.547-1.365,3.82-2.049
					c0.202-0.107,0.362-0.414,0.401-0.63C41.843,264.708,41.786,264.396,41.632,264.2z"/>
				<path fill="#7690E2" d="M43.692,267.171c-0.445-0.211-1.14-0.035-1.319,0.472c-0.804,2.276-1.011,2.681-1.815,4.955
					c-0.178,0.504-0.045,1.073,0.472,1.318c0.445,0.212,1.14,0.035,1.319-0.473c0.804-2.275,1.011-2.68,1.815-4.954
					C44.342,267.984,44.209,267.416,43.692,267.171z"/>
				<path fill="#7690E2" d="M50.313,270.902c-0.074-0.563-0.147-1.125-0.22-1.688c-0.033-0.259-0.147-0.502-0.35-0.672
					c-0.186-0.156-0.478-0.261-0.723-0.229c-0.254,0.033-0.511,0.142-0.672,0.351c-0.157,0.203-0.262,0.46-0.228,0.722l0.22,1.688
					c0.034,0.258,0.147,0.503,0.35,0.673c0.186,0.154,0.479,0.261,0.723,0.229c0.253-0.035,0.511-0.142,0.672-0.351
					C50.242,271.422,50.347,271.165,50.313,270.902z"/>
				<path fill="#7690E2" d="M56.352,268.221c-1.654-1.643-3.308-3.283-4.963-4.926c-0.367-0.363-1-0.466-1.398-0.077
					c-0.365,0.355-0.471,1.009-0.078,1.397c1.654,1.643,3.309,3.283,4.962,4.925c0.368,0.364,1,0.467,1.398,0.078
					C56.639,269.262,56.745,268.609,56.352,268.221z"/>
				<path fill="#7690E2" d="M57.4,261.543c-0.164-0.211-0.369-0.337-0.629-0.4c-0.783-0.195-1.566-0.393-2.349-0.588
					c-0.24-0.06-0.555,0.025-0.751,0.165c-0.194,0.14-0.368,0.39-0.401,0.63c-0.036,0.258,0.002,0.539,0.166,0.752
					c0.164,0.211,0.369,0.336,0.629,0.401c0.782,0.195,1.565,0.392,2.348,0.587c0.24,0.061,0.555-0.027,0.751-0.167
					c0.194-0.137,0.369-0.389,0.401-0.628C57.601,262.037,57.564,261.754,57.4,261.543z"/>
				<path fill="#7690E2" d="M59.378,256.743c-0.153-0.533-0.703-0.804-1.225-0.679c-2.22,0.531-4.439,1.063-6.659,1.594
					c-0.521,0.124-0.821,0.728-0.679,1.225c0.153,0.533,0.703,0.805,1.225,0.68c2.219-0.53,4.439-1.063,6.659-1.594
					C59.22,257.844,59.521,257.241,59.378,256.743z"/>
				<path fill="#7690E2" d="M54.006,251.671c-0.203-0.155-0.461-0.263-0.723-0.228c-0.086,0.021-0.173,0.037-0.259,0.058
					c-0.163,0.063-0.301,0.159-0.413,0.293l-1.904,1.911c-0.17,0.171-0.248,0.49-0.228,0.723c0.021,0.242,0.154,0.521,0.35,0.672
					c0.203,0.155,0.461,0.262,0.723,0.229c0.086-0.02,0.173-0.039,0.259-0.059c0.163-0.063,0.301-0.158,0.413-0.291l1.905-1.912
					c0.17-0.17,0.248-0.49,0.228-0.723C54.334,252.102,54.202,251.82,54.006,251.671z"/>
				<path fill="#7690E2" d="M49.385,248.411c-0.563-0.077-1.014,0.257-1.152,0.795c-0.506,1.959-1.011,3.918-1.517,5.878
					c-0.129,0.501,0.292,1.083,0.795,1.152c0.563,0.078,1.014-0.258,1.152-0.795c0.506-1.959,1.011-3.918,1.517-5.877
					C50.31,249.063,49.889,248.48,49.385,248.411z"/>
				<circle fill="#5A7BCC" cx="41.155" cy="273.229" r="2.167"/>
				<circle fill="#5A7BCC" cx="49.381" cy="272.219" r="1.816"/>
				<circle fill="#5A7BCC" cx="35.438" cy="267.889" r="2.477"/>
				<circle fill="#5A7BCC" cx="34.369" cy="258.065" r="2.282"/>
				<circle fill="#5A7BCC" cx="42.106" cy="248.582" r="2.354"/>
				<circle fill="#5A7BCC" cx="49.52" cy="248.176" r="2.55"/>
				<circle fill="#5A7BCC" cx="54.407" cy="251.395" r="1.99"/>
				<circle fill="#5A7BCC" cx="58.609" cy="262.338" r="2.419"/>
				<circle fill="#5A7BCC" cx="56.367" cy="269.562" r="2.527"/>
				<circle fill="#5A7BCC" cx="59.876" cy="256.621" r="2.527"/>
				<path fill="#7690E2" d="M35.772,251.905c-0.352,0.429-0.258,1.034,0.141,1.393c1.702,1.521,1.929,1.806,3.631,3.325
					c0.398,0.355,1.065,0.26,1.393-0.143c0.352-0.429,0.259-1.034-0.141-1.393c-1.702-1.52-1.928-1.806-3.63-3.326
					C36.766,251.407,36.099,251.504,35.772,251.905z"/>
				<circle fill="#5A7BCC" cx="35.387" cy="251.566" r="2.527"/>
			</g>
			<g>
				<circle fill="#5A7BCC" cx="41.156" cy="260.141" r="1.269"/>
				<circle fill="#5A7BCC" cx="44.6" cy="265.691" r="1.392"/>
				<circle fill="#5A7BCC" cx="47.033" cy="258.815" r="2.284"/>
				<circle fill="#5A7BCC" cx="51.048" cy="262.997" r="0.988"/>
				<circle fill="#5A7BCC" cx="49.367" cy="265.416" r="0.38"/>
				<circle fill="#5A7BCC" cx="43.694" cy="255.073" r="0.871"/>
				<circle fill="#5A7BCC" cx="51.101" cy="256.485" r="1.151"/>
			</g>
		</g>
		<g>
			<g>
				<circle fill="#7690E2" cx="18.561" cy="233.027" r="7.658"/>
				<path fill="#7690E2" d="M18.083,228.438c-0.678-1.733-1.355-3.465-2.032-5.196c-0.159-0.404-0.593-0.711-1.04-0.554
					c-0.398,0.142-0.723,0.604-0.554,1.041c0.678,1.73,1.355,3.463,2.033,5.194c0.158,0.403,0.593,0.71,1.04,0.554
					C17.928,229.335,18.253,228.87,18.083,228.438z"/>
				<path fill="#7690E2" d="M14.052,230.813c-1.527-0.258-3.055-0.514-4.582-0.771c-0.429-0.072-0.917,0.11-1.025,0.58
					c-0.093,0.401,0.122,0.948,0.58,1.024c1.527,0.258,3.055,0.515,4.583,0.77c0.429,0.072,0.917-0.111,1.025-0.579
					C14.725,231.436,14.51,230.889,14.052,230.813z"/>
				<path fill="#7690E2" d="M14.616,235.893c-0.129-0.168-0.313-0.309-0.529-0.338c-0.237-0.031-0.423,0.027-0.632,0.141
					c-1.071,0.574-2.142,1.147-3.213,1.723c-0.17,0.092-0.304,0.35-0.337,0.53c-0.037,0.202,0.01,0.464,0.14,0.631
					s0.313,0.308,0.529,0.338c0.237,0.032,0.423-0.026,0.632-0.142c1.071-0.572,2.142-1.146,3.212-1.723
					c0.171-0.09,0.305-0.347,0.338-0.527C14.793,236.32,14.745,236.059,14.616,235.893z"/>
				<path fill="#7690E2" d="M16.348,238.393c-0.374-0.178-0.958-0.029-1.109,0.396c-0.676,1.915-0.851,2.255-1.527,4.168
					c-0.15,0.425-0.039,0.903,0.397,1.108c0.374,0.179,0.958,0.029,1.108-0.396c0.676-1.913,0.851-2.253,1.527-4.168
					C16.895,239.077,16.784,238.598,16.348,238.393z"/>
				<path fill="#7690E2" d="M21.918,241.53c-0.062-0.474-0.124-0.946-0.185-1.419c-0.028-0.219-0.124-0.422-0.294-0.565
					c-0.156-0.132-0.401-0.22-0.607-0.19c-0.214,0.027-0.43,0.117-0.565,0.295c-0.132,0.17-0.22,0.386-0.191,0.606l0.185,1.42
					c0.028,0.218,0.124,0.423,0.294,0.564c0.157,0.131,0.402,0.219,0.608,0.192c0.214-0.029,0.43-0.119,0.565-0.295
					C21.857,241.968,21.946,241.751,21.918,241.53z"/>
				<path fill="#7690E2" d="M26.998,239.273c-1.392-1.381-2.783-2.762-4.175-4.143c-0.309-0.306-0.841-0.393-1.176-0.064
					c-0.307,0.301-0.396,0.849-0.065,1.176c1.391,1.381,2.783,2.761,4.174,4.143c0.309,0.307,0.841,0.393,1.176,0.065
					C27.239,240.15,27.328,239.604,26.998,239.273z"/>
				<path fill="#7690E2" d="M27.878,233.658c-0.138-0.178-0.31-0.283-0.529-0.34c-0.659-0.162-1.317-0.327-1.976-0.491
					c-0.202-0.052-0.466,0.021-0.632,0.14c-0.164,0.114-0.31,0.326-0.337,0.528c-0.03,0.216,0.001,0.454,0.139,0.632
					s0.31,0.283,0.529,0.337c0.658,0.166,1.316,0.331,1.975,0.494c0.202,0.052,0.466-0.021,0.632-0.14
					c0.164-0.114,0.31-0.327,0.338-0.529C28.048,234.073,28.017,233.836,27.878,233.658z"/>
				<path fill="#7690E2" d="M29.542,229.621c-0.128-0.449-0.591-0.676-1.03-0.571c-1.867,0.447-3.734,0.894-5.601,1.341
					c-0.438,0.104-0.691,0.612-0.571,1.03c0.128,0.449,0.592,0.677,1.03,0.571c1.867-0.448,3.734-0.895,5.601-1.342
					C29.409,230.547,29.663,230.04,29.542,229.621z"/>
				<path fill="#7690E2" d="M25.024,225.354c-0.171-0.131-0.388-0.221-0.608-0.19c-0.073,0.017-0.146,0.032-0.218,0.049
					c-0.137,0.054-0.252,0.134-0.347,0.245l-1.602,1.607c-0.143,0.144-0.208,0.414-0.191,0.607c0.018,0.203,0.129,0.439,0.294,0.564
					c0.17,0.133,0.388,0.222,0.607,0.191c0.073-0.016,0.146-0.033,0.218-0.049c0.138-0.051,0.253-0.133,0.348-0.245l1.602-1.606
					c0.143-0.146,0.208-0.414,0.191-0.608C25.3,225.717,25.188,225.48,25.024,225.354z"/>
				<path fill="#7690E2" d="M21.137,222.613c-0.474-0.066-0.853,0.217-0.97,0.669c-0.425,1.646-0.85,3.295-1.275,4.942
					c-0.109,0.422,0.245,0.911,0.669,0.969c0.473,0.065,0.853-0.217,0.97-0.668c0.425-1.647,0.85-3.297,1.275-4.942
					C21.915,223.16,21.561,222.671,21.137,222.613z"/>
				<circle fill="#5A7BCC" cx="14.215" cy="243.487" r="1.823"/>
				<circle fill="#5A7BCC" cx="21.134" cy="242.638" r="1.528"/>
				<circle fill="#5A7BCC" cx="9.406" cy="238.996" r="2.083"/>
				<circle fill="#5A7BCC" cx="8.507" cy="230.732" r="1.92"/>
				<circle fill="#5A7BCC" cx="15.015" cy="222.756" r="1.98"/>
				<circle fill="#5A7BCC" cx="21.25" cy="222.415" r="2.146"/>
				<circle fill="#5A7BCC" cx="25.361" cy="225.122" r="1.674"/>
				<circle fill="#5A7BCC" cx="28.895" cy="234.326" r="2.035"/>
				<circle fill="#5A7BCC" cx="27.01" cy="240.403" r="2.126"/>
				<circle fill="#5A7BCC" cx="29.961" cy="229.519" r="2.126"/>
				<path fill="#7690E2" d="M9.687,225.551c-0.295,0.361-0.217,0.871,0.119,1.172c1.432,1.278,1.622,1.52,3.054,2.799
					c0.335,0.299,0.896,0.218,1.172-0.121c0.295-0.359,0.218-0.869-0.119-1.17c-1.431-1.279-1.622-1.52-3.054-2.799
					C10.523,225.132,9.962,225.214,9.687,225.551z"/>
				<circle fill="#5A7BCC" cx="9.363" cy="225.268" r="2.125"/>
			</g>
			<g>
				<circle fill="#5A7BCC" cx="14.215" cy="232.479" r="1.068"/>
				<circle fill="#5A7BCC" cx="17.112" cy="237.147" r="1.171"/>
				<circle fill="#5A7BCC" cx="19.158" cy="231.364" r="1.921"/>
				<circle fill="#5A7BCC" cx="22.535" cy="234.88" r="0.831"/>
				<circle fill="#5A7BCC" cx="21.122" cy="236.916" r="0.32"/>
				<circle fill="#5A7BCC" cx="16.35" cy="228.216" r="0.733"/>
				<circle fill="#5A7BCC" cx="22.58" cy="229.403" r="0.968"/>
			</g>
		</g>
	</g>
</g>
<path opacity="0.1" fill="#92AEFC" enable-background="new    " d="M546.794,187.725c1.389,3.576,3.211,6.986,5.435,10.146
	c-0.008,0.007-0.008,0.014-0.016,0.02c-0.825,1.267-1.685,2.512-2.558,3.741c-5.125-3.121-11.92-2.138-15.909,2.608
	c-4.401,5.232-3.729,13.053,1.521,17.461c5.228,4.402,13.047,3.729,17.455-1.52c3.591-4.299,3.791-10.339,0.854-14.793
	c1.121-0.613,2.257-1.186,3.412-1.742h0.007c4.409,4.555,9.794,8.303,15.998,10.875c0,0.006-0.007,0.006-0.007,0.013
	c-0.24,0.422-0.454,0.875-0.642,1.356c-2.504,6.36,0.62,13.541,6.975,16.039c6.349,2.494,13.521-0.634,16.024-6.996
	c0.902-2.289,1.074-4.697,0.606-6.944c6.217-0.606,12.234-2.423,17.711-5.306c2.868,2.76,5.659,5.606,8.377,8.522
	c-0.847,0.922-1.534,2.021-2.023,3.267c-2.18,5.536,0.537,11.788,6.089,13.978c5.528,2.172,11.794-0.558,13.968-6.089
	c2.174-5.535-0.55-11.793-6.087-13.975c-3.261-1.279-6.769-0.867-9.539,0.831c-2.016-3.144-3.886-6.368-5.592-9.696
	c3.639-2.547,6.945-5.612,9.794-9.154l0.014,0.006c1.226,0.503,2.436,0.999,3.659,1.493c-0.187,1.836,0.858,3.632,2.653,4.333
	c2.175,0.859,4.631-0.215,5.482-2.387c0.854-2.174-0.214-4.629-2.388-5.48c-1.679-0.661-3.521-0.165-4.677,1.079
	c-0.889-0.604-1.755-1.244-2.628-1.886c2.037-2.957,3.771-6.188,5.14-9.67c1.195-3.054,2.063-6.148,2.604-9.266
	c2.037-0.068,4.072-0.074,6.103-0.056c0.392,2.854,2.281,5.428,5.165,6.557c4.236,1.671,9.052-0.428,10.716-4.664
	c1.672-4.258-0.427-9.059-4.671-10.723c-4.25-1.672-9.044,0.412-10.716,4.671c-0.109,0.268-0.198,0.549-0.281,0.813
	c-1.919-0.373-3.816-0.75-5.736-1.115c1.28-16.327-5.963-32.346-19.175-42.146c4.759-0.468,9.113-3.542,10.982-8.309
	c2.677-6.802-0.659-14.478-7.454-17.153c-6.803-2.676-14.484,0.674-17.16,7.476c-1.492,3.79-1.106,7.861,0.715,11.183
	c-8.445-2.93-17.208-3.342-25.427-1.609c-0.676-1.196-1.376-2.387-2.069-3.563l-0.132-0.179c1.603-1.162,2.89-2.799,3.666-4.766
	c2.201-5.598-0.557-11.926-6.155-14.127s-11.912,0.564-14.113,6.163c-2.2,5.599,0.543,11.919,6.143,14.12
	c1.101,0.433,2.229,0.674,3.336,0.722l-0.007,0.166c0.289,1.362,0.569,2.717,0.887,4.071c-6.781,2.799-12.916,7.139-17.834,12.786
	c-0.963-1.3-2.269-2.324-3.887-2.964c-4.655-1.829-9.896,0.468-11.72,5.111c-1.828,4.649,0.447,9.89,5.104,11.72
	c0.626,0.24,1.259,0.42,1.891,0.502c-2.447,6.396-3.425,13-3.102,19.431c-0.007,0-0.007-0.008-0.013-0.008
	c-0.345-0.205-0.724-0.378-1.122-0.536c-5.228-2.057-11.114,0.51-13.164,5.724c-2.058,5.232,0.509,11.114,5.734,13.171
	c4.32,1.697,9.106,0.233,11.776-3.314C546.794,187.73,546.794,187.73,546.794,187.725z"/>
<g opacity="0.2">
	<g>
		<g>
			<path fill="#8DDFFF" d="M232.536,235.289c-0.131-0.516-1.675-0.469-1.008-1.307c-0.498-0.933-0.742,0.127-0.799-0.991
				c-0.277,0.104-0.675,0.263-0.646-0.431c0.199-0.148,0.007-0.506-0.298-0.598c-0.023-0.678-0.863-0.181-1.114,0.055
				c-0.153-0.051-0.476-1.507,0.208-0.733c1.071-0.396-0.87-1.474,0.18-0.343c-0.613-0.465-1.292,0.129-1.113-0.614
				c0.883-0.108,0.083-1.649,0.186-0.454c-0.614,0.343-0.51-0.631-0.448,0.756c-2.092-2.168,0.92-0.463-0.351-2.175
				c0.569,1.326-2.387,0.133-2.146-0.613c-0.51-0.108-4.617-0.351-3.669-0.649c-0.518-0.5-1.659-0.644-1.1,0.522
				c-0.687-0.228-2.464,1.275-1.804,0.354c-0.859-1.166,1.609-1.066,0.387-1.518c-2.028,1.575-2.622,4.561-5.922,4.879
				c-1.061,1.194-0.676-0.613,0.464-0.228c1.155-0.544,3.003-3.521,0.925-2.213c-1.62-1.107-1.213,1.077-1.825-1.417
				c-1.164,1.138-1.388-0.723-2.077-1.383c0.816-0.254,0.6-1.736,1.62-1.051c0.345-0.679,1.658-0.209,1.037-1.373
				c0.524-1.154-1.268,1.108-3.624-0.961c1.384-1.479,2.272-0.233,4.041-0.852c-1.055-0.408-1.852-1.194-3.124-1.909
				c2.475-1.285,0.849-1.267,3.21-2.114c0.112,0.094,0.574,0.219,0.208-0.229c0.344,0.045,2.793-1.167,2.141-0.296
				c1.776,0.059,4.098,0.813,6.457,0.979c0.994-0.493,4.893,1.869,4.545,0.847c0.019-0.231,1.077-0.729,1.062-0.263
				c2.405-0.948,2.808-1.059,0.316,0.584c0.508,0.23,0.614-0.707,1.218-0.646c0.487,0.339,0.643-0.707,1.177-0.27
				c0.676-0.173,0.313-1.664,1.087-0.423c0.58,1.123,0.537,0.896,1.314-0.032c0.108,1.696,0.846-0.088,1.876,0.438
				c1.888,1.188,5.07,0.431,3.175,1.797c0.708,0.774,4.121-0.8,3.778,0.974c0.169,0.291,0.395,0.032,0.576-0.123
				c-1.094-1.353,0.996-1.015,0.542-1.482c-2.134,0.956-1.259-0.475,0.374-0.327c0.652,1.47,3.702,1.345,4.296,0.278
				c0.008-0.422-1.702-0.278-0.464-0.725c0.438-0.912,0.179-0.496,1.711-0.08c-0.536,0.002-0.731,0.209,0.108,0.211
				c0.936,0.823-2.511,0.537-0.511,0.987c-0.698,2.589,2.435-1.885,0.887-0.532c0.682-1.416-1.872-0.613-0.944-2.713
				c0.949,0.178,0.255-1.544,0.29-2.475c1.51-1.777,4.258,0.943,0.982,1.037c-0.539,2.076,0.244,0.139,0.422,1.955
				c0.104,0.062,1.333,0.725,0.556,0.795c-0.652,0.814,1.488,0.227,0.65,0.953c0.291,2.229,0.584-1.676,1.588,0.763
				c-0.677,0.91,0.938,1.992,0.68,0.128c0.392,0.991,0.299-0.504,0.813-0.493c-0.768-1.737,1.53-1.011,1.908-0.159
				c-0.841,1.293,1.069,1.375-1.044,2.463c-1.631-1.178,1.037,0.494-1.674-0.033c0.727,1.613-1.23,0.509-1.754,0.594
				c3.245,1.289-0.076,2.082-2.022,1.637c0.215,0.311,2.91,0.822,0.711,1.113c-3.572,3.926,1.145,5.281,5.407,6.604
				c-0.06,1.756,0.048,1.918,1.321,2.993c0.893-0.458,0.743-1.495,0.157-2.843c2.189-0.523,1.698-2.146,0.678-3.391
				c0.263-0.533,0.832-0.726,0.153-1.7c0.243-1.267-0.114-1.722,1.787-1.112c1.004-0.668,1.521,1.057,2.544,1.143
				c0.556-0.217,0.121,0.213,0.251,1.217c0.909,1.625,2.319,0.742,2.717-0.879c0.242,0.791,2.603,3.07,1.175,3.207
				c2.095,2.305,3.938,0.648,1.325,2.584c1.082-0.688,1.57-0.5,2.412,0.151c-0.676,3.355-6.73,1.021-8.282,4.582
				c2.643-2.366,4.737-1.577,2.854-0.493c0.011,0.353,0.781-0.414,0.333,0.44c0.811,2.325,2.339,0.062,2.519,0.589
				c0.797,0.494-1.449,1.079-2.066,1.389c-0.884,1.34-1.946-0.313,0.172-0.646c-0.575-0.413-3.386,0.398-3.897,2.031
				c0.299,0.175,0.245,0.77-0.34,0.449c-0.229,0.347-1.879,0.58-0.351,0.475c-1.279,0.328-1.092,1.574-1.738,1.174
				c0.053,0.376,0.171,0.902-0.281,1.286c-0.239-3.11-0.81,0.354,0.203,0.958c-4.895,3.822-2.419,2.341-2.738,6.822
				c-1.413-0.187-0.781-4.063-2.446-2.803c-0.379-0.75-3.19-0.843-2.131,0.313c-1.67-0.529-3.701-0.825-4.668,1.419
				c0.132,2.277-0.143,5.844,3.317,5.001c1.137-1.138-0.063-2.021,2.521-1.758c-0.908,3.963-1.966,2.745,1.973,3.694
				c-0.811,5.773,1.196,2.014,3.374,4.082c1.107-1.021,0.612-1.519,1.265-1.701c0.273,0.252,2.815-1.483,1.594-0.27
				c-0.056,0.441-0.231,2.051,0.419,1.211c-0.543-0.89,0.702-1.816,1.51-0.998c0.491,1.1,2.446,0.209,3.273,0.366
				c-0.514,0.435,2.163,1.522,2.83,2.646c2.74-0.317,4.422,1.865,3.36,3.933c0.23-1.114,2.144-0.218,0.83,0.53
				c0.207,0.379,0.314-0.288,0.685-0.229c-0.099-1.01,2.656,0.091,1.945,0.9c3.984-1.042,7.624,3.284,3.104,5.567
				c0.371,4.297-1.146,5.61-5.191,7.479c-0.141,1.407-0.448,2.774-1.669,3.849c0.629-2.109-0.767,1.447-1.57,1.985
				c-0.579,0.597-3.764-0.897-1.604,0.478c1.25,2.769-3.447,1.944-2.713,2.815c-0.421,2.423-2.029-0.604-1.533,1.683
				c0.173,0.24,1.285-0.044,0.47,0.512c-0.555-0.424-0.524,0.696-0.919,1.479c-1.108,0.18-1.449,1.309-0.015,1.568
				c-0.206,1.459-2.609,2.117-1.552,3.84c-1.042-0.458,0.866,1.896,1.828,1.885c-1.004,0.393-2.395,0.896-2.719-0.003
				c-0.462,0.87-0.097-0.244-0.848-0.074c0.049-0.272,0.247-0.77,0.62-0.315c-0.173-1.291,0.521,0.727,0.31-0.392
				c0.922-0.614-1.015,0.185,0.123-0.88c-1.192,0.072-0.007,0.885-1.32,0.994c0.589,0.449-0.844,0.182-0.802-0.322
				c0.281,0.111,1.49-0.146,1.256-0.523c-0.959,0.496-1.552,0.146-0.118-0.176c-0.189-0.55-0.951,0.297-1.207-0.026
				c0.158-0.457,1.45-0.47-0.149-0.617c0.512-0.446,0.096-0.438-0.435-0.312c0.149-0.246,0.768-2.348,0.197-1.096
				c-0.107,0.057-0.15,0.02-0.267-0.121c-0.501-0.334,0.64-0.522,0.382-0.951c-0.24,0.137-0.439,0.459-0.633-0.037
				c0.159-0.365,0.47-0.07,0.71-0.312c-0.539-0.208,0.742-0.976-0.697-0.813c0.14-0.301,0.343-0.945,0.885-0.961
				c-0.129,1.399,1.054-2.146,0.498-2.752c-0.527,0.145,0.008,1.367-0.701,1.205c-0.021-0.291-0.049-0.793,0.319-1.043
				c-0.343-2.291,1.703-5.888,1.136-8.336c3.225-6.107-3.327-9.09-5.014-13.751c-0.533-1.495,0.397-0.878,0.53-1.649
				c-1.69-0.868,1.048-2.688,1.514-3.748c-0.115-1.126-0.796-4.68-1.891-1.94c-2.019-1.187-2.643-1.538-3.752-3.569
				c-1.55,0.345-2.635-1.388-4.042-1.646c-0.991,0.5-1.615-0.146-2.591-0.456c-1.024-0.631-2.276-0.756-2.997-1.805
				c-0.219-3.975-3.798-3.752-4.11-6.855c-3.413-1.508,4.868,7.656,0.449,3.887c0.464-1.008-1.06-1.01-1.361-1.697
				c1.241-0.266-0.569-0.953-0.617-1.654c-1.295-2.998-2.93-2.656-4.297-5.563c-0.778-3.312,1.192-6.239-2.49-8.256
				c1.067-0.33,1.772,1.006,2.857,1.414C234.554,239.391,234.856,235.186,232.536,235.289z M253.217,239.271
				c0.35,0-0.7,3.377,0.729,1.726c-0.317-2.304,2.128-3.267,1.409-0.845c0.41-0.272,0.69-0.252,0.671,0.496
				c0.7-0.441,0.171-1.604,1.437-1.246C257.269,237.811,253.865,238.262,253.217,239.271z M252.919,237.766
				c2.067,1.271,2.691-0.691,0.346-1.355c-1.65,0.396-3.902,2.652-0.346,1.109C252.919,237.589,252.919,237.659,252.919,237.766z
				 M234.457,222.588c-0.084,0.1-0.191,0.152-0.403,0.497c0.491,0.665,1.96-1.575,1.061,0.228c0.191-0.164,2.763-1.437,1.704-1.563
				c-1.247,0.719-0.769-1.157-3.431,0.422C234.148,222.257,235.698,221.521,234.457,222.588z M237.475,226.688
				c0.624,0.887,4.639-1.498,3.411-1.418c-2.443,1.473-1.022-0.262-2.708,0.154C238.97,225.859,238.083,226.451,237.475,226.688z
				 M248.552,234.826c-0.082-0.471-0.968-3.346-1.439-1.747C247.219,233.432,248.657,235.814,248.552,234.826z M256.001,241.229
				c-0.954-0.715-0.562,1.767,1.837-0.496C257.281,240.973,256.588,240.591,256.001,241.229z M257.898,240.432
				c0.25,0.058,2.307-0.309,1.288-0.672C258.941,239.768,256.793,240.073,257.898,240.432z M260.823,296.646
				c0.067-0.225,0.031-0.252-0.241-0.222C260.664,296.501,260.729,296.563,260.823,296.646z"/>
			<path fill="#8DDFFF" d="M284.358,201.825c7.525,1.692,3.679,1.626-1.123,2.651c1.094,0.142,2.75-0.732,3.979-0.186
				c-3.215,2.23,2.192-1.402,1.806,0.294c-0.247,0.458-0.789,0.765-1.051,1.34c2.629-2.448,10.567-1.624,2.881,0.118
				c0.313,0.184,0.885-0.113,1.317,0.223c-0.422,0.475-1.911-0.039-2.136,0.715c0.341,0.188,0.95-0.604,1.347-0.039
				c0.185,0.367-0.688,0.137-0.925,0.478c-0.106,1.205-0.81,0.322-1.021,1.313c0,0.363-0.135,0.617-0.402,0.947
				c0.17,0.303,1.033-0.816,1.578,0.117c-0.996-0.172-0.932,0.631,0.251,0.348c1.559,1.17-2.302,0.084-1.801,0.932
				c4.345,1.645-1.689,1.538,1.6,2.305c0.146,0.688-0.87,0.155-1.438,0.432c0.119,0.299,1.762,0.863-0.351,0.992
				c-0.237,0.088-1.23-0.824-1.007,0.019c-1.511,0.776,0.759,0.188,1.229,0.396c0.256,1.458-2.444-0.377,0.151,1.785
				c0.01,2.659-2.464-1.443-2.089,0.631c-1.302,0.438,1.188,0.682,1.895,0.537c-1.404,1.689-4.587,1.332-5.777,2.477
				c-1.425,1.638-0.905,1.271-2.704,1.772c-0.198-0.226-0.011-1.058-0.465,0.054c-0.201,0.157-0.563,0.049-0.839,0.313
				c0.199,0.934-0.965-0.473-0.176,0.85c-0.581,0.439-0.066,1.479-1.284,1.678c0.542,2.925-0.876,2.235-2.937,1.504
				c-0.694-0.767-3.578-4.84-2.583-5.303c-0.299-0.348-0.96-0.259-0.262-1.104c0.302-0.635,0.133-0.758,1.086-0.656
				c1.002-1.261-0.586-1.429-1.617-2.132c2.794-0.163,1.44,0.59,0.531-1.187c-0.469-0.235-1.163,1.235-1.233-0.568
				c0.569-0.538,0.275-0.33,0.009-1.098c-2.261-5.567-5.66-1.586-8.607-4.313c0.173-0.358,4.015,0.026,2.323-0.753
				c-4.512,0.388-2.803-1.696,0.681-1.912c1.277-1.348,0.038-0.861-0.913-1.225c2.522-2.652,4.25-0.053,3.315-2.137
				c0.431-0.632,2.246,0.539,1.473-0.363c0.782-0.326,3.296-1.166,2.684,0.705c0.205,0.158,0.491-0.271,0.441-0.563
				c-0.37-1.472,0.977,0.458,1.801-0.037c-1.897-1.945,1.932,0.116,2.798,0.314c-3.131-2.067,0.506-0.74-1.123-1.832
				C278.995,202.354,280.934,202.014,284.358,201.825z"/>
			<path fill="#8DDFFF" d="M404.202,225.081c-0.448,0.183-1.051-0.06-1.611-0.243C402.972,224.616,403.996,224.549,404.202,225.081z
				"/>
			<path fill="#8DDFFF" d="M403.017,222.801c-1.475-0.127-0.168,0.586-1.06,0.826c0.658,0.771-1.091,0.168-1.434-0.186
				c-0.881-1.161-1.466-0.133-1.97-1.281c-0.37,0.564-0.181,1.699-1.612,1.51c-0.389-0.754-1.494,0.114-0.278-0.034
				c0.612,0.609,2.104,2.714-0.128,1.808c-2.307,2.008-4.938,1.771-6.684,2.469c-0.604-0.622-2.51,1.872-0.983,1.775
				c-0.051,0.25-0.394,0.377-0.294,0.78c1.098,0.636-0.943,0.257-0.354,1.345c0.11,0.871-1.543,0.191-1.137,1.44
				c-0.969,0.06-0.813,1.358-1.7,1.774c-2.37-4.498,2.324-6.676,4.544-9.383c-0.874-0.896-2.021,2.097-2.589,1.284
				c-0.881-0.386,0.715-0.645-0.645-0.823c-0.619-0.023-3.47,1.602-2.258,2.232c-3.105,1.096-0.479-1.061-4.927,0.135
				c-1.016-1.555-7.44,4.359-5.091,3.704c-0.003,0.563,0.021,0.718,0.491,0.208c3.871,0.358,1.2,5.122-1.332,7.869
				c-1.008,1.074-2.809-0.234-3.088,1.914c-2.549,1.707-0.22,0.527,0.048,3.377c-0.227,0.446-2.521,1.575-1.619-0.057
				c-0.064-2.455-0.449-0.463-1.098-1.594c1.124-1.653-1.08-0.815-1.869-0.291c-0.229-0.42,1.636-2.438-1.018-0.683
				c-0.432,0.522-1.92,0.935-0.248,1.147c0.016,0.959,0.342,0.638,1.002,0.095c2.614,1.095-2.939,0.403,0.552,3.933
				c-1.01-0.154-0.616-0.021,0.015,0.563c-0.57,0.375-0.813,0.461,0.134,0.579c-0.402,0.641-0.472,1.605-1.355,1.978
				c0.017,2.67-4.107,2.065-5.154,3.877c-0.374-1.28-1.623-0.768-2.357,0.476c-0.078,2.047,2.139,1.563,1.874,4.132
				c-0.104,1.29-1.095,0.684-2.138,2.053c-0.677,0.521,0.002-0.733-0.577-0.916c-0.685,0.079-1.489-2.054-2.357-1.442
				c-1.278,3.373,1.995,3.323,2.236,6.736c-4.077-2.339-2.12-5.846-3.937-9.201c-0.265,0.368-0.733,1.11-1.294,0.514
				c0.57-1.397-1.006-2.693-1.506-3.813c-0.667,1.066-2.041,0.055-2.195,1.443c-4.591,4.267-2.827,1.503-3.63,5.816
				c-2.274,3.902-3.569-5.007-3.875-6.873c-0.58,1.262-1.228,0.969-1.835-0.127c1.316-0.416,0.295,0.043-0.549-0.865
				c-0.601-0.092-0.458-0.838-0.986-1.08c-3.269,0.315-7.128,0.044-8.945-2.924c-1.754-0.207-0.823,1.404,0.006,2.231
				c0.082,0.228-0.034,0.701,0.324,0.917c0.729-1.637,0.029,2.885,3.098-0.693c0.711,2.965,3.029,0.823,0.726,4.356
				c-9.974,6.94-7.213,1.636-12.47-6.14c-0.497,1.496-0.693,0.136-1.197-0.66c0.729,2.738,2.729,5.918,3.638,8.472
				c0.399,0.812,2.946,1.882,1.846,2.618c1.035,1.195,2.865,0.27,4.28-0.188c1.843,3.209-7.599,7.931-6.111,10.74
				c0.376,3.678,1.72,4.942-1.876,6.961c-1.377,0.768-0.234,1.32-0.345,2.502c-1.303,2.163-2.783,5.856-5.291,6.762
				c-2.627-0.049-3.345,1.414-3.965-0.723c-0.312-4.154-4.722-8.652-1.964-12.792c-0.538-5.448-2.799-3.934-2.353-7.348
				c0.577-0.636,0.329-1.513-0.461-1.953c-2.594,0.532-0.81-0.558-2.488-0.937c-3.039,0.302-7.856,2.478-9.451-1.645
				c-2.691-1.832-1.17-4.506-1.92-7.221c2.536-5.971,3.951-3.178,3.86-6.178c0.279-0.325,0.359-0.896,0.784-1.092
				c1.276-0.048,0.894-1.908,1.719-1.485c0.53,0.553,0.882,0.112,1.705,0.407c1.347-1.052,6.967-2.262,6.868-0.703
				c1.003,0.772-1.219,1.593,0.235,1.519c0.337,0.901,1.354,0.414,2.133,0.875c0.192,0.144,0.187,0.674,0.601,0.644
				c3.644,1.387,0.513-0.549,2.855-0.992c3.165,1.33,7.798,2.378,7.688-2.514c-1.986,0.109-5.082,1.154-5.062-1.885
				c-0.837-0.492,3.586-1.646,4.443-1.546c3.996,1.737,4.414-0.621,1.06-2.34c3.265-2.36-3.396-0.701-0.195-0.011
				c-0.768,0.621-2.876,0.238-1.505-0.559c-0.091-0.331-1.078,0.141-0.82-0.472c-1.235-0.103-3.312,2.886-1.798,3.892
				c-0.8,0.598-2.653-0.308-2.718,0.574c-0.455,0.229-1.188-0.673-0.282,0.785c-0.068,0.063-0.138,0.123-0.201,0.184
				c0.482,0.178,1.269,0.445,0.03,0.656c0.664,0.25-0.273,0.214,0,0.837c-0.569-0.004-1.468-1.315-0.385-1.144
				c-0.555-0.286-2.039-1.078-1.374-2.291c-1.261-0.758-2.336-1.901-3.356-2.715c-1.618,1.277,2.476,2.926,2.628,3.938
				c-0.342-0.346-1.282-0.357-0.573,0.404c-0.162,0.064-0.634,1.334-0.673,0.589c0.55-1.341-1.25-1.603-2.019-2.437
				c-0.791-0.388-0.75-1.756-1.72-1.537c-2.057,1.627-1.396,0.229-2.847,0.729c-0.392,0.349,0.156,0.981-0.582,1.201
				c-2.82,1.813-0.803,4.506-6.111,2.856c-0.004-0.932-0.43-1.412,0.061-2.504c0.254-0.998-0.709-1.479,0.1-1.625
				c2.341-0.826,4.415,1.569,4.078-2.033c-0.488-0.786-1.755-0.832-2.007-1.657c0.311-0.642,2.289,0.69,1.588-0.683
				c0.58-0.541,0.268,0.596,1.749-0.399c0.305-0.124,0.027-0.69,0.411-0.778c2.16-1.17,1.046-1.814,3.787-2.143
				c-0.236-0.936-1.092-2.426,0.091-2.69c1.313-1.063,0.076,0.211,0.886,0.718c-0.854,0.361-0.188,0.477-0.1,0.957
				c-1.392-0.06,0.264,1.344,1.559,0.387c-0.032,1.25,1.645-0.315,2.45-0.205c0.314,0.688,0.429,0.199,0.861-0.043
				c1.142,0.527-0.15-2.199,1.254-2.375c0.604,0.771,0.874,1.014,1.108-0.338c-2.021-1.308,2.099-1.026,2.873-1.518
				c-1.063-1.211-2.69,0.551-4.033-0.29c-1.564-1.146,0.104-3.202,1.573-4.151c0.047-1.221-1.896-0.981-2.13,0.107
				c0.676,1.156-2.587,1.061-2.098,3.748c2.333,0.686-1.354,1.984-0.149,3.057c-1.957,2.541-2.232,0.293-3.3-2.07
				c-0.51,0.71-1.917,1.912-2.745,0.627c0.996-0.863-0.717,0.006-0.1-0.956c0.162,0.51,1.135-0.771,0.232-0.115
				c-0.906-0.491-0.336-2.347,0.938-2.205c-0.479-0.153,1.566-1.536,2.205-1.733c-0.931-0.49,4.436-4.978,1.38-3.52
				c0.143-0.42,0.552-0.645,0.904-1.051c-0.39,0.922,1.549,0.211,0.424,0.135c0.076-0.621,0.701-0.304,1.08-0.674
				c-0.136-0.831,0.506-0.059,0.742-0.121c0.094,0.471,0.488,0.172,0.1-0.205c0.127-0.264,0.27,0.256,0.599,0.088
				c-0.321-0.345,0.113-0.215,0.453-0.229c-0.5-0.502,0.118-0.391,0.458-0.663c0.132,0.286-0.671,0.397-0.123,0.892
				c0.232-0.191,0.014-0.896,0.675-0.619c0.01-0.303,0.614-0.541,0.954-0.428c-1.589,2.01,0.472-0.554,0.307,0.627
				c0.366-0.468,0.945-1.313,0.844-0.046c0.387-1.103,2.435,0.585,0.53,0.381c0.571,0.804,1.294-0.038,2.076,0.451
				c-1.306,0.7,0.943-0.569,4.294,2.09c0.443,2.362-3.785,1.019-4.814,0.392c1.683,1.901,1.083-0.123,1.527,2.607
				c0.901,0.492,2.373,0.825,0.814-0.374c0.02-1.067,2.396,1.076,2.049-0.106c-0.807-0.916,1.401-1.805,2.065-1.135
				c0.257-0.276,0.089-2.025-0.276-2.377c0.891-0.139,2.554,0.584,0.911,0.954c-0.295,0.827,1.509,1.283,1.47,0.117
				c0.742-0.415,4.322-1.979,2.999-0.737c0.409,0.518,1.586-0.496,2.206-0.242c0.851-0.765,0.857-0.058,1.403,0.196
				c0.739-0.588,0.632-1.171-0.565-1.605c0.45-1.282,4.931,2.317,5.6,1.216c-3.864-2.29,3.594-6.784,1.616-2.668
				c1.085,0.646-0.317,2.156,0.846,3c-0.213,0.633-0.68,1.064-1.122,1.689c-0.766,0.166-2.862-0.111,0.429,0.441
				c0.64-0.854,1.657-0.984,1.309-2.379c1.603-1.089,0.913,1.322,2.055,1.181c-0.014-0.218-0.895-0.271-0.282-0.735
				c-0.216-2.079-3.404,0.662-1.962-2.32c-0.914-0.996-0.344-1.071,0.359-1.813c0.263-1.424,0.417,0.426,0.278,1.065
				c0.554-0.067,1.117,0.367,1.693,0.349c-0.566-0.535-2.456-1.139-0.202-1.08c-1.641-1.301,1.503-0.045,2.22,0.268
				c0.788-0.669-1.193-0.527-0.855-1.277c-0.688-1.146,2.593-0.914,3.134-0.904c0.326-0.238,0.013-0.553-0.26-0.638
				c0.494-0.129,0.42-0.192-0.105-0.383c0.653-0.575,2.112-1.142,3.693-1.396c0.015-0.779,1.839-0.202,2.894-0.347
				c-1.096-0.796,1.363,0.05,0.692-0.804c0.134-1.189,3.865-1.277,2.134-0.324c0.435,0.278,1.758-0.111,1.013,0.695
				c0.829,0.021,3.126-0.794,3.407,0.438c0.1-0.125,0.936,0.547,0.276,0.617c0.971,0.938-8.322,4.229-1.738,2.324
				c-0.924-1.102,1.2,0.206,1.552-0.321c0.352,0.028-0.014,0.509,0.303,0.657c0.45-0.809,1.938-0.27,2.885-0.256
				c-0.649,0.829,1.702,0.496,2.426,0.609c0.036-0.494,0.091-0.748,0.557-1.032c0.791,0.786,1.65,0.166,2.54,0.878
				c-0.26,0.423,0.869,1.494-0.344,1.011c1.195,2.722,2.567-0.151,4.852,0.804c0.299,0.439,0.745,0.143,0.332-0.054
				c0.989-0.172,1.048,0.371,1.12-0.733c-1.426-0.328,2.441-0.973,3.45-0.252c0.017,0.137-1.235-0.121-0.613,0.235
				c0.096,0.024,0.207-0.002,0.39,0.14c-1.396,1.321,1.779-1.184,2.234,0.219c-1.465,0.334,1.329,0.326,1.189,1.027
				c2.296-0.265,4.284-0.285,5.081,1.896c0.002-1.384,2.694,0.016,3.216-0.529c0.3-0.931,1.899,0.138,0.677-0.03
				c-0.898,0.245,2.498,1.774,0.962-0.031c2.146-1.284,7.504,1.1,8.458,3.19C400.854,220.32,404.81,222.385,403.017,222.801z
				 M329.578,238.959c0.456-2.52-4.479-0.255-3.136,1.516c0.507,1.623,1.799,1.198,0.686,3.182c0.548,2.018,4.319,1.229,2.455-0.555
				c-0.286-0.973-0.227-0.758,0.903-1.004c-0.311-0.289-0.818-1.416-1.072-0.341c-0.578-0.733,0.556-0.603-0.87-1.237
				C328.008,239.514,328.163,239.082,329.578,238.959z M359.643,231.245c-0.749,1.269-1.705,2.548-3.113,3.259
				C358.016,234.462,359.921,232.964,359.643,231.245z M318.738,268.16c-0.067-0.491,0.211-0.895,0.553-1.33
				C317.852,265.818,316.91,268.628,318.738,268.16z M332.637,239.721c0.004-0.547,0.492-1.426,0.264,0.021
				c0.841,1.215,1.072-1.778,0.191-1.025C332.59,238.311,332.257,239.271,332.637,239.721z M316.427,268.759
				c-0.52,1.134,0.829,3.328,0.922,2.664C316.993,270.604,316.644,269.75,316.427,268.759z M318.996,273.9
				c0.831,3.146,0.578-2.057-0.075-1.543C318.949,272.823,319.24,273.321,318.996,273.9z M343.772,238.076
				c-0.721,0.146-3.68-0.479-2.685,1.164C341.419,237.486,342.87,238.818,343.772,238.076z M334.152,238.35
				c-0.153-0.185-0.408-0.305-0.691-0.17C333.684,238.372,333.852,238.418,334.152,238.35z"/>
			<path fill="#8DDFFF" d="M362.353,286.973c1.747-0.416-1.784-5.07-0.435-4.767c-1.721-3.515,2.639-2.688,4.486-4.832
				c-0.362-1.613,1.15,0.217,0.72-1.095c0.762-0.114,1.205-2.24,2.472-0.979c0.105,0.513,0.056,0.261,0.437,0.144
				c0.086,0.026,0.26,0.312,0.463,0.146c-0.934-1.232,2.004-1.593,1.238-2.275c0.811,0.474,1.889,0.53,2.626,0.688
				c-0.387,0.496-0.467,0.796-0.808,1.366c4.748,4.258,2.429-0.725,3.882-2.309c1.578,3.844,2.961,6.039,5.784,8.778
				c0.198,4.474-1.326,8.359-4.425,8.29c-0.05-0.693-0.686,0.629-2.433-0.41c-0.911-0.248-0.031-1.803-1.246-1.56
				c-0.078-0.22,0.267-0.695-0.202-0.777c-0.146,0.202-0.104,0.683-0.572,0.372c0.363-0.253,0.335-0.712,0.593-1.193
				c-1.03,0.055-0.806,2.082-2.085,0C370.295,283.04,364.948,289.701,362.353,286.973z"/>
			<path fill="#8DDFFF" d="M256.729,207.152c-2.611-1.609,1.854-0.379,1.074-1.821c-0.708,0.587-3.672,1.472-3.87,0.215
				c-0.515,0.581-2.606,0.048-1.804-0.642c-0.329-0.055-0.615-0.032-0.197-0.369c-1.418,0.375-0.752-0.563,0.399-0.139
				c0.216-0.973,1.715,0.218,1.539-0.654c0.735-0.693,1.569,0.363,2.16-0.342c4.013-1.34,8.164-0.864,11.715,0.082
				c-0.68,1.264-3.091,0.808-3.454,1.299c3.636-0.104-4.021,2.74-5.402,3.109c2.569-0.244,1.407,1.696-0.526,1.514
				c0.417,1.4-2.128,0.156-1.918,0.949c5.947,0.688-2.774,1.475-4.268,0.535c-0.008-0.562,2.476-0.291,0.9-0.955
				c-0.071-0.082-0.104-0.274,0.102-0.357c1.07-0.283,0.866,0.369,1.501,0.693c1.151-0.155-0.977-0.688,0.095-1.303
				c-3.116,0.669-0.832-1.123,1.291-0.433C252.722,206.755,253.45,205.557,256.729,207.152z"/>
			<path fill="#8DDFFF" d="M263.742,217.798c-0.606,0.87,1.252-0.014,0.295,1.046c0.011,0.249,0.606-0.001,0.557,0.381
				c-2.353,0.147,2.701,1.806,3.087,2.371c-2.05,3.229-2.959-1.104-3.481,0.727c-0.613,0.6,4.683,3.691-0.721,2.109
				c2.746,2.014,0.424,1.383-1.466,0.471c-0.134-0.551-1.135-2.024-1.854-1.168c-1.16,0.215-2.82-0.17-0.854-0.965
				c1.779,1.039,1.269-2.785,3.033-0.629c1.583-0.262,0.168-1.106-0.914-0.746c0.164-0.566-0.022-1.662-0.947-1.578
				c-0.529-1.108-0.458-0.084-1.28-0.346c1.702-0.199-2.32-2.647-1.097-1.162c-1.759-0.023-4.318,0.361-5.784-0.932
				c0.238-0.281,0.691,0.064,1.084-0.097c-2.658-0.323-0.898-3.563,1.283-2.966c-1.949,1.508,0.218,3.162,0.187,2.314
				c-0.138-0.238-0.949-0.199-0.227-0.781c-0.715-0.843-0.047-1.031,0.902-1.313c1.116-0.844,1.622,0.514,1.448,1.57
				c0.572-0.229,0.725-0.43,1.205-0.049c0.714-1.559,2.205,0.27,2.988,0.892c0.458-0.593,1.579-0.011,0.365,0.397
				C262.117,217.498,262.951,217.346,263.742,217.798z"/>
			<path fill="#8DDFFF" d="M239.139,219.1c-3.96-0.565-0.949-1.173,0.953-1.072c0.218-0.719-6.05,0.043-1.984-1.211
				c-0.165-0.26-0.813,0.063-1.221,0.123c-2.349-1.094,3.418-3.188,1.795-1.369c0.543,0.44,1.471-1.372,1.745,0.199
				c0.329-0.182,1.365,0.231,0.426-0.528c0.997-0.64,0.957,1.657,1.741,1.188c-0.329-1.059-1.027-2.157,0.872-1.268
				c-1.384-0.8,0.824-1.386,0.583-0.283c-0.61,0.562-0.21,1.202,0.104,1.813c-0.574,0.666,3.571,1.994,1.253,1.734
				c-0.481,0.09-0.817,0.854-0.098,0.379c1.302,0.62-1.017,1.146-2.384,0.11C242.4,219.533,239.074,220.419,239.139,219.1z"/>
			<path fill="#8DDFFF" d="M381.095,272.223c1.438,1.147-0.438,0.91-1.233,0.146c-2.255-2.826-1.601,1.302-3.595-0.645
				c-0.548-0.341-2.354,0.313-0.777-0.72c-0.621-2.151-2.786-1.097-3.773-2.497c0.931-0.213,1.196-0.14,0.024-0.345
				c-1.256-1.445,1.255-1.488,1.605,0.668c2.069-1.987,5.336,0.39,6.948,1.924C379.596,270.766,380.561,272.152,381.095,272.223z"/>
			<path fill="#8DDFFF" d="M362.241,264.324c0.852-0.414,0.939-1.967,1.923-0.708c1.558,0.131-0.575,0.635-0.303,1.272
				c-0.029,0.041-0.071,0.096-0.115,0.156c1.545,2.24-0.477,1.066-0.604,3.698c-0.681,0.772-2.312,0.017-3.137-0.345
				c-0.244-0.893-2.101-3.196,0.26-2.379c0.278-0.957,0.063-0.635,1.081-0.854C361.653,264.887,361.602,263.979,362.241,264.324z"/>
			<path fill="#8DDFFF" d="M324.473,275.993c1.44-0.097,2.224-1.136,2.722-2.326c0.374,0.384,1.104,2.547,0.273,2.069
				C325.076,287.348,323.474,279.439,324.473,275.993z"/>
			<path fill="#8DDFFF" d="M332.692,213.514c-0.12,0.853-2.052,1.858-1.65,2.983c0.25,0.672,2.607,1.87-1.078,0.876
				c-0.015-0.207,0.142-0.467-0.394-0.593c0.095,0.433-0.328,0.509-0.274-0.097c-1.281-0.164-0.179-0.541,0.37-1.007
				c-0.333-0.536,0.11-0.344,0.288-0.772c0.968-0.088-0.055-0.943,1.037-1.036c0.644-1.009,0.096-0.912,1.373-1.603
				c0.698-0.517,8.18-2.521,5.102-0.629C334.221,212.463,334.993,212.604,332.692,213.514z"/>
			<path fill="#8DDFFF" d="M252.997,208.535c-0.52,1.251-2.388,0.516-3.222-0.374c1.805-0.663,0.57-0.484-0.608-0.495
				c-1.426-1.438-0.514-0.563,0.175-1.059c-0.805-0.375-0.958-0.651,0.27-0.879c-1.041-0.721,1.093-0.069,0.1-0.668
				c0.536-0.5,3.903,1.889,3.843,1.889C253.19,208.07,256.127,206.867,252.997,208.535z"/>
			<path fill="#8DDFFF" d="M298.417,230.876c-0.336,0.858-0.442-0.058-0.869,0.272c0.646-0.532-0.146-0.352,0.327-1.061
				c-0.307-0.016-0.772-0.673-0.038-0.238c0.186-0.816,0.653-0.896,1.373-1.263c0.275,0.952-1.539,0.856,0.747,0.994
				c0.053,0.503-0.361,0.901-0.597,1.362c1.136,0.111,1.47,1.597,1.939,2.492c1.676-0.399-0.39,1.031,0.483,1.136
				c-1.014,0.825-2.538,0.259-3.632,0.995c0.079-0.78,0.783-0.762,1.326-1.078c-2.147-0.217-0.317-0.396-0.989-1.023
				c0.185-0.89,0.95,0.153,0.926-1.083C298.87,231.171,298.133,232.729,298.417,230.876z"/>
			<path fill="#8DDFFF" d="M313.03,209.842c-0.275-0.005-0.516,0.215-0.811,0.088c0.806-0.842-0.854-0.953,0.07-1.419
				c-1.657-0.647-1.587,3.257-2.978,2.205c-0.104-0.543-1.567-0.833,0.629-1.142c-0.425-0.272-1.023,0.186-1.591-0.061
				c-0.069-0.416,1.956-0.445,1.469-1.031c-0.203,0.074-0.345,0.299-0.604,0.209c0.226-1.016-0.486,0.232-0.867,0.334
				c-0.604-0.025-1.482-0.516-0.72-1.241c-1.987-0.03,0.849-1.692,1.021-0.071c0.323-1.408,0.564-0.087,1.203,0.333
				c-0.818-1.965,0.679-1.17,1.195-0.323c1.472,0.166,1.995,1.586,3.127,1.853C313.852,209.641,313.15,210.701,313.03,209.842z"/>
			<path fill="#8DDFFF" d="M238.22,214.516c-1.708,0.656-2.492,2.019-4.056,2.771c-1.502-2.106-2.272,0.292-0.572-2.953
				C232.816,212.701,237.282,213.6,238.22,214.516z"/>
			<path fill="#8DDFFF" d="M356.684,270.184c-1.628-1.729-3.722-4.576-4.737-6.496c1.694-0.037,5.651,5.311,5.3,4.334
				C358.197,267.393,357.848,270.669,356.684,270.184z"/>
			<path fill="#8DDFFF" d="M255.603,213.122c-1.606,0.694-3.345,0.301-4.722-0.206c-0.174-0.768,0.25-0.941-0.667-1.607
				c-0.352,0.434-2.946-0.66-1.236-0.765c1.111,0.293,2.28,0.347,3.361,0.856c-0.765,0.687-0.032,0.443,0.572,0.908
				C254.834,211.238,260.395,213.322,255.603,213.122z"/>
			<path fill="#8DDFFF" d="M288.14,223.365c0.342-0.424,0.786,0.168,0.966-0.573c-0.75-0.032-1.976-0.28-0.378-0.649
				c-0.476-0.608,0.535-0.188,0.76,0.123c-0.204,0.676,0.177,0.414,0.592,0.395c-0.008-0.23-0.093-0.887,0.388-0.234
				c0.209-0.631,0.899-0.152,1.51-0.318c0.834-0.786,3.337,1.373-1.021,2.522c-0.55,0.134-0.762-0.262-1.34-0.425
				c-0.363,0.023-1.465,0.189-0.333-0.268C289.075,223.419,288.831,223.337,288.14,223.365z"/>
			<path fill="#8DDFFF" d="M374.29,246.216c0.319,0.461-0.954,1.318-0.756,0.099c-0.738-0.224-1.481,0.388-2.249,0.432
				c0.464-1.54,2.828-0.432,3.302-2.241c1.545,1.05,1.044-2.555,2.3-2.545C377.466,243.586,376.574,247.049,374.29,246.216z"/>
			<path fill="#8DDFFF" d="M240.333,212.713c-1.527-0.328-1.501,0.505-3.14-0.093c0.229-0.246,0.577-0.146,0.919-0.349
				c-0.787,0.123-0.914-0.316,0.11-0.342c0.088-0.156-0.864-0.141-0.271-0.471c1.307-1.033,2.282,1.242,3.68,0.775
				c-0.944-1.082,0.033-2.127,0.917-0.336c0.318,0.244,1.197-0.821,0.958,0.643C242.932,213.068,236.085,214.37,240.333,212.713z"/>
			<path fill="#8DDFFF" d="M394.063,291.936c1.782-0.316-1.468,2.67-1.604,3.479c-3.091,1.047-1.417-1.738,0.377-2.394
				C393.252,292.63,393.404,291.136,394.063,291.936z"/>
			<path fill="#8DDFFF" d="M246.624,214.842c-1.58-0.367-0.328-0.813,0.695-0.566c-0.383-0.334,0.065-0.438,0.484-0.406
				c1.093,1.154-0.499,0.558-0.155,1.279c0.157,0.059,0.522-0.029,0.638,0.316c-0.049-1.48,1.241,0.561-1.08,1.485
				c-0.269-0.199-3-1.937-1.49-1.796C246,215.469,246.533,215.51,246.624,214.842z"/>
			<path fill="#8DDFFF" d="M270.732,234.566c-1.076,0.98,0.129,1.646,1.056,1.592c-0.657,0.572,1.521,1.746-0.144,1.615
				c-0.051-0.812-1.204,0.475-0.68-0.416c-0.323-0.607-2.814,0.765-1.979-0.66C269.271,236.43,269.97,234.199,270.732,234.566z"/>
			<path fill="#8DDFFF" d="M376.657,212.193c0.062-0.701,2.053-0.282,2.321,0.222c-0.179,0.537-1.108,1.14-1.253,0.026
				C375.181,215.378,373.107,210.216,376.657,212.193z"/>
			<path fill="#8DDFFF" d="M310.638,206.503c0.109-0.271,0.31-0.276,0.583,0.037c0.294-0.687,1.062-0.065,1.803,0.19
				c-0.021-0.318,0.181-1.03,0.49-0.176c0.477-0.322,1.433-0.145,2.112,0.135c-0.295,1.482-5.474,1.037-2.873,0.353
				C312.055,206.863,310.985,207.473,310.638,206.503z"/>
			<path fill="#8DDFFF" d="M295.986,233.273c-0.671-0.808-0.385-0.894,0.6-1.149c-0.975-0.91,2.61-0.61,0.948,0.367
				C298.772,234.034,294.115,235.488,295.986,233.273z"/>
			<path fill="#8DDFFF" d="M246.541,211.527c-1.146-1.453,0.32-0.15,0.843-0.545c2.042,0.896-1.311,3.347-0.778,1.217
				c-2.809,0.517-3.253-2.969-0.963-0.305C245.995,211.721,244.748,210.868,246.541,211.527z"/>
			<path fill="#8DDFFF" d="M395.375,289.207c0.119-0.861,0.182,0.479,0.6,0.502c0.479,0.311,1.658-0.855,0.686,0.821
				c-0.684-0.06-0.659,2.151-1.623,1.545c0.491-1.699-1.083-0.513-0.011-2.856C393.584,287.563,394.443,287.453,395.375,289.207z"/>
			<path fill="#8DDFFF" d="M365.031,270.184c0.193-2.729-1.442,0.459,0.182-3.627c1.054-1.009,1.127,0.43,2.675-0.521
				c-0.273,1.125-1.512,0.271-2.332,0.697c-1.146,1.257,0.626,0.756,1.349,0.535c0.18,0.596-1.469,0.451-0.515,1.227
				c0.271,0.786-0.095,1.611-0.756,0.521c0.161-0.389-0.378-0.843-0.399-0.021C365.139,269.452,365.704,269.98,365.031,270.184z"/>
			<path fill="#8DDFFF" d="M254.26,224.371c-0.133-0.007-1.065,0.34-0.597-0.189c0.559-0.209,0.065-1.767,0.962-1.789
				c0.095,0.654,3.409,1.625,2.068,2.084C255.419,223.421,254.814,225.605,254.26,224.371z"/>
			<path fill="#8DDFFF" d="M366.206,258.795c0.929-0.24,2.606,1.305,1.644,2.311c-0.493-2.513-2.559-1.463-2.701-3.562
				c0.827,0.019-0.486-1.839,1.211-1.18C366.873,258.094,365.634,257.169,366.206,258.795z"/>
			<path fill="#8DDFFF" d="M377.296,238.6c0.292-1.978-0.407-4.205,0.281-6.082c0.666,1.055,0.451,2.674,1.019,4.006
				c-1.564-0.817-0.796,1.395-0.5,2.043C377.922,238.615,377.697,237.721,377.296,238.6z"/>
			<path fill="#8DDFFF" d="M351.318,207.544c0.552-1.063,2.687-1.053,3.081-0.19C354.313,209.152,352.38,208.066,351.318,207.544z"
				/>
			<path fill="#8DDFFF" d="M376.434,241.102c0.215,0.483,0.398,0.317-0.227,0.685c1.687-5.065,0.52-0.949,3.455-2.013
				C378.925,241.027,377.956,241.245,376.434,241.102z"/>
			<path fill="#8DDFFF" d="M357.828,270.85c-2.24-0.813,5.884-0.047,3.335,0.354C365.224,272.227,358.773,271.729,357.828,270.85z"
				/>
			<path fill="#8DDFFF" d="M238.198,210.201c-1.877,3.072-0.935-0.821-1.866,1.369c-0.515-0.165-0.653,0.936-1.032,0.02
				c-0.295,0.212-0.997,0.52-1.063-0.079C235.6,210.857,236.769,209.624,238.198,210.201z"/>
			<path fill="#8DDFFF" d="M354.933,208.344c0.224-0.796,1.637-1.123,0.96,0.034C360.724,207.684,351.971,211.152,354.933,208.344z"
				/>
			<path fill="#8DDFFF" d="M243.924,208.75c1.428-0.123,0.562-0.405-0.298-0.691C243.79,206.098,251.193,211.078,243.924,208.75z"/>
			<path fill="#8DDFFF" d="M351.034,205.719c2.403-1.107,0.746-0.21,2.228,0.166c-0.22,0.186-0.335,0.168-0.215,0.545
				c-2.059,0.266-1.771,1.58-2.737,0.516c0.173-0.174,0.416-0.06,0.704-0.206C350.076,206.021,351.507,206.477,351.034,205.719z"/>
			<path fill="#8DDFFF" d="M254.979,254.088c0.872-1.672,4.6,0.266,5.485,1.027c-1.02,0.505-1.847-0.176-2.838-0.932
				C256.468,253.938,256.112,253.503,254.979,254.088z"/>
			<path fill="#8DDFFF" d="M368.225,261.628c0.12-1.022,0.727,0.679,0.517,1.153c-0.501,0.417-0.582-0.196-0.549,0.958
				c-1.388-0.231-0.241-1.884-1.876-0.839C366.101,261.804,367.657,262.3,368.225,261.628z"/>
			<path fill="#8DDFFF" d="M380.296,293.169c-1.228,0.789-1.361-0.021-1.713-1.493C380.142,292.021,380.869,291.211,380.296,293.169
				z"/>
			<path fill="#8DDFFF" d="M261.438,256.005c-1.429-1.411,2.442-0.644,2.149,0.156C263.101,256.327,258.543,256.572,261.438,256.005
				z"/>
			<path fill="#8DDFFF" d="M258.803,215.251c-0.693,0.366-2.394-0.181-1.597-0.998C257.502,214.214,260.667,215.086,258.803,215.251
				z"/>
			<path fill="#8DDFFF" d="M344.003,262.329c0.026-2.549,2.139,1.239,0.332,1.159C343.957,263.257,344.089,262.802,344.003,262.329z
				"/>
			<path fill="#8DDFFF" d="M249.346,208.788c0.144,1.586-2.446,0.289-1.535-0.479C248.263,208.574,248.749,208.632,249.346,208.788z
				"/>
			<path fill="#8DDFFF" d="M248.357,212.909c0.286-0.595,1.351-0.923,1.748-0.13C250.743,213.783,248.752,213.162,248.357,212.909z"
				/>
			<path fill="#8DDFFF" d="M379.613,212.803c0.178-0.732,0.618,0.092,1.155-0.154C384.083,213.014,380.771,213.841,379.613,212.803z
				"/>
			<path fill="#8DDFFF" d="M241.336,209.393c-0.014,0.193-0.679,0.139-0.293,0.432C239.668,211.182,238.373,208.895,241.336,209.393
				z"/>
			<path fill="#8DDFFF" d="M259.522,219.956c1.203,0.249,0.508,1.286-0.499,1.058C258.487,220.716,258.94,219.889,259.522,219.956z"
				/>
			<path fill="#8DDFFF" d="M272.044,219.126c-0.622-0.045-1.61-1.175-0.172-1.036C272.524,218.393,273.208,219.008,272.044,219.126z
				"/>
			<path fill="#8DDFFF" d="M371.166,246.877c1.367,0.415-0.618,3.155-0.229,0.477C370.219,247.773,370.556,247.02,371.166,246.877z"
				/>
			<path fill="#8DDFFF" d="M365.611,254.003c-0.549-0.446-0.281-1.442,0.385-1.754C366.733,251.997,365.895,253.779,365.611,254.003
				z"/>
			<path fill="#8DDFFF" d="M399.479,217.326c-0.577,0.238-0.845,0.29-1.522,0.176C396.282,217.832,398.886,216.128,399.479,217.326z
				"/>
			<path fill="#8DDFFF" d="M327.76,205.999c-0.273-0.655,1.537-0.397,0.852,0.006C327.68,206.676,325.396,206.736,327.76,205.999z"
				/>
			<path fill="#8DDFFF" d="M218.062,228.902c0.117,0.502,0.003,1.438-1.119,1.414C216.586,229.845,217.667,229.313,218.062,228.902z
				"/>
			<path fill="#8DDFFF" d="M367.326,260.885c-0.356,1.102-0.841,1.229-0.657-0.154C365.867,261.212,365.934,259.021,367.326,260.885
				z"/>
			<path fill="#8DDFFF" d="M305.755,243.41c-0.186-0.362-0.018-0.83-0.313-1.285C306.468,241.4,306.754,242.991,305.755,243.41z"/>
			<path fill="#8DDFFF" d="M360.315,255.339c-0.104,0.375-0.331,1.157-0.992,0.946C358.589,255.739,359.602,255.12,360.315,255.339z
				"/>
			<path fill="#8DDFFF" d="M239.719,209.027c-1.231-0.03,1.468-0.951,1.817-0.324C241.844,209.412,240.508,208.861,239.719,209.027z
				"/>
			<path fill="#8DDFFF" d="M381.451,270.563c-2.104-0.582,0.896-0.287,1.302-1.076C382.884,270.052,382.04,270.554,381.451,270.563z
				"/>
			<path fill="#8DDFFF" d="M378.193,214.955c-0.452,0.162-1.132,0.072-1.646-0.206C376.794,214.104,378.013,214.203,378.193,214.955
				z"/>
			<path fill="#8DDFFF" d="M330.402,205.818c0.185-0.243,0.688-0.1,0.473-0.527C333.897,205.611,331.109,206.35,330.402,205.818z"/>
			<path fill="#8DDFFF" d="M309.346,243.857c-0.246,0.152-0.02,1.207-0.508,0.855C307.196,243.791,307.792,243.979,309.346,243.857z
				"/>
			<path fill="#8DDFFF" d="M333.263,206.032c0.398-0.435,0.938-0.839,1.563-0.183C334.589,206.18,333.532,206.466,333.263,206.032z"
				/>
			<path fill="#8DDFFF" d="M372.835,247.13c-0.326-0.101-0.323,0.332-0.621,0.374C371.14,246.475,374.569,246.22,372.835,247.13z"/>
			<path fill="#8DDFFF" d="M369.106,271.641c-0.441,0.424-1.14,0.438-1.57,1.063C366.172,273.08,368.108,271.432,369.106,271.641z"
				/>
			<path fill="#8DDFFF" d="M331.828,206.835c-1.979-0.396,2.493-0.938,0.864-0.287C332.435,206.689,332.216,206.83,331.828,206.835z
				"/>
			<path fill="#8DDFFF" d="M369.649,266.145c0.815,0.203-0.113,0.541-0.07,0.943C369.01,267.249,369.145,264.99,369.649,266.145z"/>
			<path fill="#8DDFFF" d="M229.503,233.869c-0.517-0.049-1.455-1.604-0.346-1.245C229.285,232.999,229.491,233.4,229.503,233.869z"
				/>
			<path fill="#8DDFFF" d="M363.544,272.168c-1.108-0.335-0.151-0.495,0.535-0.615C365.146,271.814,364.155,272.041,363.544,272.168
				z"/>
			<path fill="#8DDFFF" d="M328.148,219.157c-0.295,0.161-0.678,0.655-1.077,0.254C326.752,218.829,327.743,218.674,328.148,219.157
				z"/>
			<path fill="#8DDFFF" d="M367.38,271.714c-0.242,0.236-3.438,0.519-1.854-0.046C366.224,271.848,366.628,271.561,367.38,271.714z"
				/>
			<path fill="#8DDFFF" d="M337.985,297.229c0.111,0.039,0.274,0.097,0.506,0.178C339.718,297.984,336.896,298.188,337.985,297.229z
				"/>
			<path fill="#8DDFFF" d="M307.196,231.813c0.37-0.397-0.555-0.843,0.688-0.867C307.9,231.155,307.611,232.491,307.196,231.813z"/>
			<path fill="#8DDFFF" d="M371.02,269.116c-0.302-0.062-0.602-0.298-1.026-0.234C368.688,268.821,370.997,267.945,371.02,269.116z"
				/>
			<path fill="#8DDFFF" d="M250.26,209.693c-0.416,0.314-1.08,0.607-1.578,0.233C249.01,209.616,249.953,209.592,250.26,209.693z"/>
			<path fill="#8DDFFF" d="M335.587,205.893c-1.274,0.063,0.778-0.908,0.855-0.3C336.34,205.881,335.932,205.807,335.587,205.893z"
				/>
			<path fill="#8DDFFF" d="M256.328,225.053c-0.005,0.309-0.456,0.823-0.875,0.633C255.105,225.417,255.978,224.938,256.328,225.053
				z"/>
			<path fill="#8DDFFF" d="M325.381,205.96c0.577,0,1.112-0.408,1.776-0.121C326.689,205.788,325.748,206.593,325.381,205.96z"/>
			<path fill="#8DDFFF" d="M267.414,236.27c-0.407,0.141-1.136-0.238-1.409-0.498C266.351,235.605,267.302,236.02,267.414,236.27z"
				/>
			<path fill="#8DDFFF" d="M390.743,279.927c-0.456-0.139-1.176-0.679-1.467-1.099C389.72,278.943,390.62,279.488,390.743,279.927z"
				/>
			<path fill="#8DDFFF" d="M243.423,209.633c0.303-0.035,0.717,0.277,0.791,0.676C244.055,210.7,243.276,210.021,243.423,209.633z"
				/>
			<path fill="#8DDFFF" d="M331.397,205.141c0.176,0.092,1.693-0.613,1.511-0.031C332.414,205.055,331.953,205.595,331.397,205.141z
				"/>
			<path fill="#8DDFFF" d="M364.834,260.534c0.343,0.562-0.629,1.146-1.001,1.573C363.864,261.646,364.618,261.098,364.834,260.534z
				"/>
			<path fill="#8DDFFF" d="M306.033,241.633c-0.366-0.16-0.447-0.652,0.091-0.999C306.193,240.861,306.325,241.367,306.033,241.633z
				"/>
			<path fill="#8DDFFF" d="M319.209,245.538c-0.396,1.222-1.955,0.155,0.006,0.008L319.209,245.538z"/>
			<path fill="#8DDFFF" d="M210.615,227.943c-0.161-0.043-0.482-0.023-0.582-0.286C209.966,227.23,211.616,227.609,210.615,227.943z
				"/>
			<path fill="#8DDFFF" d="M251.686,210.328c-0.518-0.072-0.209-0.618,0.281-0.487C252.422,209.956,252.135,210.336,251.686,210.328
				z"/>
			<path fill="#8DDFFF" d="M360.767,213.842c0.206-0.136,0.667-0.578,0.943-0.156C361.656,213.963,361.102,214.13,360.767,213.842z"
				/>
			<path fill="#8DDFFF" d="M313.498,245.667c0.193-0.267,0.99,0.056,1.447,0.032C314.583,246.03,313.948,245.909,313.498,245.667z"
				/>
			<path fill="#8DDFFF" d="M280.382,301.229c0.23-0.045,1.129,0.076,0.981,0.561C281.161,301.997,280.641,301.416,280.382,301.229z"
				/>
			<path fill="#8DDFFF" d="M216.305,255.908c-0.218-0.229-0.169-0.946,0.34-0.559C216.829,255.598,216.778,255.805,216.305,255.908z
				"/>
			<path fill="#8DDFFF" d="M339.864,214.917c-0.114,0.185-0.433,0.216-0.729,0.233C338.584,214.883,339.639,214.458,339.864,214.917
				z"/>
			<path fill="#8DDFFF" d="M265.309,256.28c-0.187,0.192-0.742,0.364-0.885-0.065C264.504,255.984,265.091,256.02,265.309,256.28z"
				/>
			<path fill="#8DDFFF" d="M268.518,299.012c0.028,0.225-0.484,0.846-0.709,0.467C267.876,299.232,268.213,298.878,268.518,299.012z
				"/>
			<path fill="#8DDFFF" d="M268.551,299.615c0.145-0.23,0.604-0.707,0.884-0.364C269.441,299.464,268.807,299.768,268.551,299.615z"
				/>
			<path fill="#8DDFFF" d="M384.134,270.104c0.25,0.129,0.813,0.371,0.644,0.789C384.529,270.962,384.204,270.456,384.134,270.104z"
				/>
			<path fill="#8DDFFF" d="M258.251,256.22c0.36-0.081,0.772-0.099,1.094,0.185C259.158,256.693,258.601,256.446,258.251,256.22z"/>
			<path fill="#8DDFFF" d="M257.529,226.236c-0.259-0.09-0.28-0.642,0.156-0.614C257.949,225.725,257.792,226.085,257.529,226.236z"
				/>
			<path fill="#8DDFFF" d="M236.242,212.202c0.197-0.254,0.451-0.421,0.773-0.542C237.109,211.965,236.551,212.393,236.242,212.202z
				"/>
			<path fill="#8DDFFF" d="M364.652,272.424c0.171-0.146,0.533-0.013,0.828,0.135C365.824,273.002,364.934,272.723,364.652,272.424z
				"/>
			<path fill="#8DDFFF" d="M251.587,267.182c-0.019,0.387-0.545-0.019-0.385-0.344C251.313,266.486,251.601,266.816,251.587,267.182
				z"/>
			<path fill="#8DDFFF" d="M396.459,277.393c0.039-0.162,0.418-0.42,0.604-0.168C397.127,277.512,396.709,277.684,396.459,277.393z"
				/>
			<path fill="#8DDFFF" d="M368.637,268.666c0.771,0.044,0.365,0.805-0.159,0.173C368.467,268.789,368.457,268.678,368.637,268.666z
				"/>
			<path fill="#8DDFFF" d="M244.388,212.872c-0.447,0.048-0.333-0.874,0.219-0.285C244.641,212.701,244.627,212.848,244.388,212.872
				z"/>
			<path fill="#8DDFFF" d="M246.62,206.723c0.912-0.091,0.907,0.955-0.035,0.076C246.596,206.773,246.607,206.748,246.62,206.723z"
				/>
			<path fill="#8DDFFF" d="M365.517,259.232c0.234,0.096,0.41,0.248,0.519,0.481C365.782,259.967,365.48,259.715,365.517,259.232z"
				/>
			<path fill="#8DDFFF" d="M350.066,205.592c-0.701-0.017,0.005-0.605,0.351-0.184C350.381,205.52,350.277,205.529,350.066,205.592z
				"/>
			<path fill="#8DDFFF" d="M312.762,229.191c0.043-0.403,0.204-0.517,0.561-0.414C313.247,229.002,313.056,229.148,312.762,229.191z
				"/>
			<path fill="#8DDFFF" d="M267.378,261.059c0-0.119,0-0.226,0-0.319C267.771,260.423,268.121,261.135,267.378,261.059z"/>
			<path fill="#8DDFFF" d="M310.771,230.111c-0.056-0.197-0.014-0.625,0.349-0.678C311.221,229.626,311.014,229.91,310.771,230.111z
				"/>
			<path fill="#8DDFFF" d="M306.688,208.282c0.319-0.066,0.465,0.323,0.713,0.629C307.018,208.754,306.863,208.623,306.688,208.282z
				"/>
			<path fill="#8DDFFF" d="M238.523,209.486c0.155-0.059,0.384-0.084,0.611,0.004C239.393,209.814,238.738,209.863,238.523,209.486z
				"/>
			<path fill="#8DDFFF" d="M258.681,252.943c-0.148-0.131-0.475-0.494-0.274-0.813C258.575,252.216,258.714,252.758,258.681,252.943
				z"/>
			<path fill="#8DDFFF" d="M211.344,232.259c0.14-0.134,0.484-0.476,0.75-0.249C211.979,232.146,211.621,232.294,211.344,232.259z"
				/>
			<path fill="#8DDFFF" d="M387.777,272.456c-0.336-0.255-0.384-0.347-0.355-0.664C387.661,271.955,387.705,272.216,387.777,272.456
				z"/>
			<path fill="#8DDFFF" d="M383.123,269.605c-0.125-0.221-0.234-0.414-0.338-0.6C382.933,269.007,383.576,269.441,383.123,269.605z"
				/>
			<path fill="#8DDFFF" d="M386.198,271.421c0.251-0.03,0.448,0.07,0.688,0.338C386.729,271.893,386.375,271.634,386.198,271.421z"
				/>
			<path fill="#8DDFFF" d="M376.285,214.025c0.061-0.101,0.537-0.363,0.53-0.018C376.757,214.129,376.455,214.244,376.285,214.025z"
				/>
			<path fill="#8DDFFF" d="M386.862,272.28c0.233,0.06,0.397,0.146,0.517,0.345C387.202,272.741,386.854,272.618,386.862,272.28z"/>
			<path fill="#8DDFFF" d="M352.823,266.111c0.163-0.064,0.456,0.23,0.256,0.438C352.924,266.563,352.82,266.4,352.823,266.111z"/>
			<path fill="#8DDFFF" d="M302.38,242.97c0.049-0.241,0.678-0.319,0.363,0.091C302.669,243.098,302.606,243.113,302.38,242.97z"/>
			<path fill="#8DDFFF" d="M329.42,206.521c0.115-0.078,0.461-0.285,0.57-0.035C329.914,206.646,329.716,206.643,329.42,206.521z"/>
			<path fill="#8DDFFF" d="M397.176,276.729c0.182-0.199,0.331-0.328,0.568-0.281C397.648,276.699,397.521,276.768,397.176,276.729z
				"/>
			<path fill="#8DDFFF" d="M370.66,273.684c0.233-0.219,0.451-0.194,0.702-0.18C371.177,273.729,371.08,273.753,370.66,273.684z"/>
			<path fill="#8DDFFF" d="M343.718,215.352c0-0.207,0.537-0.359,0.376,0.049C343.992,215.514,343.88,215.482,343.718,215.352z"/>
			<path fill="#8DDFFF" d="M374.1,288.357c0.209-0.125,0.391-0.141,0.595-0.086C374.521,288.493,374.375,288.516,374.1,288.357z"/>
			<path fill="#8DDFFF" d="M209.96,233.08c0.04-0.139,0.09-0.374,0.282-0.415C210.486,232.736,210.213,233.014,209.96,233.08z"/>
			<path fill="#8DDFFF" d="M367.321,261.492c-0.036-0.139,0.336-0.491,0.371-0.141C367.646,261.443,367.539,261.532,367.321,261.492
				z"/>
			<path fill="#8DDFFF" d="M330.14,259.577c-0.229,0.253-0.359,0.265-0.528,0.073C329.76,259.509,329.93,259.575,330.14,259.577z"/>
			<path fill="#8DDFFF" d="M260.65,294.732c-0.554-0.76,0.332-0.616-0.009-0.012C260.643,294.723,260.65,294.732,260.65,294.732z"/>
			<path fill="#8DDFFF" d="M300.287,227.602c-0.003-0.146-0.109-0.474,0.132-0.549C300.521,227.173,300.471,227.37,300.287,227.602z
				"/>
			<path fill="#8DDFFF" d="M297.553,228.994c0.007,0.25-0.063,0.341-0.31,0.411C297.259,229.163,297.337,229.059,297.553,228.994z"
				/>
			<path fill="#8DDFFF" d="M215.248,254.49c0.007,0.197-0.446,0.144-0.254-0.105C215.05,254.378,215.099,254.369,215.248,254.49z"/>
			<path fill="#8DDFFF" d="M353.649,267.488c0.158-0.061,0.311,0.558,0.005,0.246C353.675,267.686,353.55,267.718,353.649,267.488z"
				/>
			<path fill="#8DDFFF" d="M387.859,272.914c0.192-0.007,0.317,0.056,0.424,0.165C388.224,273.239,388.01,273.139,387.859,272.914z"
				/>
			<path fill="#8DDFFF" d="M385.527,271.132c-0.167-0.015-0.265-0.127-0.377-0.312C385.356,270.874,385.449,270.99,385.527,271.132z
				"/>
			<path fill="#8DDFFF" d="M358.777,268.6c-0.004,0.286-0.515,0.021-0.103-0.117C358.709,268.484,358.741,268.492,358.777,268.6z"/>
			<path fill="#8DDFFF" d="M391.318,295.932c-0.026,0.303-0.516,0.079-0.122-0.108C391.226,295.836,391.252,295.852,391.318,295.932
				z"/>
			<path fill="#8DDFFF" d="M215.968,255.052c-0.146-0.077-0.099-0.448,0.116-0.2C216.069,254.887,216.058,254.915,215.968,255.052z"
				/>
			<path fill="#8DDFFF" d="M214.087,254.012c0.007,0.002,0.385-0.072,0.227,0.165C214.211,254.221,214.113,254.203,214.087,254.012z
				"/>
			<path fill="#8DDFFF" d="M313.231,228.473c-0.09,0.149-0.179,0.135-0.271,0.088C312.934,228.438,313.028,228.447,313.231,228.473z
				"/>
			<path fill="#8DDFFF" d="M308.315,220.107c0.089,0.138-0.055,0.262-0.229,0.231C308.178,220.246,308.251,220.178,308.315,220.107z
				"/>
			<path fill="#8DDFFF" d="M319.215,245.546c0.048-0.043,0.096-0.086,0.162-0.146C319.358,245.533,319.313,245.511,319.215,245.546z
				"/>
			<path fill="#8DDFFF" d="M308.567,220.082c-0.097,0.094-0.111,0.096-0.252,0.027C308.396,220.098,308.501,220.111,308.567,220.082
				z"/>
			<path fill="#8DDFFF" d="M308.738,220.039c-0.048,0.021-0.14,0.018-0.164,0.052C308.604,220.045,308.623,220.029,308.738,220.039z
				"/>
			<path fill="#8DDFFF" d="M361.672,282.088l-0.008-0.031C361.692,282.061,361.684,282.07,361.672,282.088z"/>
		</g>
	</g>
	<circle fill="#D34C56" cx="353.664" cy="247.792" r="6.006"/>
	<circle fill="#D34C56" cx="331.408" cy="246.357" r="4.399"/>
	<circle fill="#D34C56" cx="309.378" cy="242.666" r="3.471"/>
	<circle fill="#7690E2" cx="376.969" cy="243.646" r="3.391"/>
	<circle fill="#7690E2" cx="247.106" cy="234.963" r="5.771"/>
	<circle fill="#7690E2" cx="362.61" cy="232.576" r="3.833"/>
	<text transform="matrix(1 0 0 1 246.7979 249.7871)" fill="#7690E2" font-family="'Montserrat-Medium'" font-size="10.0343">U.S.</text>
	<text transform="matrix(1 0 0 1 341.8594 261.6279)" fill="#D34C56" font-family="'Montserrat-Medium'" font-size="6.7363">CHINA</text>
	<text transform="matrix(1 0 0 1 321.792 230.9453)" fill="#D34C56" font-family="'Montserrat-Medium'" font-size="6.7363">IRAN</text>
	<text transform="matrix(1 0 0 1 299.0713 254.0029)" fill="#D34C56" font-family="'Montserrat-Medium'" font-size="6.7363">ITALY</text>
	<text transform="matrix(1 0 0 1 382.4307 243.8564)" fill="#7690E2" font-family="'Montserrat-Medium'" font-size="6.7363">JAPAN</text>
	<text transform="matrix(1 0 0 1 346.3848 217.5596)" fill="#7690E2" font-family="'Montserrat-Medium'" font-size="6.7363">S.KOREA</text>
</g>
<path opacity="0.2" fill="#162360" enable-background="new    " d="M578.303,188.29c6.406,2.521,13.641-0.631,16.159-7.038
	c2.519-6.406-0.631-13.641-7.04-16.157c-6.407-2.521-13.638,0.63-16.157,7.037C568.745,178.54,571.896,185.771,578.303,188.29z"/>
<path opacity="0.2" fill="#111C51" enable-background="new    " d="M598.308,205.846c2.829,1.273,6.024-0.318,7.139-3.559
	c1.11-3.24-0.279-6.896-3.11-8.171c-2.83-1.274-6.023,0.317-7.137,3.559C594.086,200.915,595.479,204.572,598.308,205.846z"/>
<g opacity="0.2">
	<g>
		<path fill="#85A3ED" d="M-25.996,9.025C-26.829,2.362-21.993-3.697-15.19-4.513C-8.387-5.329-2.201-0.592-1.368,6.071
			c0.833,6.663-4.003,12.722-10.806,13.537C-18.977,20.424-25.163,15.687-25.996,9.025z"/>
		<path fill="#7690E2" d="M-16.41,7.215c-1.602,0.192-3.067-0.93-3.263-2.499c-0.197-1.575,0.949-3.003,2.551-3.196
			c1.609-0.193,3.074,0.922,3.271,2.498C-13.655,5.587-14.8,7.022-16.41,7.215z"/>
		<path fill="#7690E2" d="M-8.489,15.279c-2.406,0.289-4.585-1.385-4.879-3.736c-0.294-2.35,1.408-4.49,3.814-4.778
			C-7.155,6.477-4.968,8.15-4.675,10.5C-4.381,12.851-6.089,14.992-8.489,15.279z"/>
		<path fill="#7690E2" d="M-9.806,4.403c-1.044,0.125-1.995-0.603-2.123-1.625c-0.128-1.022,0.616-1.954,1.66-2.08
			C-9.225,0.573-8.274,1.3-8.146,2.324C-8.019,3.347-8.761,4.277-9.806,4.403z"/>
	</g>
	<g>
		<path fill="#85A3ED" d="M1.307,27.464c0.268-0.655,0.381-1.365,0.31-2.105c0.92-0.027,1.836-0.075,2.752-0.133
			c1.416-4.72,4.944-8.655,9.629-10.63c-0.126-1.18-0.23-2.352-0.314-3.537l0.031-0.004c0.408-0.049,0.793-0.189,1.117-0.403
			c0.399,1.074,0.811,2.157,1.23,3.229c0.841-0.236,1.72-0.415,2.62-0.522c3.47-0.416,6.817,0.222,9.722,1.649
			c0.41-0.372,0.821-0.732,1.242-1.094c0.254,0.333,0.624,0.58,1.041,0.686c-0.267,0.417-0.5,0.839-0.722,1.271
			c3.489,2.19,6.143,5.602,7.271,9.706c0.891-0.004,1.791-0.018,2.7-0.044c-0.075,0.165-0.117,0.336-0.158,0.518
			c-0.153,0.725-0.085,1.443,0.145,2.091c-0.706,0.293-1.402,0.574-2.111,0.846c0.16,2.63-0.317,5.181-1.314,7.472
			c0.89,0.922,1.81,1.84,2.76,2.734c-0.392,0.183-0.691,0.499-0.844,0.891c-0.979-0.537-1.968-1.063-2.949-1.61
			c-2.611,4.313-7.154,7.435-12.631,8.092c-1.327,0.16-2.642,0.161-3.911,0.022c-0.259,0.81-0.499,1.618-0.735,2.436
			c-0.611-0.394-1.331-0.63-2.098-0.663c0.042-0.763,0.064-1.524,0.085-2.286c-4.238-1.144-7.878-3.875-10.113-7.577
			c-0.521,0.25-1.04,0.51-1.558,0.779c-0.252-0.489-0.632-0.9-1.085-1.209c0.585-0.413,1.158-0.835,1.743-1.249
			c-0.686-1.497-1.153-3.113-1.367-4.823c-0.179-1.433-0.165-2.848,0.013-4.22C2.978,27.668,2.137,27.562,1.307,27.464z"/>
		<path fill="#7690E2" d="M1.617,25.359c0.071,0.74-0.042,1.45-0.31,2.105c-0.618,1.591-2.1,2.797-3.951,3.02
			c-2.665,0.319-5.104-1.539-5.432-4.16c-0.327-2.62,1.582-5,4.247-5.319c2.675-0.321,5.104,1.538,5.431,4.159
			C1.611,25.225,1.62,25.297,1.617,25.359z"/>
		<path fill="#7690E2" d="M4.503,39.277c0.169,0.333,0.29,0.704,0.338,1.092c0.225,1.802-1.086,3.445-2.926,3.666
			c-1.84,0.22-3.517-1.063-3.742-2.866c-0.226-1.801,1.086-3.444,2.926-3.666c0.846-0.101,1.67,0.122,2.319,0.564
			C3.871,38.377,4.251,38.789,4.503,39.277z"/>
		<path fill="#7690E2" d="M16.088,48.361c0.768,0.033,1.487,0.269,2.098,0.663c0.969,0.622,1.67,1.649,1.824,2.878
			c0.277,2.211-1.329,4.221-3.586,4.492c-2.258,0.271-4.311-1.301-4.587-3.512c-0.277-2.211,1.328-4.222,3.585-4.493
			C15.643,48.363,15.875,48.356,16.088,48.361z"/>
		<path fill="#7690E2" d="M15.261,28.336c-1.505,0.181-2.878-0.871-3.062-2.345c-0.185-1.474,0.889-2.818,2.394-2.999
			c1.505-0.181,2.867,0.872,3.051,2.345C17.828,26.812,16.766,28.155,15.261,28.336z"/>
		<path fill="#7690E2" d="M13.684,11.06c-1.414,0.148-2.693-0.84-2.866-2.222c-0.176-1.403,0.842-2.678,2.264-2.849
			c1.432-0.171,2.724,0.827,2.899,2.229c0.123,0.993-0.344,1.922-1.149,2.434c-0.323,0.215-0.709,0.355-1.117,0.404
			C13.704,11.057,13.694,11.059,13.684,11.06z"/>
		<path fill="#7690E2" d="M28.193,38.359c-3.867,0.463-7.375-2.222-7.848-6.009c-0.474-3.788,2.268-7.233,6.135-7.698
			c3.867-0.463,7.387,2.231,7.86,6.019C34.814,34.458,32.061,37.895,28.193,38.359z"/>
		<path fill="#7690E2" d="M23.282,21.39c-1.233,0.147-2.358-0.705-2.509-1.912c-0.151-1.208,0.73-2.301,1.963-2.449
			c1.233-0.148,2.348,0.706,2.499,1.913C25.386,20.15,24.515,21.241,23.282,21.39z"/>
		<path fill="#7690E2" d="M30.687,14.6c-0.417-0.106-0.787-0.352-1.041-0.686c-0.235-0.273-0.395-0.618-0.444-1.006
			c-0.138-1.105,0.67-2.106,1.799-2.242s2.15,0.646,2.289,1.751c0.138,1.105-0.659,2.116-1.787,2.25
			C31.219,14.703,30.939,14.673,30.687,14.6z"/>
		<path fill="#7690E2" d="M38.413,40.084c0.153-0.393,0.452-0.708,0.844-0.891c0.168-0.093,0.353-0.146,0.551-0.17
			c0.962-0.115,1.842,0.559,1.958,1.49c0.117,0.941-0.571,1.803-1.532,1.919c-0.951,0.114-1.831-0.56-1.948-1.501
			C38.249,40.634,38.297,40.347,38.413,40.084z"/>
		<path fill="#7690E2" d="M39.922,28.142c-0.229-0.648-0.298-1.367-0.145-2.091c0.041-0.182,0.083-0.353,0.158-0.518
			c0.64-1.833,2.59-2.949,4.581-2.565c2.175,0.435,3.582,2.521,3.148,4.651c-0.444,2.131-2.564,3.508-4.75,3.074
			C41.478,30.407,40.377,29.406,39.922,28.142z"/>
	</g>
	<g>
		<path fill="#85A3ED" d="M18.429-1.361c-0.394-3.152,1.894-6.018,5.112-6.403c3.217-0.387,6.145,1.854,6.539,5.006
			c0.394,3.152-1.894,6.018-5.112,6.404C21.75,4.031,18.824,1.791,18.429-1.361z"/>
		<path fill="#7690E2" d="M22.965-2.217c-0.758,0.091-1.452-0.44-1.544-1.183c-0.093-0.745,0.449-1.421,1.207-1.512
			c0.761-0.091,1.454,0.436,1.547,1.182C24.268-2.987,23.725-2.309,22.965-2.217z"/>
		<path fill="#7690E2" d="M26.711,1.598c-1.138,0.137-2.169-0.655-2.308-1.767c-0.139-1.112,0.666-2.125,1.805-2.261
			c1.135-0.136,2.169,0.656,2.308,1.767C28.655,0.448,27.846,1.462,26.711,1.598z"/>
		<path fill="#7690E2" d="M26.088-3.548c-0.494,0.06-0.943-0.285-1.004-0.769S25.375-5.241,25.87-5.3
			c0.494-0.06,0.943,0.285,1.003,0.769C26.934-4.047,26.582-3.607,26.088-3.548z"/>
	</g>
</g>
<g opacity="0.2">
	<g>
		<path fill="#7690E2" d="M64.494,65.343c-1.119-8.947,5.38-17.088,14.516-18.185c9.136-1.096,17.449,5.269,18.567,14.217
			c1.119,8.947-5.379,17.088-14.516,18.184C73.926,80.656,65.613,74.291,64.494,65.343z"/>
		<path fill="#85A3ED" d="M75.732,77.333c-1.551,0.186-2.958-0.897-3.147-2.411c-0.19-1.519,0.91-2.897,2.461-3.083
			c1.551-0.185,2.958,0.892,3.148,2.411C78.384,75.762,77.284,77.146,75.732,77.333z"/>
		<path fill="#85A3ED" d="M56.699,68.5c-0.31-2.473,1.489-4.727,4.015-5.03c1.415-0.169,2.758,0.307,3.72,1.202
			c0.429,0.392,0.784,0.869,1.027,1.412c0.544-0.372,1.096-0.739,1.655-1.09l0.017,0.033c0.923,0.923,1.222,2.394,0.75,3.59
			c-0.662-0.133-1.33-0.266-1.992-0.405l-0.026-0.003c-0.021,0.446-0.113,0.876-0.267,1.285c-0.568,1.539-1.988,2.719-3.765,2.932
			C59.308,72.729,57.007,70.972,56.699,68.5z"/>
		<path fill="#85A3ED" d="M80.921,83.905c0.192,1.542-0.934,2.953-2.508,3.142c-1.581,0.189-3.016-0.914-3.208-2.457
			c-0.193-1.547,0.927-2.953,2.508-3.142c0.101-0.012,0.203-0.018,0.298-0.024c0.043-0.667,0.082-1.326,0.125-1.993
			c0.025-0.47,0.057-0.94,0.083-1.41c0.005-0.001,0.005-0.001,0.005-0.001c0.077-0.015,0.159-0.031,0.236-0.046
			c0.36-0.06,0.74-0.059,1.077,0.078c0.209,0.082,0.408,0.223,0.54,0.408c-0.126,0.387-0.253,0.774-0.367,1.167
			c-0.2,0.668-0.381,1.339-0.55,2.015C80.087,82.014,80.79,82.857,80.921,83.905z"/>
		<path fill="#85A3ED" d="M70.125,76.038c0.344,0.531,0.577,1.142,0.66,1.805c0.302,2.416-1.455,4.611-3.916,4.906
			c-2.465,0.296-4.706-1.419-5.008-3.834c-0.302-2.409,1.45-4.604,3.916-4.9c1.034-0.124,2.034,0.11,2.868,0.601
			C69.244,74.969,69.75,75.451,70.125,76.038z"/>
		<path fill="#85A3ED" d="M73.578,48.761c-0.355-0.43-0.589-0.951-0.663-1.539c-0.211-1.693,1.02-3.229,2.743-3.436
			c1.729-0.208,3.296,0.992,3.508,2.686c0.029,0.227,0.032,0.451,0.005,0.667c-0.132,1.409-1.251,2.583-2.749,2.763
			C75.299,50.037,74.234,49.574,73.578,48.761z"/>
		<path fill="#85A3ED" d="M71.467,75.24l0.007,0.011c-0.344,0.242-0.709,0.457-1.083,0.649c-0.576-0.463-1.115-0.959-1.604-1.497
			c0.244-0.366,0.462-0.741,0.649-1.13C70.461,73.37,71.364,74.23,71.467,75.24z"/>
		<path fill="#85A3ED" d="M58.871,52.646c-0.254-2.037,1.227-3.886,3.307-4.136c2.079-0.249,3.973,1.195,4.228,3.232
			c0.051,0.401,0.033,0.793-0.047,1.164l0.056,0.011c0.438,0.213,0.874,0.427,1.305,0.646c1.326,0.668,2.632,1.368,3.922,2.093
			c-0.257,0.782-0.565,1.557-1.048,2.223c-0.34,0.466-0.772,0.873-1.279,1.152l-0.022-0.039c-1.087-0.926-2.152-1.874-3.187-2.86
			c-0.348-0.325-0.691-0.662-1.029-0.993l-0.049-0.059c-0.531,0.429-1.196,0.716-1.926,0.803
			C61.021,56.132,59.126,54.682,58.871,52.646z"/>
		<path fill="#85A3ED" d="M72.063,63.172c1.432-0.172,2.732,0.824,2.907,2.226c0.176,1.402-0.841,2.677-2.273,2.849
			c-1.426,0.17-2.732-0.824-2.908-2.227C69.613,64.618,70.636,63.343,72.063,63.172z"/>
		<path fill="#85A3ED" d="M102.851,64.63c0.29,2.31-1.389,4.413-3.754,4.697c-0.85,0.102-1.677-0.047-2.395-0.392
			c-1.23-0.579-2.151-1.721-2.375-3.129l-0.112,0.02l-1.325,0.158c-0.281-1.289-0.039-2.671,0.665-3.795l0.075-0.08
			c0.399,0.348,0.771,0.711,1.121,1.1c0.556-1.053,1.552-1.858,2.788-2.153c0.164-0.044,0.334-0.075,0.513-0.098
			C100.415,60.675,102.563,62.319,102.851,64.63z"/>
		<path fill="#85A3ED" d="M93.734,52.776c0.498-0.166,0.994-0.344,1.484-0.527c-0.606-1.959,0.317-4.12,2.265-5.032
			c2.148-1.008,4.726-0.119,5.755,1.991c1.029,2.104,0.121,4.628-2.033,5.637c-1.761,0.819-3.814,0.369-5.063-0.982
			c-0.303,0.32-0.594,0.645-0.884,0.98c-0.239,0.265-0.47,0.54-0.694,0.815c-0.98-0.497-1.704-1.467-1.88-2.532
			C93.041,53.013,93.388,52.9,93.734,52.776z"/>
		<path fill="#85A3ED" d="M100.975,80.637c0.252,2.013-1.213,3.849-3.27,4.095c-2.056,0.247-3.929-1.188-4.182-3.202
			c-0.148-1.188,0.296-2.311,1.111-3.081c-0.883-0.934-1.809-1.827-2.783-2.673c-0.345-0.3-0.697-0.601-1.052-0.889
			c0.142-0.407,0.404-0.769,0.746-1.028c0.362-0.286,0.818-0.447,1.286-0.467c0.172,0.316,0.351,0.63,0.54,0.938
			c0.679,1.183,1.397,2.349,2.144,3.494c0.385-0.2,0.814-0.334,1.278-0.39C98.85,77.188,100.723,78.617,100.975,80.637z"/>
		<path fill="#85A3ED" d="M90.764,57.715c0.136,1.094-0.662,2.093-1.785,2.229c-1.117,0.134-2.137-0.647-2.273-1.741
			c-0.137-1.1,0.66-2.1,1.777-2.233C89.606,55.834,90.626,56.616,90.764,57.715z"/>
		<path fill="#85A3ED" d="M89.328,80.817c0.099,0.792-0.474,1.51-1.282,1.607c-0.808,0.097-1.542-0.465-1.641-1.256
			c-0.077-0.611,0.251-1.176,0.771-1.451c-0.128-0.345-0.267-0.689-0.407-1.032c-0.252-0.625-0.517-1.244-0.793-1.86
			c0.232-0.075,0.476-0.098,0.72-0.075c0.409,0.04,0.801,0.234,1.079,0.526l0.138,0.958c0.062,0.447,0.123,0.889,0.185,1.336
			C88.731,79.666,89.247,80.166,89.328,80.817z"/>
		<path fill="#85A3ED" d="M84.326,67.82c1.616-0.194,3.089,0.929,3.288,2.512c0.197,1.583-0.956,3.021-2.571,3.214
			c-1.61,0.193-3.084-0.929-3.282-2.512C81.563,69.451,82.716,68.013,84.326,67.82z"/>
		<path fill="#85A3ED" d="M80.082,52.068c1.236-0.148,2.363,0.715,2.515,1.925c0.151,1.217-0.73,2.32-1.966,2.469
			c-1.242,0.148-2.369-0.714-2.521-1.93C77.959,53.321,78.84,52.217,80.082,52.068z"/>
		<path fill="#85A3ED" d="M84.782,61.912c0.288,2.31-1.391,4.414-3.75,4.696c-2.359,0.283-4.507-1.361-4.795-3.671
			c-0.29-2.311,1.39-4.414,3.749-4.697C82.344,57.958,84.492,59.603,84.782,61.912z"/>
		<path fill="#85A3ED" d="M86.896,64.594c-0.138-1.106,0.665-2.111,1.788-2.246c1.128-0.136,2.156,0.65,2.294,1.756
			s-0.665,2.112-1.794,2.247C88.061,66.486,87.034,65.7,86.896,64.594z"/>
		<path fill="#85A3ED" d="M85.46,51.477l0.091-0.088c0.426-0.647,0.903-1.266,1.428-1.842l0.058-0.067
			c-0.508-0.447-0.877-1.035-1.046-1.711c-0.041-0.131-0.064-0.27-0.082-0.415c-0.238-1.903,1.139-3.628,3.076-3.86
			c1.943-0.232,3.704,1.115,3.941,3.018c0.196,1.571-0.712,3.027-2.143,3.606c-0.292,0.124-0.607,0.209-0.939,0.249
			c-0.428,0.051-0.841,0.025-1.239-0.069l-0.011,0.06c-0.182,0.713-0.364,1.426-0.546,2.138l-0.014,0.18
			C87.063,52.625,86.11,52.19,85.46,51.477z"/>
	</g>
	<g>
		<path fill="#85A3ED" d="M25.68,86.24c-0.884-7.069,4.248-13.498,11.465-14.363c7.218-0.866,13.782,4.161,14.666,11.229
			c0.884,7.068-4.248,13.497-11.465,14.363C33.127,98.335,26.564,93.31,25.68,86.24z"/>
		<path fill="#7690E2" d="M35.852,84.321c-1.699,0.204-3.254-0.987-3.463-2.651c-0.209-1.672,1.007-3.188,2.708-3.392
			c1.707-0.205,3.261,0.978,3.47,2.65C38.774,82.593,37.559,84.116,35.852,84.321z"/>
		<path fill="#7690E2" d="M44.255,92.877c-2.553,0.306-4.866-1.471-5.177-3.964c-0.312-2.493,1.495-4.764,4.048-5.07
			c2.545-0.305,4.865,1.471,5.177,3.963C48.614,90.3,46.8,92.572,44.255,92.877z"/>
		<path fill="#7690E2" d="M42.857,81.336c-1.108,0.133-2.117-0.639-2.253-1.724c-0.135-1.085,0.653-2.073,1.762-2.207
			c1.108-0.132,2.116,0.64,2.251,1.725C44.754,80.216,43.965,81.204,42.857,81.336z"/>
	</g>
	<path fill="#85A3ED" d="M54.566,101.398c3.765-0.448,3.06-6.178-0.71-5.729C50.091,96.116,50.796,101.846,54.566,101.398z"/>
	<path fill="#85A3ED" d="M68.754,109.313c3.764-0.448,3.061-6.178-0.71-5.729C64.279,104.031,64.984,109.761,68.754,109.313z"/>
	<path fill="#85A3ED" d="M47.573,65.974c3.765-0.447,3.06-6.178-0.71-5.729C43.098,60.692,43.803,66.422,47.573,65.974z"/>
	<path fill="#85A3ED" d="M48.191,51.595c3.765-0.448,3.06-6.178-0.71-5.729C43.716,46.313,44.42,52.042,48.191,51.595z"/>
	<path fill="#85A3ED" d="M36.407,53.388c3.765-0.448,3.06-6.178-0.71-5.729C31.933,48.105,32.637,53.836,36.407,53.388z"/>
</g>
</svg>
