<?xml version="1.0" encoding="utf-8"?>
<!-- Generator: Adobe Illustrator 16.0.0, SVG Export Plug-In . SVG Version: 6.00 Build 0)  -->
<!DOCTYPE svg PUBLIC "-//W3C//DTD SVG 1.1//EN" "http://www.w3.org/Graphics/SVG/1.1/DTD/svg11.dtd">
<svg version="1.1" id="Layer_1" xmlns="http://www.w3.org/2000/svg" xmlns:xlink="http://www.w3.org/1999/xlink" x="0px" y="0px"
	 width="136.5px" height="108.5px" viewBox="0 0 136.5 108.5" enable-background="new 0 0 136.5 108.5" xml:space="preserve">
<g id="XMLID_1_">
	<g>
		<path fill="#FFFFFF" d="M88.289,36.859c2.56,0.914,4.659,3.605,4.059,6.261c-0.427,1.836-1.918,3.134-3.547,4.187
			c-4.719-0.635-9.402-1.697-14.087-2.584c1.68-2.083,1.56-5.407-0.219-7.428c-1.862-2.108-5.214-2.638-7.704-1.34
			c-0.776,0.39-1.454,0.939-2.058,1.557c-0.259,0.278-0.538,0.583-0.913,0.638c-0.41,0.059-0.792-0.193-1.15-0.402
			c-2.009-1.175-4.71-1.053-6.608,0.288c-1.802,1.271-2.804,3.569-2.524,5.755c-4.312,0.706-8.655,1.724-12.844,1.203
			c-0.993-1.237-1.28-3.102-0.626-4.59c0.913-2.088,3.238-3.327,5.521-3.404c-1.047-3.753,0.66-8.108,3.979-10.154
			c3.315-2.046,7.966-1.619,10.857,0.993c1.019-3.5,4.144-6.244,7.706-7.052c3.561-0.802,7.437,0.253,10.274,2.551
			c2.038,1.655,3.589,3.972,4.041,6.548c0.444,2.586-0.296,5.415-2.186,7.237C82.891,36.397,85.728,35.945,88.289,36.859z"/>
		<path fill="#CEE5EF" d="M74.495,37.294c1.778,2.021,1.898,5.345,0.219,7.428c-6.016-1.141-12.035-2.012-18.094-1.36
			c-1.028,0.113-2.055,0.262-3.082,0.427c-0.279-2.186,0.723-4.483,2.524-5.755c1.897-1.34,4.599-1.462,6.608-0.288
			c0.358,0.208,0.74,0.461,1.15,0.402c0.375-0.054,0.654-0.359,0.913-0.638c0.604-0.617,1.281-1.167,2.058-1.557
			C69.281,34.656,72.633,35.186,74.495,37.294z"/>
		<path fill="#FFFFFF" d="M33.092,44.913c0.042,0.191,0.068,0.393,0.077,0.6c-0.242,0.854-0.165,1.882,0.114,2.744
			c0.933,2.892,3.432,5.154,6.332,5.999c-4.528,0.54-9.039,1.184-13.532,1.924c-2.524,0.427-5.259,0.985-6.95,2.908
			c-0.774,0.889-1.13,2.152-1.062,3.327c0.096,1.384,0.793,2.647,2.125,3.039l0.061,0.288c-0.67,0.156-1.341,0.338-2.003,0.555
			c-1.367,0.455-2.733,1.082-3.649,2.195c-0.268,0.332-0.487,0.714-0.644,1.124c-2.271-0.419-4.101-2.639-4.354-5.015
			c-0.026-0.288-0.034-0.575-0.017-0.863c0.08-1.192,0.487-2.316,1.133-3.309c1.01-1.549,2.576-2.778,4.317-3.447
			c-0.609-0.611-1.184-1.324-1.619-2.092c-0.809-1.408-1.167-2.994-0.47-4.414c0.461-0.947,1.34-1.637,2.265-2.132
			c2.394-1.281,5.336-1.462,7.87-0.489c-0.313-2.77,1.411-5.747,4.103-6.469C29.671,40.724,32.597,42.439,33.092,44.913z"/>
		<path fill="#EC7723" d="M15.825,73.751l-0.122,0.305c-1.681-0.26-3.335-0.694-4.929-1.287c-1.95-0.723-3.945-1.829-4.798-3.728
			c-0.268-0.609-0.399-1.298-0.25-1.941c0.216-0.896,0.965-1.593,1.81-1.978c0.654-0.287,1.358-0.427,2.072-0.521
			c0.253,2.376,2.083,4.596,4.354,5.015c-0.358,0.958-0.358,2.037,0.199,2.874C14.562,73.09,15.154,73.482,15.825,73.751z"/>
		<path fill="#EC7723" d="M18.76,80.439c0.427,0.714,1.158,1.254,1.898,1.672c0.626,0.356,1.281,0.67,1.95,0.923l-0.009,0.017
			c-2.186,0.034-4.371-0.165-6.522-0.6c-1.008-0.199-2.036-0.471-2.924-1.002c-0.89-0.541-1.639-1.384-1.838-2.402
			c-0.27-1.351,0.479-2.743,1.532-3.623c0.819-0.671,1.821-1.106,2.874-1.246l-0.017-0.122l0.122-0.305
			c0.541,0.228,1.122,0.375,1.68,0.506c2.49,0.566,4.998,1.011,7.533,1.315l-0.025,0.183c-1.5-0.086-3.056-0.157-4.425,0.435
			c-1.375,0.602-2.482,2.09-2.124,3.544C18.523,79.986,18.629,80.223,18.76,80.439z"/>
		<path fill="#EC7723" d="M31.942,88.058c0,0.046,0,0.088,0.009,0.131c0.07,0.444,0.435,0.785,0.782,1.072
			c1.343,1.079,2.866,1.88,4.468,2.516l-0.051,0.148c-3.868-0.48-7.741-0.976-11.478-2.063c-1.044-0.304-2.106-0.672-2.908-1.411
			c-0.8-0.731-1.272-1.924-0.88-2.934c0.384-0.968,1.403-1.489,2.359-1.925c2.544,0.731,5.27,0.957,7.934,1.088
			c1.079,0.053,2.168,0.087,3.248,0.113c-0.95,0.504-1.847,1.124-2.647,1.847C32.352,87.013,31.925,87.511,31.942,88.058z"/>
		<path fill="#EC7723" d="M110.866,36.449c2.778,2.055,5.052,4.807,6.514,7.941c-7.437,2.43-15.098,3.824-22.918,3.458
			c-1.531-0.07-3.057-0.208-4.579-0.394l0.043-0.322c5.103-1.428,9.762-4.083,14.332-6.765
			C106.47,39.07,108.672,37.764,110.866,36.449z"/>
		<path fill="#F99E1C" d="M55.157,60.665l0.017,0.837c-9.577,1.096-19.155,2.194-28.735,3.29c-2.072,0.244-4.152,0.487-6.181,0.95
			l-0.061-0.288c-1.332-0.392-2.029-1.655-2.125-3.039C30.402,61.317,42.783,60.733,55.157,60.665z"/>
		<path fill="#F99E1C" d="M54.521,73.289l0.035,0.046c-2.046,1.915-4.912,2.655-7.664,3.257C37.637,78.62,28.217,79.9,18.76,80.439
			c-0.131-0.217-0.236-0.453-0.296-0.706c-0.358-1.454,0.749-2.942,2.124-3.544c1.369-0.592,2.925-0.521,4.425-0.435l0.025-0.183
			C34.885,76.773,44.977,76.008,54.521,73.289z"/>
		<path fill="#F99E1C" d="M61.262,82.878c-8.953,4.423-19.262,4.964-29.32,5.18c-0.017-0.547,0.41-1.045,0.837-1.418
			c0.8-0.723,1.697-1.343,2.647-1.847C44.072,84.992,52.735,84.357,61.262,82.878z"/>
		<path fill="#FFC33F" d="M117.38,44.39c1.967-0.635,3.92-1.35,5.852-2.116c6.671,7.994,9.936,18.747,8.925,29.1
			c-7.279,1.298-14.488,2.804-21.384,5.434C98.589,81.458,87.8,89.495,75.28,93.126c-10.746,3.116-22.31,2.794-33.175,0.157
			c-1.656-0.402-3.319-0.863-4.904-1.507c-1.602-0.636-3.125-1.437-4.468-2.516c-0.347-0.287-0.712-0.628-0.782-1.072
			c-0.009-0.043-0.009-0.085-0.009-0.131c10.058-0.216,20.367-0.757,29.32-5.18c-8.526,1.479-17.19,2.114-25.836,1.915
			c-1.079-0.026-2.168-0.061-3.248-0.113c-2.664-0.131-5.39-0.356-7.934-1.088c-0.555-0.156-1.104-0.341-1.636-0.558
			c-0.669-0.253-1.324-0.566-1.95-0.923c-0.74-0.418-1.471-0.958-1.898-1.672c9.457-0.539,18.877-1.819,28.132-3.848
			c2.752-0.602,5.618-1.342,7.664-3.257l-0.035-0.046c-9.544,2.719-19.637,3.484-29.484,2.283c-2.535-0.305-5.042-0.749-7.533-1.315
			c-0.558-0.131-1.139-0.278-1.68-0.506c-0.671-0.269-1.263-0.661-1.665-1.261c-0.557-0.837-0.557-1.916-0.199-2.874
			c0.157-0.41,0.375-0.792,0.644-1.124c0.916-1.113,2.282-1.74,3.649-2.195c0.663-0.217,1.333-0.398,2.003-0.555
			c2.029-0.463,4.109-0.706,6.181-0.95c9.58-1.096,19.158-2.194,28.735-3.29l-0.017-0.837c-12.374,0.068-24.754,0.652-37.085,1.75
			c-0.069-1.175,0.287-2.438,1.062-3.327c1.69-1.923,4.425-2.481,6.95-2.908c4.494-0.74,9.004-1.384,13.532-1.924
			c6.33-0.766,12.687-1.331,19.051-1.699c-6.244-0.165-12.451-1.323-18.347-3.387c-2.568-0.905-5.163-2.046-7.019-4.021
			c0.21-0.507,0.566-0.925,1.09-1.159c1.062-0.497,2.3,0.008,3.413,0.374c0.95,0.304,1.915,0.515,2.891,0.628
			c4.189,0.521,8.532-0.498,12.844-1.203c1.027-0.165,2.054-0.313,3.082-0.427c6.059-0.652,12.079,0.219,18.094,1.36
			c4.685,0.887,9.368,1.949,14.087,2.584c0.358,0.053,0.724,0.105,1.082,0.147c1.522,0.185,3.048,0.324,4.579,0.394
			C102.282,48.214,109.943,46.82,117.38,44.39z"/>
		<path fill="#FFFFFF" d="M47.721,15.611c1.949,0,3.526,1.576,3.526,3.528c0,1.941-1.577,3.518-3.526,3.518
			c-1.941,0-3.518-1.577-3.518-3.518C44.203,17.188,45.779,15.611,47.721,15.611z"/>
		<path fill="#F99E1C" d="M58.666,52.557c-6.364,0.368-12.721,0.934-19.051,1.699c-2.9-0.845-5.399-3.107-6.332-5.999
			c-0.279-0.862-0.356-1.89-0.114-2.744c0.037-0.131,0.08-0.252,0.131-0.364c1.855,1.975,4.451,3.116,7.019,4.021
			C46.214,51.233,52.422,52.392,58.666,52.557z"/>
		<path fill="#FFFFFF" d="M40.677,7.158c1.941,0,3.518,1.583,3.518,3.526c0,1.941-1.577,3.518-3.518,3.518
			c-1.953,0-3.526-1.577-3.526-3.518C37.15,8.741,38.724,7.158,40.677,7.158z"/>
		<path fill="#FFFFFF" d="M33.606,20.523c4.441,0,8.036,3.597,8.036,8.028c0,4.44-3.595,8.037-8.036,8.037
			c-4.433,0-8.028-3.597-8.028-8.037C25.579,24.12,29.173,20.523,33.606,20.523z"/>
	</g>
</g>
</svg>
