<?xml version="1.0" encoding="utf-8"?>
<!-- Generator: Adobe Illustrator 16.0.0, SVG Export Plug-In . SVG Version: 6.00 Build 0)  -->
<!DOCTYPE svg PUBLIC "-//W3C//DTD SVG 1.1//EN" "http://www.w3.org/Graphics/SVG/1.1/DTD/svg11.dtd">
<svg version="1.1" id="Layer_1" xmlns="http://www.w3.org/2000/svg" xmlns:xlink="http://www.w3.org/1999/xlink" x="0px" y="0px"
	 width="612px" height="792px" viewBox="0 0 612 792" enable-background="new 0 0 612 792" xml:space="preserve">
<title>Illustration 02</title>
<desc>Created with Sketch.</desc>
<g id="Home-Page-Design---WeDevs-U3">
	<g id="Illustration-02" transform="translate(-229.000000, -65.000000)">
		<g id="Oval" opacity="0.1529">
			<g>
				<circle id="path-16_1_" fill="none" cx="615.124" cy="495.726" r="9.876"/>
			</g>
		</g>
		<g id="Oval-Copy-16" opacity="0.7059">
			<g>
				<circle id="path-64_1_" fill="none" cx="796.574" cy="379.877" r="3.09"/>
			</g>
		</g>
	</g>
</g>
<g id="Asset-1-Copy-3" transform="translate(801.000000, 796.027589)">
	
		<linearGradient id="Oval_2_" gradientUnits="userSpaceOnUse" x1="-1216.9873" y1="128.9695" x2="-1216.7445" y2="127.9579" gradientTransform="matrix(2.76 0.667 0.667 -2.76 2472.7793 623.4021)">
		<stop  offset="0" style="stop-color:#0575E6"/>
		<stop  offset="1" style="stop-color:#021B79"/>
	</linearGradient>
	<circle id="Oval_1_" fill="url(#Oval_2_)" cx="-800.108" cy="-542.84" r="1.465"/>
</g>
<g id="Asset-2" transform="translate(830.000000, 746.027589)">
	
		<linearGradient id="Oval_4_" gradientUnits="userSpaceOnUse" x1="-1216.6064" y1="37.1365" x2="-1215.5663" y2="37.1069" gradientTransform="matrix(3.7985 12.9949 12.9949 -3.7985 3317.231 15467.7939)">
		<stop  offset="0" style="stop-color:#25F0F7"/>
		<stop  offset="1" style="stop-color:#2925F7"/>
	</linearGradient>
	<circle id="Oval_3_" fill="url(#Oval_4_)" cx="-819.646" cy="-476.114" r="7.041"/>
	<path id="Path_3_" opacity="0.2" enable-background="new    " d="M-813.02-473.693c-0.191,0.063-0.382,0.127-0.573,0.191
		c-3.728,0.956-7.551-1.274-8.538-5.001c-0.382-1.402-0.287-2.868,0.223-4.237c-3.059,1.083-4.97,4.11-4.651,7.328
		c0.318,3.217,2.867,5.798,6.085,6.18C-817.257-468.819-814.167-470.667-813.02-473.693L-813.02-473.693z"/>
	<path id="Path_1_" opacity="0.2" fill="#FFFFFF" enable-background="new    " d="M-814.676-477.484
		c-0.701,0.191-1.434-0.223-1.625-0.956c-0.191-0.701,0.223-1.434,0.956-1.625c0.701-0.191,1.434,0.223,1.625,0.956
		C-813.529-478.376-813.975-477.676-814.676-477.484z"/>
	<path id="Path_2_" opacity="0.2" fill="#FFFFFF" enable-background="new    " d="M-816.173-480.097
		c-0.351,0.096-0.701-0.127-0.796-0.478c-0.096-0.351,0.127-0.701,0.478-0.796c0.351-0.096,0.701,0.127,0.797,0.478
		C-815.6-480.574-815.791-480.192-816.173-480.097z"/>
</g>
<ellipse id="Oval-Copy-95" fill="#FFFFFF" cx="9.483" cy="418.374" rx="0.669" ry="0.669"/>
<ellipse id="Oval-Copy-96" fill="#FFFFFF" cx="30.085" cy="366.051" rx="0.669" ry="0.669"/>
<ellipse id="Oval-Copy-97" fill="#FFFFFF" cx="39.229" cy="440.93" rx="0.669" ry="0.669"/>
<ellipse id="Oval-Copy-102" fill="#FFFFFF" cx="45.206" cy="447.899" rx="1.975" ry="1.975"/>
<ellipse id="Oval-Copy-84" fill="#FFFFFF" cx="77.019" cy="453.933" rx="0.669" ry="0.669"/>
<g id="Asset-3-Copy-2" transform="translate(1194.000000, 679.027589)">
	
		<radialGradient id="Path_4_" cx="-2369.3203" cy="56.0955" r="0.5171" gradientTransform="matrix(-0.0068 4.5112 4.5112 0.0068 -1454.8938 10393.3379)" gradientUnits="userSpaceOnUse">
		<stop  offset="0" style="stop-color:#FFFFFF"/>
		<stop  offset="0.09" style="stop-color:#FFFFFF;stop-opacity:0.87"/>
		<stop  offset="0.28" style="stop-color:#FFFFFF;stop-opacity:0.61"/>
		<stop  offset="0.46" style="stop-color:#FFFFFF;stop-opacity:0.39"/>
		<stop  offset="0.63" style="stop-color:#FFFFFF;stop-opacity:0.22"/>
		<stop  offset="0.78" style="stop-color:#FFFFFF;stop-opacity:0.1"/>
		<stop  offset="0.91" style="stop-color:#FFFFFF;stop-opacity:0.03"/>
		<stop  offset="1" style="stop-color:#FFFFFF;stop-opacity:0"/>
	</radialGradient>
	<path id="Path_27_" fill="url(#Path_4_)" d="M-1185.813-292.449c-0.956,0-1.816-0.573-2.167-1.434
		c-0.35-0.892-0.159-1.879,0.51-2.549c0.669-0.669,1.688-0.86,2.549-0.51c0.892,0.351,1.434,1.211,1.434,2.167
		C-1183.455-293.469-1184.506-292.449-1185.813-292.449z"/>
</g>
<g id="Asset-4" transform="translate(1596.000000, 458.027589)">
	
		<linearGradient id="Path_5_" gradientUnits="userSpaceOnUse" x1="-3533.001" y1="301.988" x2="-3531.9604" y2="301.988" gradientTransform="matrix(-0.0119 7.9009 7.9009 0.0119 -3913.6936 27967.1406)">
		<stop  offset="0" style="stop-color:#EA288D"/>
		<stop  offset="0.22" style="stop-color:#F05C8F"/>
		<stop  offset="0.49" style="stop-color:#F69592"/>
		<stop  offset="0.71" style="stop-color:#FBBE94"/>
		<stop  offset="0.89" style="stop-color:#FED795"/>
		<stop  offset="1" style="stop-color:#FFE095"/>
	</linearGradient>
	<path id="Path_29_" fill="url(#Path_5_)" d="M-1485.77,65.128c-2.262,0-4.11-1.848-4.11-4.109s1.848-4.109,4.11-4.109
		c2.262,0,4.11,1.848,4.11,4.109c0,1.083-0.446,2.135-1.21,2.899S-1484.687,65.128-1485.77,65.128z"/>
	<g id="Group" transform="translate(10.000000, 3.000000)" opacity="0.2">
		<path id="Path_30_" fill="#A3A3A3" d="M-1493.667,58.879c-0.446,0-0.829-0.383-0.829-0.828c0-0.446,0.382-0.829,0.829-0.829
			c0.446,0,0.828,0.383,0.828,0.829C-1492.839,58.496-1493.189,58.879-1493.667,58.879z"/>
		<path id="Path_31_" fill="#A3A3A3" d="M-1492.839,58.018c0-0.255-0.127-0.51-0.319-0.669c0.127,0.159,0.223,0.351,0.223,0.542
			c0,0.318-0.191,0.604-0.446,0.732c-0.255,0.127-0.605,0.096-0.86-0.096c0.223,0.255,0.605,0.351,0.924,0.223
			C-1493.03,58.687-1492.807,58.369-1492.839,58.018L-1492.839,58.018z"/>
	</g>
	<g id="Group_1_" transform="translate(21.000000, 12.000000)" opacity="0.2">
		<path id="Path_32_" fill="#A3A3A3" d="M-1507.152,52.714c-0.159,0-0.287-0.096-0.35-0.223c-0.064-0.128-0.032-0.287,0.063-0.414
			c0.096-0.096,0.255-0.128,0.414-0.096c0.223,0.032,0.382,0.223,0.351,0.446C-1506.738,52.65-1506.961,52.746-1507.152,52.714
			L-1507.152,52.714z"/>
		<path id="Path_33_" fill="#A3A3A3" d="M-1506.674,52.427c0.032-0.128-0.032-0.224-0.127-0.319c0.063,0.064,0.063,0.16,0.063,0.255
			c-0.063,0.224-0.287,0.319-0.51,0.255c-0.095-0.031-0.191-0.063-0.255-0.127c0.064,0.096,0.191,0.159,0.287,0.191
			C-1506.961,52.746-1506.738,52.65-1506.674,52.427z"/>
	</g>
	<g id="Group_2_" transform="translate(18.000000, 17.000000)" opacity="0.2">
		<path id="Path_34_" fill="#A3A3A3" d="M-1506,46.471c-0.127-0.096-0.191-0.287-0.127-0.414c0.127-0.128,0.287-0.128,0.446-0.032
			c0.096,0.064,0.127,0.159,0.127,0.255s-0.063,0.191-0.159,0.224C-1505.809,46.535-1505.937,46.535-1506,46.471L-1506,46.471z"/>
		<path id="Path_35_" fill="#A3A3A3" d="M-1505.554,46.439c0.064-0.063,0.064-0.159,0.032-0.255c0,0.064,0,0.128-0.032,0.191
			c-0.127,0.128-0.287,0.128-0.446,0.032c-0.063-0.032-0.096-0.096-0.127-0.159c0.032,0.095,0.063,0.159,0.159,0.223
			C-1505.873,46.598-1505.682,46.567-1505.554,46.439z"/>
	</g>
	<g id="Group_3_" transform="translate(20.000000, 6.000000)" opacity="0.2">
		<path id="Path_36_" fill="#A3A3A3" d="M-1503.763,58.108c-0.064,0.064-0.191,0.064-0.287,0c-0.064-0.095-0.032-0.19,0.032-0.255
			c0.032-0.063,0.127-0.063,0.191-0.063c0.064,0,0.127,0.063,0.127,0.159C-1503.667,58.013-1503.699,58.077-1503.763,58.108
			L-1503.763,58.108z"/>
		<path id="Path_37_" fill="#A3A3A3" d="M-1503.731,57.853c-0.032-0.031-0.096-0.063-0.159-0.063
			C-1503.858,57.79-1503.795,57.822-1503.731,57.853c0.032,0.096,0,0.224-0.063,0.287c-0.032,0.032-0.064,0.063-0.127,0.063
			c0.063,0,0.127-0.031,0.159-0.063s0.063-0.063,0.063-0.127C-1503.699,57.949-1503.699,57.918-1503.731,57.853L-1503.731,57.853z"
			/>
	</g>
	<g id="Group_4_" transform="translate(4.000000, 19.000000)" opacity="0.2">
		<path id="Path_38_" fill="#A3A3A3" d="M-1492.478,40.426c-0.191,0-0.35-0.096-0.414-0.287c-0.063-0.159-0.032-0.351,0.096-0.478
			c0.127-0.128,0.318-0.159,0.478-0.096c0.159,0.063,0.287,0.223,0.287,0.414C-1492.032,40.203-1492.255,40.426-1492.478,40.426
			L-1492.478,40.426z"/>
		<path id="Path_39_" fill="#A3A3A3" d="M-1492.032,39.979c0-0.127-0.064-0.255-0.159-0.351c0.063,0.096,0.127,0.191,0.127,0.287
			c0,0.255-0.191,0.446-0.446,0.446c-0.096,0-0.191-0.032-0.255-0.096c0.096,0.096,0.191,0.159,0.319,0.159
			C-1492.255,40.426-1492.032,40.203-1492.032,39.979L-1492.032,39.979z"/>
	</g>
	<g id="Group_5_" transform="translate(1.000000, 7.000000)" opacity="0.2">
		<path id="Path_40_" fill="#A3A3A3" d="M-1485.272,50.705c0,0.224-0.191,0.414-0.414,0.414c-0.223,0-0.415-0.19-0.415-0.414
			c0-0.223,0.191-0.414,0.415-0.414C-1485.432,50.291-1485.272,50.482-1485.272,50.705L-1485.272,50.705z"/>
		<path id="Path_41_" fill="#A3A3A3" d="M-1485.687,50.323c-0.127,0-0.255,0.063-0.319,0.159c0.064-0.063,0.191-0.096,0.287-0.096
			c0.223,0,0.415,0.191,0.415,0.414c0,0.096-0.032,0.159-0.096,0.223c0.096-0.063,0.159-0.19,0.159-0.286s-0.032-0.224-0.127-0.287
			C-1485.464,50.354-1485.559,50.323-1485.687,50.323z"/>
	</g>
	<g id="Group_6_" transform="translate(5.000000, 10.000000)" opacity="0.2">
		<path id="Path_42_" fill="#A3A3A3" d="M-1490.037,49.234c-0.032,0.318-0.318,0.573-0.637,0.573c-0.318,0-0.605-0.255-0.605-0.604
			c0.032-0.319,0.319-0.574,0.637-0.574C-1490.324,48.629-1490.069,48.884-1490.037,49.234L-1490.037,49.234z"/>
		<path id="Path_43_" fill="#A3A3A3" d="M-1490.643,48.629c-0.191,0-0.382,0.064-0.51,0.224c0.127-0.096,0.255-0.128,0.415-0.128
			c0.318,0,0.605,0.255,0.605,0.605c0,0.127-0.063,0.255-0.127,0.351c0.127-0.096,0.223-0.255,0.223-0.446
			c0-0.159-0.063-0.318-0.191-0.414C-1490.355,48.724-1490.483,48.629-1490.643,48.629z"/>
	</g>
</g>
<path fill="#162E66" fill-opacity="0.651" d="M-7.009,434.103c-18.478,0-33.451-14.974-33.451-33.451
	c0-18.478,14.973-33.451,33.451-33.451s33.451,14.973,33.451,33.451C26.442,419.129,11.469,434.103-7.009,434.103z M-6.945,425.405
	c13.636,0,24.69-11.055,24.69-24.69c0-13.635-11.055-24.69-24.69-24.69c-13.635,0-24.69,11.055-24.69,24.69
	C-31.635,414.351-20.581,425.405-6.945,425.405z"/>
<linearGradient id="Polygon-Copy-2_2_" gradientUnits="userSpaceOnUse" x1="1513.3711" y1="874.6543" x2="1513.2917" y2="875.0311" gradientTransform="matrix(14.3363 0 0 -14.3363 -21127.207 12857.1221)">
	<stop  offset="0" style="stop-color:#A75BFF"/>
	<stop  offset="1" style="stop-color:#E2CBFF"/>
</linearGradient>
<path id="Polygon-Copy-2_1_" opacity="0.7397" fill="url(#Polygon-Copy-2_2_)" enable-background="new    " d="M567.904,311.814
	l2.279,0.618c0.274,0.069,0.494,0.289,0.563,0.563l0.618,2.28c0.068,0.274,0,0.577-0.206,0.783l-1.676,1.675
	c-0.206,0.206-0.494,0.289-0.783,0.206l-2.279-0.618c-0.274-0.068-0.494-0.288-0.563-0.563l-0.618-2.28
	c-0.068-0.274,0-0.577,0.206-0.783l1.676-1.675C567.327,311.814,567.616,311.746,567.904,311.814z"/>
<g>
	<g>
		<g>
			<path fill="#00BBD6" d="M568.436,318.75c-0.041-0.028-0.066-0.077-0.062-0.13l0.082-0.899c0.008-0.078,0.076-0.135,0.154-0.128
				c0.078,0.006,0.136,0.076,0.128,0.154l-0.082,0.899c-0.008,0.078-0.076,0.135-0.154,0.128
				C568.478,318.771,568.455,318.762,568.436,318.75z"/>
		</g>
		<g>
			
				<ellipse transform="matrix(-0.9992 -0.0393 0.0393 -0.9992 1123.9875 659.393)" fill="#00BBD6" cx="568.478" cy="318.644" rx="0.571" ry="0.276"/>
		</g>
	</g>
	<g>
		<circle fill="#00BBD6" cx="568.467" cy="314.73" r="3.369"/>
	</g>
	<g>
		<circle fill="#00A1A8" cx="568.282" cy="312.448" r="0.612"/>
	</g>
	<g>
		<circle fill="#00A1A8" cx="568.995" cy="314.206" r="0.481"/>
	</g>
	<g>
		<circle fill="#00A1A8" cx="570.203" cy="315.991" r="0.799"/>
	</g>
	<g>
		<circle fill="#00A1A8" cx="566.631" cy="313.485" r="0.519"/>
	</g>
	<g>
		<circle fill="#00A1A8" cx="570.755" cy="313.975" r="0.394"/>
	</g>
	<g>
		<circle fill="#00A1A8" cx="568.335" cy="317.156" r="0.537"/>
	</g>
	<g>
		<g>
			<path fill="#00BBD6" d="M570.751,312.972c-0.015-0.01-0.028-0.024-0.039-0.04c-0.043-0.065-0.024-0.153,0.042-0.196l0.756-0.493
				c0.065-0.043,0.153-0.025,0.196,0.041c0.043,0.065,0.024,0.153-0.042,0.196l-0.756,0.494
				C570.859,313.006,570.797,313.003,570.751,312.972z"/>
		</g>
		<g>
			
				<ellipse transform="matrix(0.5895 0.8078 -0.8078 0.5895 486.9894 -333.5035)" fill="#00BBD6" cx="571.619" cy="312.383" rx="0.572" ry="0.276"/>
		</g>
	</g>
	<g>
		<g>
			<path fill="#00BBD6" d="M571.356,315.209c-0.038-0.026-0.066-0.066-0.076-0.115c-0.02-0.098,0.045-0.193,0.143-0.213l1.135-0.222
				c0.099-0.02,0.193,0.045,0.213,0.143s-0.045,0.193-0.144,0.212l-1.134,0.223C571.443,315.247,571.395,315.235,571.356,315.209z"
				/>
		</g>
		<g>
			
				<ellipse transform="matrix(0.2436 0.9699 -0.9699 0.2436 738.4992 -317.2022)" fill="#00BBD6" cx="572.62" cy="314.878" rx="0.732" ry="0.353"/>
		</g>
	</g>
	<g>
		<g>
			<path fill="#00BBD6" d="M568.818,311.847c-0.072-0.049-0.103-0.144-0.067-0.228l0.463-1.103c0.04-0.095,0.15-0.14,0.246-0.1
				c0.096,0.039,0.14,0.15,0.1,0.246l-0.463,1.102c-0.04,0.096-0.149,0.141-0.245,0.101
				C568.84,311.859,568.828,311.854,568.818,311.847z"/>
		</g>
		<g>
			
				<ellipse transform="matrix(0.9409 0.3388 -0.3388 0.9409 138.9088 -174.5215)" fill="#00BBD6" cx="569.357" cy="310.632" rx="0.757" ry="0.427"/>
		</g>
	</g>
	<g>
		<g>
			<path fill="#00BBD6" d="M570.787,318.507c-0.015-0.01-0.027-0.021-0.039-0.035l-0.894-1.011
				c-0.077-0.088-0.068-0.221,0.019-0.299c0.088-0.077,0.223-0.068,0.299,0.019l0.894,1.011c0.077,0.087,0.068,0.221-0.019,0.298
				C570.973,318.556,570.865,318.561,570.787,318.507z"/>
		</g>
		<g>
			
				<ellipse transform="matrix(-0.7142 0.6999 -0.6999 -0.7142 1201.4595 146.2066)" fill="#00BBD6" cx="570.881" cy="318.384" rx="0.854" ry="0.412"/>
		</g>
	</g>
	<g>
		<g>
			<path fill="#00BBD6" d="M564.315,314.422c-0.047-0.032-0.071-0.089-0.059-0.148c0.018-0.076,0.093-0.125,0.169-0.107l0.882,0.197
				c0.077,0.017,0.124,0.093,0.107,0.169s-0.093,0.125-0.169,0.107l-0.882-0.197C564.347,314.439,564.33,314.432,564.315,314.422z"
				/>
		</g>
		<g>
			
				<ellipse transform="matrix(0.1674 -0.9859 0.9859 0.1674 160.054 818.0645)" fill="#00BBD6" cx="564.389" cy="314.267" rx="0.572" ry="0.275"/>
		</g>
	</g>
	<g>
		<g>
			<path fill="#00BBD6" d="M567.087,312.104c-0.014-0.01-0.027-0.023-0.037-0.038l-0.757-1.119
				c-0.043-0.064-0.026-0.153,0.038-0.196c0.065-0.044,0.153-0.026,0.197,0.038l0.756,1.119c0.044,0.065,0.027,0.153-0.038,0.197
				C567.196,312.138,567.134,312.136,567.087,312.104z"/>
		</g>
		<g>
			
				<ellipse transform="matrix(0.7983 -0.6023 0.6023 0.7983 -72.9406 403.8564)" fill="#00BBD6" cx="566.442" cy="310.82" rx="0.854" ry="0.412"/>
		</g>
	</g>
	<g>
		<g>
			<path fill="#00BBD6" d="M565.333,317.55c-0.014-0.01-0.026-0.021-0.039-0.035c-0.066-0.08-0.057-0.199,0.023-0.267l1.032-0.87
				c0.08-0.067,0.199-0.056,0.266,0.022c0.067,0.08,0.058,0.199-0.022,0.267l-1.032,0.87
				C565.495,317.594,565.401,317.597,565.333,317.55z"/>
		</g>
		<g>
			
				<ellipse transform="matrix(-0.6836 -0.7299 0.7299 -0.6836 720.2473 947.1991)" fill="#00BBD6" cx="565.441" cy="317.477" rx="0.854" ry="0.412"/>
		</g>
	</g>
	<g>
		<circle fill="#00A1A8" cx="566.7" cy="315.902" r="0.629"/>
	</g>
</g>
<g>
	<circle fill="#EF675D" cx="482.211" cy="504.085" r="6.869"/>
	<circle fill="#DC5953" cx="480.946" cy="499.593" r="1.247"/>
	<circle fill="#DC5953" cx="483.061" cy="502.829" r="0.981"/>
	<circle fill="#DC5953" cx="486.18" cy="505.928" r="1.63"/>
	<circle fill="#DC5953" cx="478.049" cy="502.314" r="1.058"/>
	<circle fill="#DC5953" cx="486.493" cy="501.677" r="0.804"/>
	<circle fill="#DC5953" cx="482.9" cy="508.992" r="1.095"/>
	<g>
		
			<line fill="none" stroke="#EF675D" stroke-width="0.7174" stroke-linecap="round" stroke-linejoin="round" stroke-miterlimit="10" x1="486.206" y1="499.405" x2="487.525" y2="498.122"/>
		
			<ellipse transform="matrix(0.7336 0.6796 -0.6796 0.7336 468.4016 -198.6536)" fill="#EF675D" cx="487.598" cy="498.153" rx="1.165" ry="0.562"/>
	</g>
	<g>
		
			<line fill="none" stroke="#EF675D" stroke-width="0.7174" stroke-linecap="round" stroke-linejoin="round" stroke-miterlimit="10" x1="483.65" y1="510.044" x2="483.838" y2="511.875"/>
		
			<ellipse transform="matrix(-0.9882 0.1534 -0.1534 -0.9882 1040.3584 943.5309)" fill="#EF675D" cx="483.769" cy="511.912" rx="1.165" ry="0.562"/>
	</g>
	<g>
		
			<line fill="none" stroke="#EF675D" stroke-width="0.9501" stroke-linecap="round" stroke-linejoin="round" stroke-miterlimit="10" x1="481.934" y1="497.826" x2="482.427" y2="495.438"/>
		
			<ellipse transform="matrix(0.9885 0.1513 -0.1513 0.9885 80.5528 -67.2979)" fill="#EF675D" cx="482.386" cy="495.537" rx="1.542" ry="0.871"/>
	</g>
	<g>
		
			<line fill="none" stroke="#EF675D" stroke-width="1.0718" stroke-linecap="round" stroke-linejoin="round" stroke-miterlimit="10" x1="486.321" y1="508.663" x2="488.505" y2="510.336"/>
		
			<ellipse transform="matrix(-0.566 0.8244 -0.8244 -0.566 1185.7672 396.6474)" fill="#EF675D" cx="488.475" cy="510.45" rx="1.74" ry="0.838"/>
	</g>
	<g>
		
			<line fill="none" stroke="#EF675D" stroke-width="0.7174" stroke-linecap="round" stroke-linejoin="round" stroke-miterlimit="10" x1="475.738" y1="504.88" x2="473.897" y2="504.832"/>
		
			<ellipse transform="matrix(-0.026 -0.9997 0.9997 -0.026 -18.41 991.5797)" fill="#EF675D" cx="473.869" cy="504.759" rx="1.165" ry="0.562"/>
	</g>
	<g>
		
			<line fill="none" stroke="#EF675D" stroke-width="0.7174" stroke-linecap="round" stroke-linejoin="round" stroke-miterlimit="10" x1="478.534" y1="499.106" x2="476.582" y2="497.165"/>
		
			<ellipse transform="matrix(0.6674 -0.7447 0.7447 0.6674 -211.6315 520.2933)" fill="#EF675D" cx="476.625" cy="497.057" rx="1.742" ry="0.84"/>
	</g>
	<g>
		
			<line fill="none" stroke="#EF675D" stroke-width="0.9566" stroke-linecap="round" stroke-linejoin="round" stroke-miterlimit="10" x1="478.922" y1="508.457" x2="477.197" y2="510.604"/>
		
			<ellipse transform="matrix(-0.8112 -0.5848 0.5848 -0.8112 565.6714 1204.1763)" fill="#EF675D" cx="477.234" cy="510.768" rx="1.743" ry="0.84"/>
	</g>
	<circle fill="#DC5953" cx="479.136" cy="507.124" r="1.283"/>
</g>
<g>
	<circle fill="#EF675D" cx="27.018" cy="295.16" r="5.502"/>
	<circle fill="#DC5953" cx="26.004" cy="291.562" r="0.999"/>
	<circle fill="#DC5953" cx="27.698" cy="294.154" r="0.786"/>
	<circle fill="#DC5953" cx="30.197" cy="296.636" r="1.305"/>
	<circle fill="#DC5953" cx="23.683" cy="293.741" r="0.848"/>
	<circle fill="#DC5953" cx="30.447" cy="293.231" r="0.644"/>
	<circle fill="#DC5953" cx="27.57" cy="299.09" r="0.878"/>
	<g>
		
			<line fill="none" stroke="#EF675D" stroke-width="0.7174" stroke-linecap="round" stroke-linejoin="round" stroke-miterlimit="10" x1="30.218" y1="291.412" x2="31.274" y2="290.384"/>
		
			<ellipse transform="matrix(0.7335 0.6796 -0.6796 0.7335 205.721 56.0853)" fill="#EF675D" cx="31.332" cy="290.408" rx="0.933" ry="0.45"/>
	</g>
	<g>
		
			<line fill="none" stroke="#EF675D" stroke-width="0.7174" stroke-linecap="round" stroke-linejoin="round" stroke-miterlimit="10" x1="28.17" y1="299.933" x2="28.32" y2="301.4"/>
		
			<ellipse transform="matrix(-0.9882 0.1531 -0.1531 -0.9882 102.3344 594.9808)" fill="#EF675D" cx="28.265" cy="301.429" rx="0.933" ry="0.449"/>
	</g>
	<g>
		
			<line fill="none" stroke="#EF675D" stroke-width="0.9501" stroke-linecap="round" stroke-linejoin="round" stroke-miterlimit="10" x1="26.794" y1="290.146" x2="27.19" y2="288.234"/>
		
			<ellipse transform="matrix(0.9885 0.1513 -0.1513 0.9885 43.9475 -0.7891)" fill="#EF675D" cx="27.157" cy="288.313" rx="1.236" ry="0.698"/>
	</g>
	<g>
		
			<line fill="none" stroke="#EF675D" stroke-width="1.0718" stroke-linecap="round" stroke-linejoin="round" stroke-miterlimit="10" x1="30.311" y1="298.828" x2="32.059" y2="300.167"/>
		
			<ellipse transform="matrix(-0.5657 0.8246 -0.8246 -0.5657 297.7493 443.7061)" fill="#EF675D" cx="32.035" cy="300.258" rx="1.394" ry="0.672"/>
	</g>
	<g>
		
			<line fill="none" stroke="#EF675D" stroke-width="0.7174" stroke-linecap="round" stroke-linejoin="round" stroke-miterlimit="10" x1="21.833" y1="295.797" x2="20.358" y2="295.758"/>
		
			<ellipse transform="matrix(-0.0259 -0.9997 0.9997 -0.0259 -274.7383 323.6854)" fill="#EF675D" cx="20.336" cy="295.7" rx="0.933" ry="0.45"/>
	</g>
	<g>
		
			<line fill="none" stroke="#EF675D" stroke-width="0.7174" stroke-linecap="round" stroke-linejoin="round" stroke-miterlimit="10" x1="24.072" y1="291.173" x2="22.508" y2="289.618"/>
		
			<ellipse transform="matrix(0.6674 -0.7447 0.7447 0.6674 -208.1207 113.0929)" fill="#EF675D" cx="22.543" cy="289.531" rx="1.395" ry="0.673"/>
	</g>
	<g>
		
			<line fill="none" stroke="#EF675D" stroke-width="0.9566" stroke-linecap="round" stroke-linejoin="round" stroke-miterlimit="10" x1="24.383" y1="298.662" x2="23.002" y2="300.381"/>
		
			<ellipse transform="matrix(-0.8111 -0.5849 0.5849 -0.8111 -134.0557 557.7333)" fill="#EF675D" cx="23.031" cy="300.513" rx="1.395" ry="0.673"/>
	</g>
	<circle fill="#DC5953" cx="24.554" cy="297.594" r="1.028"/>
</g>
<g>
	<circle fill="#EF675D" cx="544.522" cy="302.309" r="5.503"/>
	<circle fill="#DC5953" cx="543.508" cy="298.711" r="0.999"/>
	<circle fill="#DC5953" cx="545.203" cy="301.303" r="0.785"/>
	<circle fill="#DC5953" cx="547.701" cy="303.785" r="1.305"/>
	<circle fill="#DC5953" cx="541.188" cy="300.89" r="0.847"/>
	<circle fill="#DC5953" cx="547.952" cy="300.38" r="0.644"/>
	<circle fill="#DC5953" cx="545.074" cy="306.239" r="0.878"/>
	<g>
		
			<line fill="none" stroke="#EF675D" stroke-width="0.7174" stroke-linecap="round" stroke-linejoin="round" stroke-miterlimit="10" x1="547.723" y1="298.561" x2="548.778" y2="297.533"/>
		
			<ellipse transform="matrix(0.7337 0.6795 -0.6795 0.7337 348.3647 -293.6898)" fill="#EF675D" cx="548.837" cy="297.557" rx="0.933" ry="0.45"/>
	</g>
	<g>
		
			<line fill="none" stroke="#EF675D" stroke-width="0.7174" stroke-linecap="round" stroke-linejoin="round" stroke-miterlimit="10" x1="545.675" y1="307.082" x2="545.824" y2="308.549"/>
		
			<ellipse transform="matrix(-0.9882 0.1531 -0.1531 -0.9882 1132.348 529.9619)" fill="#EF675D" cx="545.77" cy="308.578" rx="0.933" ry="0.449"/>
	</g>
	<g>
		
			<line fill="none" stroke="#EF675D" stroke-width="0.9501" stroke-linecap="round" stroke-linejoin="round" stroke-miterlimit="10" x1="544.299" y1="297.295" x2="544.695" y2="295.383"/>
		
			<ellipse transform="matrix(0.9885 0.1514 -0.1514 0.9885 51.0017 -79.0429)" fill="#EF675D" cx="544.662" cy="295.462" rx="1.235" ry="0.698"/>
	</g>
	<g>
		
			<line fill="none" stroke="#EF675D" stroke-width="1.0718" stroke-linecap="round" stroke-linejoin="round" stroke-miterlimit="10" x1="547.814" y1="305.977" x2="549.563" y2="307.316"/>
		
			<ellipse transform="matrix(-0.5657 0.8246 -0.8246 -0.5657 1113.9142 28.1686)" fill="#EF675D" cx="549.54" cy="307.407" rx="1.394" ry="0.671"/>
	</g>
	<g>
		
			<line fill="none" stroke="#EF675D" stroke-width="0.7174" stroke-linecap="round" stroke-linejoin="round" stroke-miterlimit="10" x1="539.338" y1="302.946" x2="537.863" y2="302.907"/>
		
			<ellipse transform="matrix(-0.0256 -0.9997 0.9997 -0.0256 248.8774 848.2751)" fill="#EF675D" cx="537.84" cy="302.849" rx="0.933" ry="0.449"/>
	</g>
	<g>
		
			<line fill="none" stroke="#EF675D" stroke-width="0.7174" stroke-linecap="round" stroke-linejoin="round" stroke-miterlimit="10" x1="541.576" y1="298.322" x2="540.013" y2="296.767"/>
		
			<ellipse transform="matrix(0.6672 -0.7449 0.7449 0.6672 -41.2579 501.0179)" fill="#EF675D" cx="540.048" cy="296.68" rx="1.395" ry="0.673"/>
	</g>
	<g>
		
			<line fill="none" stroke="#EF675D" stroke-width="0.9566" stroke-linecap="round" stroke-linejoin="round" stroke-miterlimit="10" x1="541.887" y1="305.811" x2="540.506" y2="307.53"/>
		
			<ellipse transform="matrix(-0.8111 -0.5849 0.5849 -0.8111 799.0218 873.3638)" fill="#EF675D" cx="540.535" cy="307.662" rx="1.395" ry="0.673"/>
	</g>
	<circle fill="#DC5953" cx="542.059" cy="304.743" r="1.027"/>
</g>
<g>
	<g>
		<g>
			<path fill="#00BBD6" d="M103.483,505.573c-0.114,0-0.225-0.061-0.284-0.168l-0.998-1.809c-0.086-0.156-0.03-0.354,0.127-0.44
				c0.156-0.088,0.354-0.029,0.44,0.128l0.998,1.808c0.086,0.156,0.029,0.354-0.127,0.44
				C103.59,505.56,103.537,505.573,103.483,505.573z"/>
		</g>
		<g>
			
				<ellipse transform="matrix(-0.8492 0.5281 -0.5281 -0.8492 458.1313 879.7891)" fill="#00BBD6" cx="103.428" cy="505.317" rx="1.307" ry="0.63"/>
		</g>
	</g>
	<g>
		<circle fill="#00BBD6" cx="98.382" cy="497.921" r="7.708"/>
	</g>
	<g>
		<circle fill="#00A1A8" cx="95.102" cy="493.839" r="1.4"/>
	</g>
	<g>
		<circle fill="#00A1A8" cx="98.708" cy="496.251" r="1.101"/>
	</g>
	<g>
		<circle fill="#00A1A8" cx="103.289" cy="498.08" r="1.828"/>
	</g>
	<g>
		<circle fill="#00A1A8" cx="93.306" cy="497.921" r="1.188"/>
	</g>
	<g>
		<circle fill="#00A1A8" cx="101.745" cy="493.555" r="0.903"/>
	</g>
	<g>
		<circle fill="#00A1A8" cx="101.25" cy="502.685" r="1.229"/>
	</g>
	<g>
		<g>
			<path fill="#00BBD6" d="M100.451,491.659c-0.042,0-0.084-0.008-0.125-0.025c-0.165-0.069-0.243-0.259-0.173-0.424l0.798-1.905
				c0.069-0.165,0.259-0.242,0.424-0.174c0.165,0.069,0.243,0.26,0.173,0.424l-0.799,1.906
				C100.698,491.584,100.578,491.659,100.451,491.659z"/>
		</g>
		<g>
			
				<ellipse transform="matrix(0.9411 0.3381 -0.3381 0.9411 171.4185 -5.4434)" fill="#00BBD6" cx="101.338" cy="489.43" rx="1.307" ry="0.63"/>
		</g>
	</g>
	<g>
		<g>
			<path fill="#00BBD6" d="M104.469,495.119c-0.105,0-0.211-0.04-0.292-0.12c-0.163-0.161-0.164-0.424-0.002-0.587l1.862-1.877
				c0.161-0.163,0.424-0.163,0.587-0.003c0.163,0.162,0.164,0.424,0.002,0.587l-1.862,1.877
				C104.683,495.079,104.576,495.119,104.469,495.119z"/>
		</g>
		<g>
			
				<ellipse transform="matrix(0.7455 0.6665 -0.6665 0.7455 355.5625 54.4805)" fill="#00BBD6" cx="106.436" cy="492.869" rx="1.673" ry="0.807"/>
		</g>
	</g>
	<g>
		<g>
			<path fill="#00BBD6" d="M95.346,492.009c-0.201,0-0.379-0.141-0.421-0.345l-0.539-2.682c-0.047-0.231,0.104-0.457,0.336-0.504
				c0.232-0.051,0.458,0.104,0.506,0.336l0.539,2.682c0.047,0.232-0.104,0.458-0.336,0.505
				C95.402,492.008,95.373,492.009,95.346,492.009z"/>
		</g>
		<g>
			
				<ellipse transform="matrix(0.9688 -0.2477 0.2477 0.9688 -118.1644 38.7178)" fill="#00BBD6" cx="94.807" cy="489.019" rx="1.731" ry="0.978"/>
		</g>
	</g>
	<g>
		<g>
			<path fill="#00BBD6" d="M107.626,502.095c-0.04,0-0.08-0.005-0.121-0.016l-2.989-0.769c-0.258-0.065-0.415-0.329-0.348-0.589
				c0.067-0.259,0.333-0.413,0.589-0.348l2.989,0.768c0.258,0.066,0.415,0.331,0.348,0.59
				C108.039,501.949,107.842,502.095,107.626,502.095z"/>
		</g>
		<g>
			
				<ellipse transform="matrix(-0.198 0.9802 -0.9802 -0.198 620.7664 495.591)" fill="#00BBD6" cx="107.646" cy="501.74" rx="1.953" ry="0.941"/>
		</g>
	</g>
	<g>
		<g>
			<path fill="#00BBD6" d="M90.126,502.668c-0.129,0-0.251-0.077-0.301-0.205c-0.066-0.166,0.015-0.354,0.182-0.421l1.921-0.759
				c0.168-0.065,0.355,0.017,0.42,0.183s-0.016,0.355-0.182,0.421l-1.922,0.759C90.206,502.66,90.166,502.668,90.126,502.668z"/>
		</g>
		<g>
			
				<ellipse transform="matrix(-0.4151 -0.9098 0.9098 -0.4151 -329.5086 792.7224)" fill="#00BBD6" cx="90.065" cy="502.281" rx="1.307" ry="0.63"/>
		</g>
	</g>
	<g>
		<g>
			<path fill="#00BBD6" d="M92.398,494.721c-0.04,0-0.081-0.008-0.12-0.023l-2.868-1.146c-0.166-0.067-0.248-0.256-0.181-0.422
				c0.066-0.166,0.256-0.245,0.421-0.181l2.868,1.147c0.167,0.066,0.247,0.255,0.181,0.422
				C92.649,494.645,92.527,494.721,92.398,494.721z"/>
		</g>
		<g>
			
				<ellipse transform="matrix(0.3226 -0.9465 0.9465 0.3226 -406.1048 418.7647)" fill="#00BBD6" cx="89.528" cy="493.118" rx="1.955" ry="0.942"/>
		</g>
	</g>
	<g>
		<g>
			<path fill="#00BBD6" d="M96.069,507.285c-0.039,0-0.079-0.005-0.118-0.017c-0.229-0.064-0.364-0.304-0.299-0.532l0.837-2.974
				c0.064-0.229,0.304-0.362,0.533-0.299c0.229,0.064,0.364,0.303,0.299,0.532l-0.837,2.975
				C96.431,507.161,96.257,507.285,96.069,507.285z"/>
		</g>
		<g>
			
				<ellipse transform="matrix(-0.9754 -0.2206 0.2206 -0.9754 78.1537 1022.7417)" fill="#00BBD6" cx="96.179" cy="507.007" rx="1.955" ry="0.943"/>
		</g>
	</g>
	<g>
		<circle fill="#00A1A8" cx="96.541" cy="502.409" r="1.44"/>
	</g>
</g>
</svg>
