<?xml version="1.0" encoding="utf-8"?>
<!-- Generator: Adobe Illustrator 16.0.0, SVG Export Plug-In . SVG Version: 6.00 Build 0)  -->
<!DOCTYPE svg PUBLIC "-//W3C//DTD SVG 1.1//EN" "http://www.w3.org/Graphics/SVG/1.1/DTD/svg11.dtd">
<svg version="1.1" id="Layer_1" xmlns="http://www.w3.org/2000/svg" xmlns:xlink="http://www.w3.org/1999/xlink" x="0px" y="0px"
	 width="136.5px" height="108.5px" viewBox="0 0 136.5 108.5" enable-background="new 0 0 136.5 108.5" xml:space="preserve">
<g>
	<path fill="#FFC33F" d="M102.97,55.057c0,0-0.056,8.563-4.724,19.68c0.012,0,0.012,0,0.022,0c-0.034,0.075-0.076,0.141-0.109,0.206
		c-0.445,0.751-0.945,1.459-1.489,2.146c-2.01,2.494-4.999,4.694-8.144,5.242c0.097-0.13-0.099,0.131,0,0
		c-1.545,0.36-2.689-0.422-4.246-0.648c-6.628-0.983-12.963-3.295-19.242-5.607c0.132,2.774,0.799,5.518,1.943,8.053
		c-4.547-0.193-9.065-0.808-13.46-1.946c-0.131-0.032-0.272-0.066-0.405-0.108c0.629-3.799,1.17-7.606,1.622-11.438
		c0.185-0.053,0.369-0.121,0.554-0.174l-0.381-1.242c0.281-2.546,0.528-5.091,0.731-7.647c-1.294,0.436-2.752,0.176-3.972-0.465
		c-1.242-0.642-2.254-1.651-3.18-2.719c-1.494-1.705-2.801-3.631-3.401-5.817c-0.611-2.186-0.429-4.668,0.863-6.53
		c1.293-1.863,3.817-2.908,5.951-2.148c1.165,0.421,2.091,1.292,2.939,2.183c0.6,0.63,1.166,1.283,1.7,1.956
		c0.021,0.013,0.033,0.023,0.043,0.044v0.01c0.283,0.152,0.565,0.294,0.85,0.435l0.618-1.208
		c13.813-6.402,26.013-16.251,35.14-28.426l0.315,0.228c5.582,10.115,9.218,21.601,9.469,33.06
		C103.012,53.131,103.012,54.1,102.97,55.057z"/>
	<path fill="#765DA8" d="M90.562,81.915l0.053,0.26c1.861-0.415,4.017,0.432,4.965,2.118c1.112,1.969,0.408,4.754-1.507,5.963
		c2.395,1.012,4.399,2.902,5.544,5.24c0.013,0.012,0.022,0.021,0.022,0.031c0.522,1.089,0.872,2.352,0.504,3.505
		c-0.076,0.238-0.184,0.468-0.325,0.674c-9.747,3.905-20.649,4.482-31.206,4.048c-6.234-0.255-12.546-0.857-18.479-2.746
		c-0.457-0.454-0.838-0.967-1.123-1.532c-0.293-0.565-0.492-1.174-0.578-1.806c-0.352-2.677,1.397-5.474,3.944-6.336
		c-1.503-1.36-2.647-3.273-2.531-5.286c0.097-1.828,1.498-3.582,3.25-3.834c0.142-0.021,0.282-0.033,0.426-0.033
		c4.396,1.139,8.914,1.753,13.46,1.946c7.162,0.317,14.419-0.409,21.545-1.797C89.2,82.2,89.887,82.067,90.562,81.915z"/>
	<path fill="#559B97" d="M56.586,48.075c-0.01-0.021-0.022-0.031-0.043-0.044l0.109-0.086c0.466-0.207,0.934-0.416,1.402-0.632
		c6.128,2.495,12.149,5.244,18.049,8.23c-0.128,0.522-0.249,1.044-0.367,1.566c-0.022,0.076-0.033,0.152-0.055,0.229
		c-6.465-2.876-12.836-5.962-19.095-9.252V48.075z"/>
	<path fill="#14133F" d="M54.911,69.218c-0.055,0.481-0.118,0.949-0.173,1.416c-0.454,3.832-0.993,7.64-1.622,11.438
		c-0.01,0.045-0.01,0.097-0.021,0.142c-1.751,0.252-3.152,2.006-3.25,3.834c-0.116,2.013,1.028,3.926,2.531,5.286
		c-2.547,0.862-4.295,3.659-3.944,6.336c0.086,0.632,0.284,1.24,0.578,1.806c-1.86-0.096-3.656-0.485-5.29-1.345
		c-3.179-1.683-5.337-5.761-3.751-8.984c-4.856-2.235-9.638-5.995-10.425-11.282c-0.615-4.038,1.265-8.033,3.47-11.483
		c2.205-3.442,4.834-6.721,6.007-10.638c1.388-4.583,0.622-9.502,0.8-14.289c0.434-11.904,7.158-23.414,17.327-29.638
		c10.168-6.213,23.476-6.965,34.275-1.929c2.763,1.283,5.397,2.944,7.469,5.194c4.477,4.837,5.832,11.778,6.167,18.373
		c0.311,6.289-0.161,12.667-1.929,18.718l-0.152,0.001c-0.251-11.458-3.887-22.945-9.469-33.06l-0.315-0.228
		c-9.127,12.174-21.327,22.023-35.14,28.426c-0.468,0.217-0.936,0.425-1.402,0.632l-0.109,0.086c-0.534-0.673-1.1-1.326-1.7-1.956
		c-0.849-0.891-1.774-1.762-2.939-2.183c-2.134-0.76-4.658,0.286-5.951,2.148c-1.292,1.862-1.475,4.344-0.863,6.53
		c0.6,2.187,1.907,4.112,3.401,5.817c0.926,1.067,1.938,2.077,3.18,2.719c1.219,0.641,2.677,0.9,3.972,0.465
		C55.438,64.127,55.191,66.672,54.911,69.218z"/>
	<path fill="#F47920" d="M96.458,50.188c0.501,0.25,1.078,0.618,1.079,1.175c0,0.163-0.055,0.327-0.141,0.468
		c-2.22-0.291-4.45-0.464-6.694-0.516c-1.404-0.031-2.796-0.02-4.2,0.048c-0.012-1.927,0.41-3.93,0.539-5.888
		C90.177,47.051,93.324,48.624,96.458,50.188z"/>
	<path fill="#14133F" d="M103.594,67.951c0.304-0.838,0.563-1.687,0.736-2.558c2.725,3.957,5.058,8.188,5.552,12.899
		c0.484,4.712-1.034,9.588-4.099,13.193c-1.619,1.894-3.783,3.485-6.167,4.01c-1.145-2.338-3.149-4.229-5.544-5.24
		c1.915-1.209,2.619-3.994,1.507-5.963c-0.948-1.687-3.104-2.533-4.965-2.118l0,0c0,0-1.414,0.025-2.088,0.155
		c0.054-0.075-0.055,0.076,0,0c3.145-0.548,6.134-2.748,8.144-5.242c0.544-0.687,1.044-1.395,1.489-2.146
		c2.143-0.862,3.599-2.932,4.599-5.031C103.062,69.268,103.343,68.614,103.594,67.951z"/>
	<path fill="#99D7DB" d="M104.33,65.394c-0.173,0.871-0.433,1.72-0.736,2.558c-0.827-0.098-1.666-0.174-2.492-0.237
		c-8.794-0.786-17.619-1.18-26.444-1.182l-0.152,0.002c0-0.402,0.012-0.818,0.033-1.22c0.041-0.99,0.126-1.991,0.257-2.993
		c0.205-1.665,0.52-3.33,0.887-4.984c0.021-0.076,0.032-0.152,0.055-0.229c4.406-0.189,8.813-0.291,13.222-0.263
		c4.645-0.006,9.291,0.119,13.928,0.365c0.37,0.011,0.739,0.031,1.11,0.065c0.348,0.999,0.579,2.034,0.679,3.089
		C104.839,62.041,104.71,63.738,104.33,65.394z"/>
	<path fill="#B7E2E8" d="M103.594,67.951c-0.251,0.663-0.532,1.316-0.836,1.96c-1,2.1-2.456,4.169-4.599,5.031
		c0.033-0.065-22.777-1.718-22.777-1.718c-0.633-2.188-0.885-4.428-0.877-6.69l0.152-0.002c8.825,0.002,17.65,0.396,26.444,1.182
		C101.928,67.777,102.767,67.854,103.594,67.951z"/>
	<path fill="#B7E2E8" d="M103.996,57.276c-4.636-0.245-10.394-0.437-15.038-0.431c-4.409-0.028-8.815,0.073-13.222,0.263
		c0.118-0.522,0.239-1.044,0.367-1.566c0.262-1.024,0.521-2.036,0.804-3.038l0.087,0.021c3.133-0.635,6.311-1.018,9.508-1.162
		c1.404-0.067,2.796-0.079,4.2-0.048c2.244,0.052,4.475,0.225,6.694,0.516c1.132,0.14,2.252,0.323,3.373,0.541
		c0.883,0.771,1.612,1.674,2.2,2.685C103.494,55.861,104.038,56.558,103.996,57.276z"/>
	<path fill="#F99E1C" d="M88.689,82.101c-0.055,0.078-0.109,0.154-0.163,0.229c-7.126,1.388-14.383,2.114-21.545,1.797
		c-1.145-2.535-1.812-5.278-1.943-8.053c6.279,2.313,12.614,4.624,19.242,5.607c1.557,0.227,4.246,0.648,4.246,0.648
		C88.428,82.461,88.786,81.97,88.689,82.101z"/>
	<path fill="#559B97" d="M74.795,62.321c-0.131,1.002-0.216,2.003-0.257,2.993c-6.683,1.466-13.286,3.245-19.8,5.319
		c0.055-0.467,0.118-0.935,0.173-1.416C61.601,67.091,68.235,64.787,74.795,62.321z"/>
	<path fill="#14133F" d="M101.928,35.631c-0.489-0.731-1.407-1.161-2.213-1.446c-1.457-0.517-3.154-0.475-4.581,0.116
		c-0.931,0.385-1.939,0.972-2.016,2.095c-0.034,0.509,0.154,0.996,0.539,1.336c0.47,0.416,1.066,0.465,1.658,0.366
		c0.432-0.072,0.845-0.224,1.275-0.304c-0.041,0.007,0.345-0.056,0.209-0.037c-0.066,0.007-0.036,0.003,0.091-0.011
		c0.08-0.008,0.159-0.015,0.239-0.022c0.237-0.021,0.476-0.027,0.717-0.025c0.492,0.004,0.885,0.046,1.252,0.121
		c0.47,0.095,0.925,0.233,1.372,0.406c0.531,0.207,1.218-0.228,1.337-0.762c0.009-0.032,0-0.06,0.005-0.093
		C102.204,36.876,102.294,36.175,101.928,35.631z"/>
	<path fill="#14133F" d="M72.148,36.09c0.489-0.731,1.405-1.162,2.209-1.448c1.457-0.519,3.152-0.482,4.581,0.106
		c0.933,0.383,1.942,0.968,2.021,2.091c0.035,0.508-0.151,0.996-0.537,1.337c-0.468,0.417-1.065,0.466-1.657,0.369
		c-0.431-0.07-0.844-0.222-1.274-0.3c0.041,0.007-0.346-0.057-0.21-0.038c0.066,0.007,0.035,0.004-0.092-0.01
		c-0.08-0.009-0.159-0.017-0.239-0.023c-0.235-0.017-0.477-0.026-0.715-0.023c-0.492,0.006-0.884,0.049-1.252,0.125
		c-0.47,0.095-0.926,0.234-1.373,0.407c-0.53,0.209-1.216-0.226-1.338-0.757c-0.007-0.034,0-0.062-0.005-0.093
		C71.876,37.337,71.784,36.636,72.148,36.09z"/>
	<circle fill="#14133F" cx="76.091" cy="42.048" r="2.681"/>
	<circle fill="#14133F" cx="97.642" cy="41.391" r="2.679"/>
</g>
</svg>
