<?xml version="1.0" encoding="utf-8"?>
<!-- Generator: Adobe Illustrator 16.0.0, SVG Export Plug-In . SVG Version: 6.00 Build 0)  -->
<!DOCTYPE svg PUBLIC "-//W3C//DTD SVG 1.1//EN" "http://www.w3.org/Graphics/SVG/1.1/DTD/svg11.dtd">
<svg version="1.1" id="Layer_1" xmlns="http://www.w3.org/2000/svg" xmlns:xlink="http://www.w3.org/1999/xlink" x="0px" y="0px"
	 width="1920px" height="875.069px" viewBox="0 0 1920 875.069" enable-background="new 0 0 1920 875.069" xml:space="preserve">
<path opacity="0.43" fill="#F06491" enable-background="new    " d="M1939.723,379.668
	c-183.1,86.441-683.867,322.265-683.867,322.265C560.234,1017.458-14.103,525.065-14.103,525.065V-1.35
	c130.787,0,1616.948,0,1952.702,0L1939.723,379.668z"/>
<path opacity="0.54" fill="#2B2F6E" enable-background="new    " d="M-19.722-1.35v528.052c0,0,479.516,567.593,1089.205,237.458
	l656.895-368.859V-1.35C1726.378-1.35,126.801,4.27-19.722-1.35z"/>
<linearGradient id="SVGID_1_" gradientUnits="userSpaceOnUse" x1="-325.6812" y1="1104.7363" x2="5821.5942" y2="1104.7363" gradientTransform="matrix(0.3187 0 0 -0.3187 446.219 755.0713)">
	<stop  offset="0" style="stop-color:#2A3072"/>
	<stop  offset="1" style="stop-color:#22408C"/>
</linearGradient>
<path fill="url(#SVGID_1_)" d="M-19.722-1.35v526.415c0,0,466.028,492.393,1184.638,176.255l774.807-353.122V-1.35
	C1939.723-1.35-11.343-1.35-19.722-1.35z"/>
</svg>
