<?xml version="1.0" encoding="utf-8"?>
<!-- Generator: Adobe Illustrator 16.0.0, SVG Export Plug-In . SVG Version: 6.00 Build 0)  -->
<!DOCTYPE svg PUBLIC "-//W3C//DTD SVG 1.1//EN" "http://www.w3.org/Graphics/SVG/1.1/DTD/svg11.dtd">
<svg version="1.1" id="Layer_1" xmlns="http://www.w3.org/2000/svg" xmlns:xlink="http://www.w3.org/1999/xlink" x="0px" y="0px"
	 width="200px" height="200px" viewBox="0 0 200 200" enable-background="new 0 0 200 200" xml:space="preserve">
<g>
	<g>
		<g>
			<g>
				<path fill="#FFFFFF" d="M160.428,171.101c20.525-8.488,34.381-30.907,32.793-53.063c-1.59-22.152-18.504-42.367-40.031-47.839
					c-12.143-3.086-25.693-2.028-36.299-8.699c-8.158-5.129-13.076-13.939-18.589-21.841c-5.513-7.904-12.84-15.708-22.41-16.822
					c-7.773-0.905-15.275,2.83-22.027,6.782c-11.085,6.49-21.758,13.977-30.193,23.666C5.963,73.617-0.208,103.376,7.95,129.075
					c2.566,8.082,6.415,15.69,10.324,23.215c5.007,9.636,10.34,19.452,18.645,26.455c9.467,7.984,21.926,11.539,34.208,13.146
					c30.683,4.015,62.71-3.188,88.722-19.951"/>
			</g>
			<g>
				<defs>
					<path id="SVGID_1_" d="M160.428,171.101c20.525-8.488,34.381-30.907,32.793-53.063c-1.59-22.152-4.012-40.51-15.881-59.284
						c-11.58-18.318-17.246-32.451-27.854-39.122c-8.154-5.131-29.385-6.701-45.523-4.951c-9.579,1.039-11.146-1.181-28.726,4.951
						c-7.389,2.576-14.622,6.034-21.373,9.987c-11.085,6.49-21.758,13.977-30.193,23.666C5.963,73.617-0.208,103.376,7.95,129.075
						c2.566,8.082,6.415,15.69,10.324,23.215c5.007,9.636,10.34,19.452,18.645,26.455c9.467,7.984,21.926,11.539,34.208,13.146
						c30.683,4.015,62.71-3.188,88.722-19.951"/>
				</defs>
				<clipPath id="SVGID_2_">
					<use xlink:href="#SVGID_1_"  overflow="visible"/>
				</clipPath>
				<g clip-path="url(#SVGID_2_)">
					<g>
						<path fill="#E89E0A" d="M88.385,190.432c0,0,6.342,6.575,19.337,4.031c12.994-2.544,15.186,0.541,19.07-5.883
							c3.881-6.425,3.484-18.532-7.422-29.16c-10.906-10.629-29.293-3.736-39.769,3.406
							C69.13,169.966,88.385,190.432,88.385,190.432z"/>
						<path fill="#2D1F04" d="M104.453,181.618c0,0-1.119-13.662,5.314-27.713c0,0,3.662,10.713,9.15,16.459
							C124.404,176.109,112.982,184.395,104.453,181.618z"/>
						<g>
							<path fill="#A06600" d="M91.988,180.439c-0.808,1.584-1.521,2.899-1.978,4.302c-0.242,0.694-0.409,1.398-0.511,2.147
								c-0.148,0.757-0.13,1.536-0.229,2.449c-0.595-0.665-1.019-1.506-1.153-2.414c-0.16-0.905-0.078-1.869,0.229-2.74
								c0.294-0.876,0.779-1.672,1.398-2.322C90.372,181.222,91.107,180.685,91.988,180.439z"/>
							<path fill="#A06600" d="M124.93,188.771c-0.877-1.672-1.574-3.152-2.473-4.5c-0.434-0.683-0.928-1.304-1.475-1.914
								c-0.529-0.645-1.186-1.159-1.871-1.852c0.943,0,1.918,0.251,2.736,0.775c0.83,0.506,1.557,1.206,2.076,2.023
								c0.529,0.813,0.896,1.718,1.08,2.647C125.172,186.884,125.209,187.845,124.93,188.771z"/>
							<path fill="#A06600" d="M127.324,179.653c-1.012-1.013-1.732-1.845-2.553-2.45c-0.4-0.313-0.822-0.566-1.322-0.781
								c-0.498-0.254-1.074-0.384-1.768-0.656c0.559-0.449,1.268-0.72,2.02-0.7c0.75-0.005,1.529,0.264,2.127,0.737
								c0.609,0.461,1.057,1.084,1.316,1.747C127.395,178.222,127.51,178.935,127.324,179.653z"/>
							<path fill="#A06600" d="M96.411,182.546c-0.055,0.918-0.09,1.733-0.09,2.542c-0.004,0.806,0.011,1.588,0.07,2.371
								c0.074,0.777,0.125,1.566,0.253,2.368c0.087,0.814,0.248,1.629,0.298,2.562c-0.704-0.595-1.243-1.341-1.621-2.166
								c-0.402-0.819-0.6-1.732-0.681-2.646c-0.066-0.916,0.048-1.848,0.324-2.721C95.256,183.991,95.692,183.147,96.411,182.546z"
								/>
							<path fill="#A06600" d="M102.049,184.002c0.57,1.577,0.779,3.022,1.023,4.462l0.34,2.143l0.424,2.266
								c-0.756-0.4-1.309-1.078-1.721-1.8c-0.396-0.733-0.643-1.528-0.775-2.331c-0.129-0.802-0.135-1.614-0.035-2.411
								C101.422,185.531,101.615,184.739,102.049,184.002z"/>
							<path fill="#A06600" d="M108.094,183.613c0.639,0.531,1.088,1.173,1.477,1.835c0.377,0.671,0.67,1.383,0.879,2.122
								c0.201,0.74,0.318,1.513,0.322,2.294c-0.016,0.784-0.121,1.59-0.492,2.332c-0.367-0.745-0.621-1.423-0.869-2.106
								c-0.248-0.683-0.469-1.357-0.654-2.052c-0.193-0.691-0.355-1.396-0.48-2.124C108.16,185.183,108.064,184.438,108.094,183.613
								z"/>
							<path fill="#A06600" d="M114.385,182.945c0.719,0.378,1.242,0.969,1.684,1.588c0.432,0.63,0.76,1.319,0.99,2.039
								c0.426,1.444,0.545,3.004-0.043,4.495c-0.43-0.689-0.689-1.356-0.957-2.01c-0.244-0.661-0.482-1.306-0.676-1.961
								c-0.205-0.652-0.395-1.308-0.563-1.986C114.656,184.426,114.5,183.738,114.385,182.945z"/>
							<path fill="#A06600" d="M113.51,160.288c-0.104-0.509,0.063-0.952,0.297-1.321c0.246-0.364,0.59-0.658,0.988-0.834
								c0.789-0.345,1.762-0.325,2.467,0.393c-0.367,0.37-0.67,0.564-0.949,0.764c-0.279,0.174-0.527,0.333-0.791,0.441
								c-0.264,0.115-0.529,0.216-0.846,0.304C114.354,160.117,114.008,160.198,113.51,160.288z"/>
							<path fill="#A06600" d="M115.24,163.393c0.01-0.606,0.342-1.103,0.723-1.488c0.398-0.383,0.889-0.646,1.402-0.795
								s1.051-0.172,1.566-0.089c0.518,0.099,1.018,0.293,1.459,0.688c-0.492,0.341-0.93,0.517-1.348,0.689
								c-0.416,0.165-0.809,0.288-1.197,0.397c-0.387,0.114-0.771,0.202-1.184,0.295L115.24,163.393z"/>
							<path fill="#A06600" d="M117.295,166.911c0.166-0.635,0.553-1.113,0.996-1.513c0.451-0.391,0.992-0.676,1.576-0.843
								c1.152-0.334,2.559-0.137,3.406,0.835c-0.619,0.227-1.109,0.317-1.582,0.477l-1.352,0.379
								c-0.449,0.125-0.906,0.246-1.395,0.364C118.447,166.723,117.934,166.839,117.295,166.911z"/>
							<path fill="#A06600" d="M120.105,170.5c0.096-0.566,0.463-0.971,0.857-1.272c0.404-0.295,0.875-0.475,1.352-0.55
								c0.479-0.076,0.963-0.035,1.424,0.1c0.457,0.146,0.895,0.379,1.26,0.805c-0.48,0.304-0.893,0.444-1.287,0.575
								c-0.395,0.123-0.764,0.199-1.131,0.256c-0.365,0.056-0.729,0.083-1.119,0.096C121.064,170.52,120.658,170.509,120.105,170.5z
								"/>
						</g>
					</g>
					<path fill="#FFCDBD" d="M104.453,181.618c0,0-1.34-19.056,10.293-35.444c0,0,31.02,11.502,48.227-14.514
						c0,0,8.756-10.931,3.525-31.483c0,0-6.076-29.79-10.568-36.602c-4.494-6.814-31.279-22.379-57.921,1.062
						c-26.641,23.443-20.82,98.554-18.629,103.22C79.379,167.856,101.105,187.195,104.453,181.618z"/>
					<g>
						<defs>
							<path id="SVGID_3_" d="M104.453,181.618c0,0-1.34-19.056,10.293-35.444c0,0,31.02,11.502,48.227-14.514
								c0,0,8.756-10.931,3.525-31.483c0,0-6.076-29.79-10.568-36.602c-4.494-6.814-31.279-22.379-57.921,1.062
								c-26.641,23.443-20.82,98.554-18.629,103.22C79.379,167.856,101.105,187.195,104.453,181.618z"/>
						</defs>
						<clipPath id="SVGID_4_">
							<use xlink:href="#SVGID_3_"  overflow="visible"/>
						</clipPath>
						<g clip-path="url(#SVGID_4_)">
							
								<radialGradient id="SVGID_5_" cx="63.0732" cy="28.9268" r="12.0696" gradientTransform="matrix(4.5793 0 0 2.5792 -151.2623 3.8548)" gradientUnits="userSpaceOnUse">
								<stop  offset="0" style="stop-color:#B34130;stop-opacity:0.9367"/>
								<stop  offset="0.6367" style="stop-color:#FFBFAD;stop-opacity:0"/>
							</radialGradient>
							<ellipse opacity="0.6" fill="url(#SVGID_5_)" cx="137.565" cy="78.461" rx="72.208" ry="16.858"/>
						</g>
					</g>
					<g>
						<path fill="#0B1838" d="M38.341,236.241c0,0-24.411-5.25-35.7-22.011C-8.649,197.469,40.031,39.852,96.092,23.596
							C152.154,7.34,163.08,46.337,163.08,46.337s7.887,23.11,14.26,26.461c0,0-4,3.007-16.49,3.202l-2.436-8.581l-1.455,9.073
							c0,0-19.729,4.273-39.893-1.039c0,0,1.682-12.117,0.49-18.776c0,0-4.85,19.389-7.91,21.163l-8.072-0.182
							c0,0-27.443,61.691-14.003,104.153c0,0,8.269,22.141,16.332,31.654C103.902,213.466,76.763,237.404,38.341,236.241z"/>
						<path fill="#1E3F82" d="M11.591,211.951c0.62-6.348,1.614-12.652,2.667-18.947c1.119-6.282,2.396-12.539,3.806-18.764
							c2.832-12.455,6.41-24.734,10.541-36.828c4.289-12.039,9.186-23.881,15.11-35.216c2.987-5.652,6.223-11.17,9.676-16.544
							c3.566-5.303,7.345-10.461,11.48-15.316c-3.824,5.105-7.445,10.341-10.754,15.775c-3.29,5.444-6.374,11.006-9.202,16.7
							c-2.763,5.723-5.48,11.47-7.9,17.35c-2.417,5.878-4.682,11.819-6.756,17.83c-2.11,5.997-4.069,12.046-5.88,18.145
							c-1.82,6.098-3.416,12.257-5.007,18.416c-1.567,6.168-2.985,12.375-4.276,18.614
							C13.765,199.392,12.604,205.655,11.591,211.951z"/>
						<path fill="#1E3F82" d="M35.491,174.098c0.584-6.829,1.723-13.607,3.218-20.305c1.489-6.701,3.392-13.308,5.626-19.811
							c2.312-6.475,5.047-12.804,8.251-18.89c3.282-6.05,7.173-11.768,11.678-16.929c-1.868,2.88-3.962,5.573-5.573,8.592
							c-1.824,2.879-3.289,5.962-4.887,8.962l-2.14,4.634c-0.347,0.777-0.733,1.532-1.052,2.323l-0.958,2.365
							c-0.622,1.585-1.353,3.122-1.904,4.732l-1.76,4.794c-2.248,6.428-4.205,12.956-5.955,19.55
							c-0.863,3.299-1.69,6.611-2.437,9.943C36.795,167.382,36.14,170.735,35.491,174.098z"/>
						<path fill="#1E3F82" d="M133.727,28.318c4.736,0.614,9.256,2.738,12.971,5.792c0.482,0.363,0.922,0.774,1.361,1.189
							c0.436,0.415,0.889,0.817,1.275,1.281l1.203,1.351l1.092,1.443c0.379,0.471,0.691,0.988,1.014,1.498
							c0.314,0.512,0.652,1.017,0.949,1.535c0.582,1.044,1.176,2.079,1.734,3.136c2.219,4.229,4.258,8.542,6.248,12.864
							c0.994,2.162,1.994,4.322,3.094,6.425c1.082,2.11,2.266,4.19,3.932,5.9c-1.811-1.569-3.098-3.648-4.309-5.691
							c-1.184-2.079-2.256-4.21-3.324-6.34c-2.121-4.266-4.146-8.571-6.416-12.746c-0.543-1.057-1.121-2.092-1.688-3.136
							c-0.289-0.517-0.611-1.006-0.914-1.511c-0.307-0.501-0.604-1.007-0.969-1.469c-1.318-1.953-2.98-3.64-4.719-5.215
							c-1.764-1.555-3.736-2.883-5.85-3.939C138.305,29.615,136.064,28.777,133.727,28.318z"/>
						<path fill="#1E3F82" d="M120.531,31.625c-1.861,0.646-3.564,1.661-5.098,2.855c-1.531,1.196-2.953,2.549-4.1,4.119
							c-2.396,3.059-4.006,6.674-4.979,10.436c-1.033,3.758-1.264,7.678-1.713,11.596l-0.689,5.868l-0.418,2.924
							c-0.074,0.488-0.148,0.975-0.242,1.462l-0.084,0.362c-0.029,0.066-0.004,0.107-0.096,0.2c-0.102-0.005-0.066-0.088-0.08-0.104
							l-0.004-0.094c-0.002-0.25,0.014-0.494,0.029-0.74c0.006,0.246,0.012,0.495,0.035,0.735l0.014,0.088
							c-0.002,0.03,0.035,0.058-0.018,0.035c-0.018-0.005,0.02-0.092,0.021-0.143l0.049-0.362c0.059-0.488,0.104-0.977,0.145-1.466
							l0.221-2.941l0.445-5.887c0.068-0.979,0.141-1.962,0.227-2.941c0.078-0.979,0.154-1.96,0.293-2.946
							c0.137-0.983,0.209-1.976,0.4-2.951l0.619-2.92c1.064-3.827,2.715-7.567,5.301-10.629
							C113.338,35.117,116.701,32.634,120.531,31.625z"/>
						<path fill="#1E3F82" d="M131.133,34.386c2.119,2.121,3.334,4.947,4.457,7.683c1.088,2.778,1.879,5.659,2.529,8.559
							c0.344,1.448,0.584,2.916,0.865,4.373c0.217,1.469,0.467,2.937,0.65,4.403l0.59,4.404c0.164,1.47,0.357,2.939,0.494,4.416
							c-0.332-1.444-0.611-2.897-0.92-4.349l-0.83-4.366l-0.801-4.359c-0.307-1.444-0.551-2.9-0.906-4.331
							c-0.623-2.879-1.383-5.728-2.305-8.521c-0.482-1.387-0.977-2.778-1.605-4.107C132.748,36.854,132.076,35.529,131.133,34.386z"
							/>
						<path fill="#1E3F82" d="M79.471,108.657c-1.629,5.672-2.906,11.413-4.017,17.173c-1.082,5.77-1.917,11.573-2.379,17.407
							c-0.479,5.828-0.564,11.688-0.163,17.519c0.215,2.915,0.578,5.819,1.064,8.709c0.483,2.892,1.214,5.734,2.02,8.577
							c-1.179-2.708-2.087-5.531-2.86-8.398c-0.698-2.882-1.249-5.806-1.587-8.758c-0.342-2.95-0.509-5.923-0.548-8.893
							c-0.009-2.97,0.101-5.937,0.325-8.898c0.263-2.957,0.608-5.902,1.069-8.83c0.48-2.924,1.036-5.835,1.725-8.716
							C75.468,119.788,77.2,114.108,79.471,108.657z"/>
					</g>
					<g>
						<path fill="#FFCDBD" d="M95.628,108.511c0,0-12.891-4.83-13.89-16.885c0,0,0.558-7.788,7.718-7.374
							c7.161,0.417,7.926,7.494,7.926,7.494L95.628,108.511z"/>
						<path fill="#B26356" d="M92.688,90.051c-0.863-0.396-1.751-0.693-2.5-0.624c-0.744,0.07-1.161,0.445-1.515,1.045
							c-0.347,0.61-0.572,1.396-0.772,2.191c-0.149,0.746-0.205,1.46-0.105,2.222c0.104,0.753,0.31,1.512,0.604,2.261
							c0.312,0.739,0.702,1.46,1.157,2.157c0.479,0.674,1.006,1.339,1.644,1.904c0.627,0.584,1.352,1.07,2.272,1.362
							c-0.937,0.306-1.998,0.108-2.936-0.254c-0.933-0.394-1.799-0.955-2.544-1.655c-0.733-0.709-1.352-1.537-1.85-2.447
							c-0.48-0.922-0.811-1.941-0.959-3.008c-0.134-1.068-0.011-2.214,0.324-3.24c0.354-0.952,0.769-1.923,1.555-2.779
							c0.208-0.208,0.45-0.399,0.676-0.583c0.272-0.156,0.54-0.321,0.838-0.413c0.608-0.189,1.247-0.193,1.792-0.036
							C91.445,88.515,92.193,89.227,92.688,90.051z"/>
					</g>
					<g>
						<path fill="#0B1838" d="M118.518,102.719c0.201-1.314,0.904-2.486,1.838-3.448c0.943-0.957,2.209-1.677,3.594-1.962
							c1.371-0.274,2.848-0.203,4.088,0.342c0.322,0.103,0.623,0.246,0.904,0.43c0.285,0.172,0.561,0.352,0.83,0.536
							c0.506,0.422,0.971,0.882,1.361,1.405c-0.686-0.015-1.271-0.149-1.865-0.215c-0.299-0.02-0.588-0.046-0.869-0.079
							l-0.414-0.057l-0.416-0.005c-1.086-0.105-2.092,0.041-3.066,0.216c-0.975,0.201-1.934,0.549-2.912,1.04
							C120.607,101.415,119.623,102.015,118.518,102.719z"/>
						<path fill="#0B1838" d="M154.035,97.587c0.398-0.823,1.123-1.357,1.938-1.67c0.818-0.306,1.787-0.341,2.676-0.055
							c0.883,0.285,1.695,0.845,2.17,1.589c0.275,0.345,0.408,0.773,0.549,1.17c0.092,0.424,0.145,0.85,0.094,1.299
							c-0.457-0.153-0.777-0.355-1.117-0.513c-0.355-0.132-0.619-0.33-0.926-0.43c-0.557-0.288-1.066-0.428-1.553-0.603
							c-0.492-0.16-1.01-0.298-1.631-0.413L154.035,97.587z"/>
					</g>
					<g>
						<g>
							<path fill="#0B1838" d="M112.004,97.322c0,0-2,0.636-1.266-1.243c0.732-1.879,6.895-7.143,12.072-7.468
								c5.178-0.329-1.963,3.065-4.549,4.417C115.678,94.38,112.004,97.322,112.004,97.322z"/>
							<path fill="#0B1838" d="M161.93,90.876c0,0,1.379-0.046,0.674-1.436c-0.703-1.387-5.354-4.065-8.762-2.818
								c-3.408,1.247,1.65,2.042,3.496,2.432C159.186,89.447,161.93,90.876,161.93,90.876z"/>
						</g>
						<path fill="#FF9C85" d="M145.633,96.536c0,0,0.051-3.246-1.594-0.343c-1.643,2.907-4.311,8.685-4.217,11.52
							s2.586,9.536,6.1,6.654c3.512-2.884,2.213-6.514,1.215-9.938C146.141,101.005,145.633,96.536,145.633,96.536z"/>
					</g>
				</g>
			</g>
			<g>
				<path fill="#0B1838" d="M127.918,126.955c0,0,0.297-0.317,0.885-0.8c0.301-0.23,0.66-0.525,1.113-0.809
					c0.221-0.152,0.463-0.304,0.734-0.439c0.264-0.147,0.551-0.289,0.875-0.391c0.16-0.058,0.324-0.115,0.49-0.174
					c0.174-0.041,0.359-0.063,0.545-0.095l0.283-0.043c0.061-0.006,0.064-0.019,0.174-0.019l0.135,0.008
					c0.172,0.003,0.363,0.022,0.588,0.083c0.828,0.205,1.523,0.607,2.223,1.042c0.691,0.436,1.387,0.888,2.098,1.287
					c0.711,0.395,1.465,0.716,2.215,0.785c0.396,0.048,0.691,0.015,1.145-0.069c0.369-0.087,0.721-0.201,1.08-0.378
					c0.703-0.341,1.354-0.812,1.986-1.312c0.631-0.494,1.295-1.003,2.078-1.282c0.201-0.06,0.396-0.122,0.604-0.139l0.152-0.02
					l0.037-0.005l0.047-0.003l0.018,0.001l0.066,0.003l0.264,0.009c0.418,0.056,0.785,0.17,1.086,0.341
					c0.623,0.321,1.061,0.753,1.441,1.12c0.379,0.37,0.695,0.698,0.979,0.938c0.285,0.234,0.525,0.403,0.713,0.471
					c0.186,0.065,0.297,0.077,0.297,0.077s-0.107,0.009-0.311-0.025c-0.205-0.038-0.492-0.156-0.814-0.366
					c-0.324-0.208-0.688-0.497-1.105-0.811c-0.42-0.309-0.895-0.657-1.441-0.895c-0.273-0.132-0.57-0.181-0.842-0.206l-0.264,0.012
					l-0.066,0.003l-0.018,0.001c0.012-0.001-0.033,0.001,0.021-0.001l-0.008,0.001l-0.027,0.007l-0.113,0.025
					c-0.152,0.022-0.303,0.087-0.453,0.143c-0.602,0.269-1.164,0.77-1.785,1.287c-0.619,0.518-1.291,1.091-2.117,1.493
					c-0.4,0.206-0.861,0.368-1.33,0.478c-0.385,0.082-0.957,0.162-1.418,0.097c-0.971-0.106-1.828-0.506-2.59-0.939
					c-0.766-0.436-1.441-0.945-2.102-1.391c-0.656-0.438-1.307-0.872-1.91-1.071c-0.129-0.057-0.297-0.093-0.486-0.109l-0.133-0.019
					c0.02,0.002-0.064,0.007-0.092,0.01l-0.24,0.02c-0.158,0.016-0.316,0.019-0.473,0.041c-0.154,0.042-0.305,0.083-0.453,0.123
					c-0.303,0.063-0.578,0.187-0.846,0.292c-0.271,0.094-0.521,0.208-0.752,0.327c-0.473,0.216-0.859,0.457-1.186,0.645
					C128.273,126.704,127.918,126.955,127.918,126.955z"/>
			</g>
		</g>
		<g>
			<path fill="#E89E0A" d="M196.254,76.311l-2.879-2.623c-1.75-1.596-3.586-3.102-5.428-4.604c0.783-0.92,1.586-1.817,2.342-2.772
				c1.334-1.69,2.633-3.419,3.805-5.294c-2.012,0.916-3.9,1.974-5.752,3.07c-1.85,1.098-3.646,2.264-5.416,3.456l-1.912,1.291
				l1.795,2.276c1.088,1.379,2.258,2.673,3.395,4.002c-2.678,1.581-5.32,3.213-7.898,4.952l-3.732,2.52l3.293,2.675
				c1.018,0.828,2.08,1.604,3.121,2.404c-1.029,0.869-2.049,1.755-3.064,2.651c-1.939,1.791-3.877,3.583-5.635,5.654
				c2.623-0.715,5.068-1.711,7.51-2.708c2.41-1.053,4.811-2.115,7.119-3.326l2.986-1.57l-2.645-2.832
				c-0.652-0.7-1.35-1.354-2.018-2.036c2.559-1.542,5.09-3.126,7.555-4.817L196.254,76.311z"/>
			<path fill="#E89E0A" d="M81.987,55.229c-1.264-1.11-2.531-2.214-3.813-3.295c1.295-0.994,2.616-1.958,3.881-2.986l4.093-3.326
				l-4.638-3.13c-3.205-2.162-6.49-4.192-9.818-6.154c1.414-1.652,2.869-3.262,4.221-4.977l2.23-2.829l-2.379-1.603
				c-2.197-1.482-4.43-2.93-6.73-4.295c-2.303-1.366-4.649-2.679-7.15-3.816c1.458,2.329,3.071,4.48,4.731,6.581
				c0.937,1.185,1.933,2.304,2.908,3.445c-2.287,1.868-4.569,3.74-6.745,5.721l-3.578,3.26l4.298,2.947
				c3.064,2.103,6.212,4.073,9.393,5.985c-0.832,0.849-1.697,1.662-2.509,2.533l-3.286,3.521l3.714,1.949
				c2.867,1.506,5.853,2.827,8.847,4.133c3.036,1.24,6.073,2.479,9.333,3.367C86.803,59.685,84.395,57.455,81.987,55.229z"/>
		</g>
	</g>
</g>
</svg>
