<?xml version="1.0" encoding="utf-8"?>
<!-- Generator: Adobe Illustrator 16.0.0, SVG Export Plug-In . SVG Version: 6.00 Build 0)  -->
<!DOCTYPE svg PUBLIC "-//W3C//DTD SVG 1.1//EN" "http://www.w3.org/Graphics/SVG/1.1/DTD/svg11.dtd">
<svg version="1.1" id="Layer_1" xmlns="http://www.w3.org/2000/svg" xmlns:xlink="http://www.w3.org/1999/xlink" x="0px" y="0px"
	 width="200px" height="200px" viewBox="0 0 200 200" enable-background="new 0 0 200 200" xml:space="preserve">
<g>
	<g>
		<g>
			<path fill="#FFFFFF" d="M162.683,171.656c20.538-8.493,34.402-30.928,32.812-53.095c-1.587-22.166-18.513-42.394-40.054-47.869
				c-12.149-3.088-25.711-2.03-36.32-8.705c-8.162-5.133-13.085-13.949-18.603-21.856c-5.515-7.907-12.847-15.718-22.424-16.831
				c-7.775-0.907-15.283,2.832-22.039,6.787c-11.092,6.495-21.771,13.984-30.211,23.679c-17.72,20.345-23.895,50.122-15.731,75.837
				c2.568,8.087,6.416,15.7,10.328,23.229c5.013,9.642,10.349,19.464,18.659,26.471c9.473,7.99,21.939,11.546,34.228,13.153
				c30.701,4.018,62.747-3.188,88.774-19.963"/>
		</g>
		<g>
			<defs>
				<path id="SVGID_1_" d="M162.683,171.656c20.538-8.493,34.402-30.928,32.812-53.095c-1.587-22.166-4.013-40.535-15.889-59.321
					c-11.588-18.329-17.257-32.471-27.87-39.146c-8.159-5.133-29.403-6.706-45.551-4.953C96.6,16.178,95.03,13.96,77.441,20.094
					c-7.394,2.576-14.63,6.038-21.387,9.994c-11.092,6.495-21.771,13.984-30.211,23.679c-17.72,20.345-23.895,50.122-15.731,75.837
					c2.568,8.087,6.416,15.7,10.328,23.229c5.013,9.642,10.349,19.464,18.659,26.471c9.473,7.99,21.939,11.546,34.228,13.153
					c30.701,4.018,62.747-3.188,88.774-19.963"/>
			</defs>
			<clipPath id="SVGID_2_">
				<use xlink:href="#SVGID_1_"  overflow="visible"/>
			</clipPath>
			<g clip-path="url(#SVGID_2_)">
				<g>
					<path fill="#E89E0A" d="M90.597,190.998c0,0,6.343,6.58,19.347,4.034s15.195,0.541,19.081-5.886
						c3.888-6.429,3.489-18.545-7.424-29.179c-10.914-10.636-29.313-3.739-39.792,3.408
						C71.33,170.521,90.597,190.998,90.597,190.998z"/>
					<path fill="#2D1F04" d="M106.673,182.18c0,0-1.118-13.671,5.319-27.729c0,0,3.663,10.718,9.152,16.469
						C126.636,176.668,115.21,184.957,106.673,182.18z"/>
					<g>
						<path fill="#A06600" d="M94.202,181c-0.809,1.585-1.524,2.901-1.979,4.305c-0.241,0.694-0.41,1.399-0.511,2.147
							c-0.147,0.758-0.13,1.539-0.229,2.452c-0.595-0.666-1.019-1.508-1.153-2.416c-0.161-0.905-0.079-1.869,0.229-2.741
							c0.292-0.876,0.779-1.674,1.398-2.323C92.583,181.784,93.321,181.246,94.202,181z"/>
						<path fill="#A06600" d="M127.164,189.337c-0.88-1.673-1.576-3.153-2.475-4.502c-0.433-0.683-0.93-1.305-1.476-1.915
							c-0.532-0.646-1.187-1.16-1.872-1.854c0.944,0.002,1.92,0.253,2.739,0.777c0.828,0.506,1.557,1.206,2.076,2.025
							c0.53,0.813,0.896,1.718,1.08,2.649C127.406,187.448,127.443,188.411,127.164,189.337z"/>
						<path fill="#A06600" d="M129.559,180.213c-1.015-1.012-1.732-1.845-2.554-2.45c-0.4-0.314-0.822-0.566-1.324-0.782
							c-0.497-0.255-1.073-0.385-1.767-0.657c0.558-0.449,1.267-0.72,2.021-0.7c0.749-0.005,1.53,0.264,2.129,0.738
							c0.608,0.461,1.057,1.084,1.316,1.748C129.629,178.781,129.745,179.495,129.559,180.213z"/>
						<path fill="#A06600" d="M98.626,183.108c-0.054,0.918-0.09,1.735-0.09,2.544c-0.004,0.806,0.011,1.587,0.07,2.371
							c0.075,0.778,0.125,1.568,0.253,2.37c0.088,0.815,0.248,1.63,0.296,2.563c-0.702-0.596-1.241-1.342-1.621-2.168
							c-0.402-0.819-0.6-1.733-0.681-2.646c-0.066-0.918,0.047-1.85,0.324-2.724C97.469,184.554,97.909,183.71,98.626,183.108z"/>
						<path fill="#A06600" d="M104.268,184.564c0.569,1.58,0.782,3.024,1.025,4.466l0.341,2.144l0.423,2.266
							c-0.755-0.399-1.308-1.078-1.724-1.801c-0.396-0.732-0.641-1.528-0.775-2.332c-0.127-0.802-0.134-1.614-0.032-2.411
							C103.642,186.096,103.835,185.303,104.268,184.564z"/>
						<path fill="#A06600" d="M110.318,184.176c0.64,0.532,1.088,1.173,1.477,1.836c0.378,0.672,0.67,1.384,0.878,2.125
							c0.202,0.739,0.318,1.513,0.322,2.295c-0.015,0.783-0.12,1.589-0.491,2.332c-0.367-0.745-0.621-1.424-0.87-2.106
							c-0.248-0.683-0.468-1.359-0.654-2.053c-0.193-0.692-0.356-1.397-0.481-2.127
							C110.382,185.747,110.288,185.002,110.318,184.176z"/>
						<path fill="#A06600" d="M116.61,183.508c0.722,0.378,1.243,0.969,1.688,1.589c0.431,0.63,0.76,1.32,0.988,2.04
							c0.427,1.444,0.547,3.007-0.042,4.498c-0.431-0.689-0.689-1.357-0.959-2.012c-0.242-0.661-0.483-1.305-0.675-1.961
							c-0.204-0.652-0.393-1.31-0.563-1.988C116.883,184.989,116.728,184.301,116.61,183.508z"/>
						<path fill="#A06600" d="M115.736,160.837c-0.103-0.51,0.063-0.953,0.297-1.322c0.246-0.364,0.591-0.659,0.989-0.835
							c0.79-0.345,1.763-0.324,2.469,0.394c-0.369,0.369-0.672,0.564-0.949,0.764c-0.281,0.174-0.529,0.333-0.794,0.442
							c-0.263,0.114-0.528,0.215-0.846,0.303C116.578,160.666,116.235,160.747,115.736,160.837z"/>
						<path fill="#A06600" d="M117.468,163.942c0.011-0.606,0.343-1.103,0.725-1.488c0.397-0.383,0.887-0.646,1.401-0.796
							c0.514-0.149,1.05-0.171,1.568-0.088c0.519,0.097,1.02,0.293,1.461,0.688c-0.495,0.34-0.932,0.516-1.352,0.688
							c-0.415,0.165-0.808,0.288-1.196,0.397c-0.387,0.114-0.771,0.202-1.185,0.295L117.468,163.942z"/>
						<path fill="#A06600" d="M119.523,167.463c0.167-0.634,0.554-1.112,0.994-1.514c0.453-0.391,0.994-0.676,1.578-0.842
							c1.155-0.335,2.561-0.137,3.409,0.834c-0.62,0.229-1.11,0.318-1.582,0.477l-1.355,0.38c-0.446,0.126-0.903,0.246-1.395,0.364
							C120.677,167.274,120.165,167.392,119.523,167.463z"/>
						<path fill="#A06600" d="M122.337,171.055c0.094-0.567,0.463-0.971,0.857-1.273c0.406-0.295,0.876-0.475,1.353-0.55
							c0.479-0.077,0.964-0.034,1.424,0.099c0.458,0.148,0.896,0.38,1.26,0.806c-0.479,0.305-0.891,0.444-1.289,0.577
							c-0.394,0.122-0.763,0.199-1.13,0.254c-0.365,0.058-0.729,0.083-1.119,0.097C123.295,171.074,122.891,171.063,122.337,171.055
							z"/>
					</g>
				</g>
				<path fill="#FFCDBD" d="M106.673,182.18c0,0-1.338-19.067,10.301-35.466c0,0,31.037,11.509,48.257-14.522
					c0,0,8.761-10.938,3.527-31.503c0,0-6.08-29.808-10.576-36.625c-4.495-6.818-31.298-22.393-57.956,1.063
					C73.568,88.585,79.393,163.74,81.585,168.41C81.585,168.41,103.325,187.761,106.673,182.18z"/>
				<g>
					<path fill="#0B1838" d="M40.521,236.836c0,0-24.429-5.253-35.722-22.024C-6.497,198.04,42.213,40.325,98.309,24.059
						c56.096-16.264,67.029,22.757,67.029,22.757s7.892,23.124,14.268,26.478c0,0-4.004,3.009-16.501,3.205l-2.438-8.586
						l-1.454,9.078c0,0-19.74,4.276-39.916-1.039c0,0,1.682-12.125,0.487-18.788c0,0-4.85,19.4-7.912,21.175l-8.078-0.183
						c0,0-27.459,61.73-14.011,104.216c0,0,8.274,22.155,16.341,31.675C106.123,214.047,78.965,238.001,40.521,236.836z"/>
					<path fill="#1E3F82" d="M13.756,212.531c0.62-6.353,1.615-12.66,2.667-18.959c1.121-6.286,2.398-12.546,3.811-18.775
						c2.834-12.462,6.414-24.749,10.547-36.851c4.293-12.045,9.192-23.895,15.118-35.237c2.992-5.655,6.227-11.177,9.684-16.554
						c3.57-5.307,7.349-10.468,11.487-15.327c-3.826,5.109-7.451,10.348-10.76,15.786c-3.293,5.447-6.381,11.013-9.208,16.71
						c-2.766,5.727-5.485,11.477-7.905,17.36c-2.419,5.883-4.687,11.827-6.761,17.841c-2.11,6.001-4.072,12.055-5.884,18.156
						c-1.821,6.102-3.417,12.265-5.012,18.428c-1.566,6.172-2.985,12.383-4.277,18.625
						C15.931,199.964,14.766,206.232,13.756,212.531z"/>
					<path fill="#1E3F82" d="M37.668,174.654c0.586-6.833,1.726-13.615,3.222-20.317c1.486-6.705,3.391-13.315,5.629-19.821
						c2.31-6.479,5.049-12.812,8.254-18.902c3.285-6.054,7.179-11.774,11.686-16.938c-1.871,2.882-3.964,5.576-5.576,8.597
						c-1.825,2.881-3.292,5.966-4.89,8.968l-2.141,4.637c-0.35,0.777-0.736,1.533-1.052,2.323l-0.96,2.368
						c-0.622,1.586-1.354,3.123-1.904,4.735l-1.762,4.797c-2.249,6.431-4.208,12.964-5.958,19.562
						c-0.863,3.301-1.691,6.614-2.438,9.949C38.976,167.936,38.319,171.29,37.668,174.654z"/>
					<path fill="#1E3F82" d="M135.966,28.785c4.737,0.615,9.262,2.741,12.979,5.796c0.483,0.362,0.923,0.775,1.361,1.188
						c0.438,0.417,0.89,0.817,1.276,1.283l1.205,1.354l1.09,1.443c0.383,0.472,0.692,0.988,1.014,1.5
						c0.317,0.512,0.655,1.017,0.953,1.536c0.579,1.043,1.177,2.08,1.734,3.139c2.221,4.229,4.26,8.546,6.253,12.871
						c0.995,2.163,1.994,4.325,3.095,6.429c1.08,2.11,2.268,4.193,3.934,5.904c-1.812-1.57-3.099-3.65-4.312-5.695
						c-1.183-2.08-2.256-4.212-3.325-6.343c-2.121-4.269-4.151-8.577-6.419-12.754c-0.543-1.056-1.125-2.093-1.689-3.139
						c-0.29-0.516-0.611-1.006-0.914-1.511c-0.308-0.5-0.604-1.008-0.971-1.469c-1.318-1.955-2.98-3.642-4.72-5.219
						c-1.767-1.558-3.741-2.884-5.856-3.943C140.548,30.083,138.305,29.244,135.966,28.785z"/>
					<path fill="#1E3F82" d="M122.764,32.093c-1.863,0.647-3.568,1.663-5.104,2.857c-1.53,1.197-2.954,2.55-4.101,4.123
						c-2.397,3.062-4.008,6.677-4.98,10.441c-1.035,3.76-1.265,7.683-1.716,11.604l-0.689,5.871l-0.418,2.925
						c-0.074,0.487-0.15,0.976-0.243,1.463l-0.083,0.363c-0.029,0.065-0.005,0.107-0.095,0.2c-0.104-0.004-0.068-0.088-0.081-0.103
						l-0.005-0.095c-0.004-0.25,0.014-0.495,0.03-0.74c0.005,0.245,0.011,0.494,0.036,0.736l0.011,0.087
						c0,0.032,0.037,0.058-0.015,0.036c-0.019-0.004,0.02-0.092,0.021-0.144l0.048-0.362c0.06-0.488,0.103-0.978,0.143-1.467
						l0.222-2.943l0.446-5.891c0.068-0.979,0.138-1.963,0.226-2.942c0.08-0.98,0.156-1.962,0.295-2.948
						c0.137-0.984,0.208-1.977,0.399-2.952l0.62-2.922c1.064-3.83,2.717-7.573,5.304-10.637
						C115.565,35.589,118.931,33.104,122.764,32.093z"/>
					<path fill="#1E3F82" d="M133.369,34.856c2.122,2.122,3.336,4.951,4.461,7.688c1.088,2.781,1.878,5.662,2.53,8.566
						c0.346,1.449,0.585,2.917,0.866,4.375c0.217,1.47,0.468,2.939,0.652,4.406l0.588,4.406c0.163,1.472,0.358,2.941,0.496,4.419
						c-0.333-1.445-0.612-2.899-0.922-4.351l-0.83-4.369l-0.803-4.362c-0.305-1.446-0.548-2.901-0.904-4.333
						c-0.624-2.882-1.384-5.73-2.306-8.527c-0.485-1.388-0.979-2.778-1.607-4.109C134.985,37.325,134.313,36,133.369,34.856z"/>
					<path fill="#1E3F82" d="M81.677,109.174c-1.63,5.676-2.908,11.421-4.019,17.184c-1.085,5.772-1.917,11.58-2.381,17.417
						c-0.479,5.833-0.565,11.694-0.163,17.53c0.216,2.917,0.575,5.823,1.065,8.713c0.481,2.896,1.215,5.74,2.021,8.583
						c-1.18-2.71-2.089-5.534-2.864-8.402c-0.697-2.884-1.251-5.81-1.586-8.764c-0.343-2.952-0.509-5.926-0.549-8.897
						c-0.008-2.973,0.099-5.941,0.326-8.904c0.263-2.959,0.608-5.906,1.069-8.837c0.481-2.926,1.037-5.837,1.724-8.72
						C77.669,120.312,79.404,114.629,81.677,109.174z"/>
				</g>
				<g>
					<path fill="#FFCDBD" d="M97.845,109.028c0,0-12.898-4.834-13.898-16.896c0,0,0.558-7.793,7.722-7.378
						c7.166,0.418,7.932,7.499,7.932,7.499L97.845,109.028z"/>
					<path fill="#B26356" d="M94.902,90.557c-0.863-0.396-1.752-0.694-2.501-0.624c-0.745,0.07-1.162,0.445-1.516,1.045
						c-0.348,0.61-0.573,1.396-0.773,2.192c-0.152,0.747-0.207,1.46-0.105,2.222c0.103,0.753,0.307,1.513,0.604,2.262
						c0.312,0.741,0.703,1.461,1.158,2.16c0.479,0.674,1.006,1.339,1.646,1.904c0.627,0.584,1.353,1.071,2.271,1.363
						c-0.935,0.305-1.999,0.107-2.934-0.255c-0.934-0.394-1.801-0.956-2.546-1.656c-0.734-0.71-1.353-1.537-1.854-2.449
						c-0.479-0.923-0.808-1.941-0.959-3.01c-0.134-1.069-0.009-2.215,0.328-3.241c0.351-0.954,0.767-1.924,1.555-2.781
						c0.208-0.208,0.451-0.399,0.676-0.584c0.271-0.156,0.541-0.32,0.839-0.413c0.608-0.189,1.248-0.193,1.792-0.036
						C93.659,89.019,94.408,89.731,94.902,90.557z"/>
				</g>
				<g>
					<path fill="#0B1838" d="M120.745,103.231c0.202-1.314,0.904-2.488,1.84-3.45c0.944-0.957,2.212-1.678,3.596-1.963
						c1.375-0.274,2.849-0.203,4.092,0.342c0.32,0.104,0.623,0.247,0.902,0.432c0.288,0.17,0.564,0.351,0.833,0.535
						c0.505,0.422,0.971,0.884,1.361,1.405c-0.686-0.015-1.273-0.148-1.864-0.215c-0.299-0.02-0.588-0.047-0.869-0.079l-0.416-0.058
						l-0.415-0.004c-1.089-0.105-2.093,0.04-3.068,0.216c-0.976,0.202-1.938,0.548-2.915,1.041
						C122.84,101.928,121.854,102.527,120.745,103.231z"/>
					<path fill="#0B1838" d="M156.284,98.097c0.401-0.823,1.125-1.357,1.94-1.671c0.82-0.306,1.789-0.341,2.68-0.056
						c0.882,0.285,1.695,0.846,2.17,1.591c0.273,0.345,0.408,0.772,0.548,1.17c0.091,0.425,0.146,0.851,0.095,1.301
						c-0.457-0.154-0.777-0.356-1.119-0.514c-0.356-0.132-0.618-0.33-0.925-0.431c-0.557-0.288-1.067-0.428-1.553-0.602
						c-0.493-0.161-1.013-0.299-1.633-0.414L156.284,98.097z"/>
				</g>
				<g>
					<defs>
						<path id="SVGID_3_" d="M106.673,182.18c0,0-1.338-19.067,10.301-35.466c0,0,31.037,11.509,48.257-14.522
							c0,0,8.761-10.938,3.527-31.503c0,0-6.08-29.808-10.576-36.625c-4.495-6.818-31.298-22.393-57.956,1.063
							C73.568,88.585,79.393,163.74,81.585,168.41C81.585,168.41,103.325,187.761,106.673,182.18z"/>
					</defs>
					<clipPath id="SVGID_4_">
						<use xlink:href="#SVGID_3_"  overflow="visible"/>
					</clipPath>
					<g clip-path="url(#SVGID_4_)">
						
							<radialGradient id="SVGID_5_" cx="47.293" cy="108.4043" r="15.9593" gradientTransform="matrix(2.5448 0 0 0.9954 2.2296 2.31)" gradientUnits="userSpaceOnUse">
							<stop  offset="0" style="stop-color:#B34130;stop-opacity:0.9367"/>
							<stop  offset="0.6367" style="stop-color:#FFBFAD;stop-opacity:0"/>
						</radialGradient>
						<ellipse opacity="0.6" fill="url(#SVGID_5_)" cx="122.583" cy="110.217" rx="53.057" ry="8.603"/>
						
							<radialGradient id="SVGID_6_" cx="52.8311" cy="108.4043" r="12.0777" gradientTransform="matrix(2.9972 0 0 0.9954 5.3744 2.31)" gradientUnits="userSpaceOnUse">
							<stop  offset="0" style="stop-color:#B34130;stop-opacity:0.9367"/>
							<stop  offset="0.6367" style="stop-color:#FFBFAD;stop-opacity:0"/>
						</radialGradient>
						<ellipse opacity="0.6" fill="url(#SVGID_6_)" cx="163.717" cy="110.217" rx="47.291" ry="6.51"/>
					</g>
				</g>
				<g>
					<g>
						<path fill="#0B1838" d="M114.229,97.831c0,0-2.001,0.637-1.267-1.243c0.731-1.88,6.898-7.146,12.08-7.472
							c5.181-0.329-1.964,3.066-4.551,4.42C117.905,94.888,114.229,97.831,114.229,97.831z"/>
						<path fill="#0B1838" d="M164.187,91.383c0,0,1.38-0.047,0.675-1.437c-0.705-1.389-5.356-4.068-8.769-2.821
							c-3.408,1.248,1.653,2.043,3.5,2.434C161.437,89.953,164.187,91.383,164.187,91.383z"/>
					</g>
					<path fill="#FF9C85" d="M147.877,97.044c0,0,0.052-3.248-1.593-0.342c-1.645,2.907-4.313,8.688-4.219,11.526
						c0.095,2.836,2.587,9.541,6.102,6.658c3.517-2.886,2.216-6.518,1.219-9.944C148.389,101.517,147.877,97.044,147.877,97.044z"/>
				</g>
				<g>
					<g>
						<path fill="#FFBB22" d="M36.877,156.048c0,0-8.566,3.827-9.697,15.054c-1.131,11.226,3.932,18.538,3.234,22.282
							c-0.699,3.737-2.909,15.859-2.263,19.706c0.646,3.843,3.556,14.259,10.02,16.02c6.464,1.765,12.928,4.809,15.999,11.217
							c3.07,6.409,8.403,13.62,12.121,14.901c3.716,1.28,17.938,16.022,19.714,16.821c1.776,0.803,15.353,9.613,38.784,0
							c23.433-9.611,6.627-25.794,21.331-39.412c14.708-13.619,1.672-17.733,1.672-29.695c0-11.964,1.076-16.022,1.076-16.022
							s-19.822-9.186-34.26-5.768c0,0-1.938-0.213-1.724,7.264s-1.725,10.681-3.446,13.459c-1.724,2.776-1.509,7.262-1.509,7.262
							s-8.025-8.384-8.188-16.877c-0.163-8.491-14.545-15.219-16.967-20.348C80.348,166.784,58.046,144.996,36.877,156.048z"/>
						<path fill="#C1840A" d="M113.791,181.575c-0.209,0.246-0.373,0.522-0.51,0.813c-0.286,0.575-0.437,1.195-0.58,1.81
							c-0.269,1.234-0.397,2.488-0.445,3.739c-0.11,2.45-0.313,4.84-0.951,7.094c-0.311,1.125-0.712,2.203-1.234,3.225
							c-0.512,1.043-1.153,1.964-1.843,3.04c-0.773,1.265-1.164,2.596-1.431,3.907c-0.008,0.046-0.015,0.09-0.023,0.138
							c-1.485-2.021-2.787-4.208-3.83-6.426c-0.749-1.651-1.338-3.37-1.586-5.103c-0.08-0.431-0.093-0.863-0.148-1.293l-0.069-0.761
							c-0.021-0.285-0.053-0.566-0.113-0.843c-0.203-1.116-0.597-2.16-1.09-3.111c-1.003-1.897-2.39-3.433-3.819-4.815
							c-1.428-1.396-2.978-2.604-4.53-3.771c-1.542-1.181-3.141-2.261-4.665-3.418c-0.764-0.575-1.526-1.153-2.237-1.786
							c-0.712-0.632-1.393-1.302-1.917-2.119c0.333,0.914,0.904,1.739,1.514,2.504c0.617,0.76,1.282,1.482,1.967,2.175
							c1.384,1.373,2.803,2.689,4.208,3.99c1.397,1.312,2.758,2.643,4,4.026c1.248,1.38,2.311,2.878,3.06,4.419
							c0.359,0.775,0.605,1.57,0.711,2.359c0.038,0.197,0.047,0.394,0.051,0.589l0.032,0.683c0.035,0.526,0.037,1.063,0.105,1.584
							c0.259,2.096,0.92,4.066,1.726,5.935c0.809,1.869,1.81,3.624,2.946,5.271c1.14,1.665,2.34,3.2,3.759,4.721l2.723,2.919
							l-0.157-4.022c-0.084-2.162,0.146-4.658,1.093-6.397c0.582-1.023,1.243-2.196,1.732-3.402
							c0.502-1.214,0.882-2.479,1.105-3.756c0.428-2.555,0.404-5.12,0.15-7.575c-0.106-1.208-0.161-2.42-0.113-3.624
							c0.038-0.598,0.097-1.199,0.242-1.776c0.072-0.291,0.174-0.569,0.315-0.828c0.144-0.256,0.354-0.503,0.666-0.554
							C114.285,181.116,113.995,181.338,113.791,181.575z"/>
					</g>
					<path fill="#2D1F04" d="M115.739,161.018c0,0,13.791-8.057,30.624-1.041c0,0,14.545,6.487,7.39,10.556
						c0,0-3.836,4.852-24.842,2.714C107.902,171.112,115.739,161.018,115.739,161.018z"/>
					<g>
						<path fill="#FFFFFF" d="M123.813,156.629c0,0-13.577,3.079-17.3-4.046s0.734-7.4,2.259-13.354
							c1.524-5.955,0.074-14.025,10.47-16.966c10.396-2.938,11.49,0.154,16.252,2.904s9.751,1.464,14.317-2.208
							c4.568-3.67,10.178-5.757,14.319-1.294c4.14,4.464,6.035,17.273-2.454,21.591c-8.491,4.315-24.123,14.36-28.626,14.066
							C128.549,157.024,123.813,156.629,123.813,156.629z"/>
						<path fill="#FFCDBD" d="M124.426,168.858c0,0,6.39-10.163,0-21.735c-6.39-11.571-11.476-9.212-11.063-14.646
							c0,0,0.238-3.309,5.882-0.712c5.645,2.601,11.78,9.216,18.262,5.434c6.481-3.777,15.857-11.456,20.835-10.275
							c0,0,2.892,1.299-3.59,5.435c0,0,10.188-8.397,12.619-5.557c2.429,2.838-12.039,10.163-18.406,17.723
							c-6.365,7.561-6.828,25.989-5.555,30.005C143.409,174.529,125.003,173.229,124.426,168.858z"/>
					</g>
					<g>
						<path fill="#E89E0A" d="M115.739,161.018c0,0-3.88-0.719-4.202,10.964c-0.322,11.686,0,12.73,5.818,13.077
							c5.818,0.35,20.687,3.66,26.342,5.751s11.475-1.396,11.475-9.061c0-7.666,0.476-12.59,0.476-12.59s-10.872,8.476-29.467,1.208
							C112.66,165.082,115.739,161.018,115.739,161.018z"/>
						<g>
							<path fill="#A06600" d="M117.297,166.293l-0.62,4.067c-0.195,1.336-0.35,2.665-0.475,3.991
								c-0.131,1.327-0.187,2.653-0.208,3.991c-0.03,1.344,0.079,2.675,0.125,4.09c-0.668-1.23-1.134-2.598-1.336-3.996
								c-0.21-1.395-0.278-2.824-0.129-4.229c0.129-1.402,0.415-2.789,0.844-4.124C115.93,168.753,116.49,167.452,117.297,166.293z"
								/>
							<path fill="#A06600" d="M150.154,189.939l0.584-4.072c0.183-1.338,0.325-2.666,0.44-3.995
								c0.12-1.329,0.164-2.655,0.172-3.993c0.021-1.344-0.101-2.673-0.159-4.088c0.679,1.227,1.157,2.585,1.37,3.982
								c0.224,1.395,0.303,2.822,0.167,4.228c-0.118,1.406-0.393,2.792-0.811,4.132
								C151.499,187.469,150.949,188.772,150.154,189.939z"/>
							<path fill="#A06600" d="M123.092,170.391c-0.599,2.268-0.977,4.396-1.15,6.581c-0.063,1.09-0.146,2.183-0.118,3.293
								c-0.009,1.113,0.07,2.23,0.049,3.424c-0.603-1.016-1.03-2.136-1.255-3.295c-0.263-1.16-0.308-2.359-0.227-3.549
								c0.086-1.189,0.374-2.361,0.804-3.468C121.63,172.275,122.225,171.213,123.092,170.391z"/>
							<path fill="#A06600" d="M128.264,172.313c0.366,1.011,0.543,2.046,0.647,3.078c0.099,1.037,0.127,2.078,0.048,3.118
								c-0.075,1.037-0.23,2.073-0.514,3.093c-0.283,1.011-0.67,2.022-1.313,2.888c0.026-1.073,0.062-2.072,0.114-3.081
								c0.053-1.002,0.081-2.007,0.163-3.009c0.072-1.004,0.165-2.012,0.292-3.021C127.826,174.362,127.986,173.348,128.264,172.313
								z"/>
							<path fill="#A06600" d="M135.02,174.362c0.159,1.024,0.167,2.021,0.12,3.01c-0.046,0.988-0.147,1.97-0.307,2.939
								c-0.154,0.972-0.374,1.932-0.645,2.885c-0.272,0.953-0.599,1.898-1.075,2.815c-0.163-1.022-0.17-2.021-0.124-3.011
								c0.049-0.991,0.146-1.971,0.309-2.94c0.157-0.971,0.377-1.932,0.646-2.885C134.217,176.225,134.543,175.281,135.02,174.362z"
								/>
							<path fill="#A06600" d="M140.627,174.876c0.438,1.015,0.619,2.1,0.688,3.181c0.063,1.081,0.02,2.171-0.165,3.238
								c-0.179,1.066-0.469,2.121-0.888,3.121c-0.399,1.003-0.951,1.954-1.652,2.798c0.106-1.102,0.319-2.117,0.486-3.139
								l0.519-3.033C139.966,179.021,140.231,177.018,140.627,174.876z"/>
							<path fill="#A06600" d="M146.445,174.876c0.448,1.15,0.568,2.379,0.625,3.576c0.049,1.201,0.004,2.402-0.129,3.589
								c-0.127,1.186-0.346,2.358-0.629,3.52c-0.285,1.159-0.645,2.306-1.162,3.416c-0.122-1.22-0.099-2.411-0.039-3.593
								c0.057-1.182,0.151-2.35,0.284-3.514c0.129-1.164,0.289-2.324,0.468-3.484C146.031,177.225,146.249,176.078,146.445,174.876z
								"/>
						</g>
					</g>
				</g>
			</g>
		</g>
		<path fill="#0B1838" d="M147.611,127.825c-0.773,3.378-2.927,5.771-4.81,5.34c-1.885-0.432-2.786-3.521-2.013-6.899
			c0.772-3.383,2.926-5.771,4.811-5.342C147.484,121.354,148.384,124.442,147.611,127.825z"/>
	</g>
</g>
</svg>
